# Blender v3.1.2 OBJ File: ''
# www.blender.org
mtllib ComberCover.mtl
o 立方体
v -3.000000 -3.000000 3.000000
v -2.320649 -2.000000 2.000000
v -3.000000 3.000000 3.000000
v -2.320649 2.000000 2.000000
v -3.000000 -3.000000 -3.000000
v 2.087097 -2.000000 -1.994879
v 2.087097 2.000000 -1.994879
v -2.320649 -2.000000 -2.000000
v -3.000000 3.000000 -3.000000
v -1.912903 -2.000000 -1.994879
v -2.320649 2.000000 -2.000000
v -1.912903 2.000000 -1.994879
v 3.000000 -3.000000 3.000000
v 3.000000 3.000000 3.000000
v 3.000000 -3.000000 -3.000000
v 3.000000 3.000000 -3.000000
v 3.000000 -2.000000 -2.000000
v 3.000000 2.000000 2.000000
v 3.000000 2.000000 -2.000000
v 3.000000 -2.000000 2.000000
v -1.912903 2.000000 3.000000
v 2.087097 -2.000000 3.000000
v 2.087097 2.000000 3.000000
v -1.912903 -2.000000 3.000000
v -1.912903 -2.000000 2.000000
v 2.087097 -2.000000 2.000000
v 0.089658 -2.000000 2.000000
v 0.084537 2.000000 2.000000
v -1.912903 2.000000 2.000000
v 2.087097 2.000000 2.000000
v -1.912903 2.000000 1.693461
v 2.087097 -2.000000 1.313691
v 0.884763 -2.000000 0.409790
v -0.572560 2.000000 0.685807
v -3.000000 -3.000000 2.000000
v -3.000000 -3.000000 1.000000
v -3.000000 -3.000000 -0.000000
v -3.000000 -3.000000 -1.000000
v -3.000000 -3.000000 -2.000000
v -3.000000 3.000000 2.000000
v -3.000000 3.000000 1.000000
v -3.000000 3.000000 -0.000000
v -3.000000 3.000000 -1.000000
v -3.000000 3.000000 -2.000000
v 3.000000 -3.000000 2.000000
v 3.000000 -3.000000 1.000000
v 3.000000 -3.000000 -0.000000
v 3.000000 -3.000000 -1.000000
v 3.000000 -3.000000 -2.000000
v 3.000000 3.000000 2.000000
v 3.000000 3.000000 1.000000
v 3.000000 3.000000 -0.000000
v 3.000000 3.000000 -1.000000
v 3.000000 3.000000 -2.000000
v 3.000000 -2.000000 -1.333333
v 3.000000 -2.000000 -0.666667
v 3.000000 -2.000000 0.000000
v 3.000000 -2.000000 0.666667
v 3.000000 -2.000000 1.333333
v -3.000000 -4.979293 -2.000000
v -3.000000 -4.979293 -3.000000
v -3.000000 -4.979293 3.000000
v 3.000000 -4.979293 3.000000
v 3.000000 -4.979293 -3.000000
v 3.000000 -4.979293 -2.000000
v -3.000000 -4.979293 2.000000
v 3.000000 -4.979293 2.000000
vt 0.625000 0.208333
vt 0.375000 0.250000
vt 0.375000 0.208333
vt 0.625000 0.250000
vt 0.375000 0.500000
vt 0.625000 0.708333
vt 0.625000 0.750000
vt 0.583333 0.708333
vt 0.375000 0.541667
vt 0.416667 0.541667
vt 0.416667 0.569444
vt 0.375000 0.750000
vt 0.583333 0.788038
vt 0.416667 0.788038
vt 0.625000 1.000000
vt 0.375000 1.000000
vt 0.583333 0.954704
vt 0.375000 0.208333
vt 0.875000 0.708333
vt 0.375000 0.250000
vt 0.625000 0.000000
vt 0.375000 0.000000
vt 0.625000 0.250000
vt 0.375000 0.416270
vt 0.625000 0.416270
vt 0.375000 1.000000
vt 0.625000 0.987258
vt 0.375000 0.987258
vt 0.375000 0.833730
vt 0.625000 0.862258
vt 0.625000 0.833730
vt 0.262742 0.500320
vt 0.291270 0.500000
vt 0.125000 0.500000
vt 0.200322 0.750000
vt 0.262742 0.707106
vt 0.225169 0.650612
vt 0.137742 0.750000
vt 0.862258 0.500320
vt 0.862258 0.730841
vt 0.875000 0.500000
vt 0.737258 0.750000
vt 0.799838 0.750000
vt 0.820372 0.667863
vt 0.862258 0.750000
vt 0.375000 0.500000
vt 0.625000 0.250000
vt 0.625000 0.250000
vt 0.375000 1.000000
vt 0.625000 0.750000
vt 0.375000 1.000000
vt 0.250160 0.625160
vt 0.250160 0.500000
vt 0.218910 0.500000
vt 0.781090 0.500000
vt 0.749840 0.500000
vt 0.749840 0.624840
vt 0.875000 0.500000
vt 0.625000 0.541667
vt 0.625000 0.500000
vt 0.875000 0.541667
vt 0.625000 0.583333
vt 0.875000 0.583333
vt 0.625000 0.625000
vt 0.875000 0.625000
vt 0.625000 0.666667
vt 0.875000 0.666667
vt 0.375000 0.708333
vt 0.125000 0.708333
vt 0.125000 0.708333
vt 0.125000 0.583333
vt 0.125000 0.541667
vt 0.375000 0.583333
vt 0.125000 0.625000
vt 0.375000 0.625000
vt 0.125000 0.666667
vt 0.375000 0.666667
vt 0.416667 0.708333
vt 0.416667 0.680556
vt 0.416667 0.652778
vt 0.416667 0.625000
vt 0.416667 0.597222
vt 0.625000 0.000000
vt 0.375000 0.041667
vt 0.375000 0.000000
vt 0.625000 0.041667
vt 0.375000 0.083333
vt 0.625000 0.083333
vt 0.375000 0.125000
vt 0.625000 0.125000
vt 0.375000 0.166667
vt 0.625000 0.166667
vt 0.375000 0.708333
vt 0.125000 0.750000
vt 0.375000 0.500000
vt 0.125000 0.541667
vt 0.125000 0.500000
vt 0.375000 0.541667
vt 0.375000 0.000000
vt 0.375000 0.250000
vt 0.375000 0.750000
vt 0.583333 0.541667
vt 0.416667 0.954704
vt 0.875000 0.750000
vt 0.625000 1.000000
vt 0.375000 0.862258
vt 0.291270 0.583333
vt 0.262742 0.750000
vt 0.291270 0.708333
vt 0.291270 0.666667
vt 0.291270 0.750000
vt 0.291270 0.625000
vt 0.291270 0.541667
vt 0.125000 0.750000
vt 0.137742 0.500320
vt 0.875000 0.750000
vt 0.708730 0.500000
vt 0.708730 0.750000
vt 0.737258 0.500320
vt 0.375000 0.500000
vt 0.625000 0.750000
vt 0.218910 0.750000
vt 0.250160 0.750000
vt 0.749840 0.750000
vt 0.781090 0.750000
vt 0.375000 0.041667
vt 0.375000 1.000000
vn -1.0000 0.0000 0.0000
vn 0.0000 0.0000 -1.0000
vn 1.0000 0.0000 0.0000
vn 0.0000 0.0000 1.0000
vn 0.0000 1.0000 0.0000
vn 0.0000 -1.0000 0.0000
usemtl None
s off
f 44/1/1 5/2/1 39/3/1
f 9/4/2 15/5/2 5/2/2
f 50/6/3 14/7/3 18/8/3
f 49/9/3 17/10/3 55/11/3
f 13/12/4 23/13/4 22/14/4
f 3/15/4 1/16/4 21/17/4
f 5/2/1 60/18/1 39/3/1
f 40/19/5 14/7/5 50/6/5
f 8/20/3 4/21/3 2/22/3
f 11/23/4 17/24/4 19/25/4
f 2/26/2 29/27/2 25/28/2
f 20/29/2 30/30/2 18/31/2
f 6/32/5 17/33/5 8/34/5
f 27/35/5 32/36/5 33/37/5
f 25/38/5 27/35/5 33/37/5
f 12/39/6 31/40/6 11/41/6
f 30/42/6 28/43/6 34/44/6
f 31/40/6 28/43/6 29/45/6
f 24/46/3 29/47/3 21/48/3
f 22/49/1 30/50/1 26/51/1
f 27/52/5 25/53/5 24/54/5
f 21/55/6 29/56/6 28/57/6
f 9/58/5 54/59/5 16/60/5
f 44/61/5 53/62/5 54/59/5
f 43/63/5 52/64/5 53/62/5
f 42/65/5 51/66/5 52/64/5
f 41/67/5 50/6/5 51/66/5
f 45/68/2 66/69/2 35/70/2
f 49/9/6 38/71/6 39/72/6
f 48/73/6 37/74/6 38/71/6
f 47/75/6 36/76/6 37/74/6
f 46/77/6 35/70/6 36/76/6
f 20/78/3 45/68/3 59/79/3
f 59/79/3 46/77/3 58/80/3
f 58/80/3 47/75/3 57/81/3
f 47/75/3 56/82/3 57/81/3
f 48/73/3 55/11/3 56/82/3
f 3/83/1 35/84/1 1/85/1
f 40/86/1 36/87/1 35/84/1
f 41/88/1 37/89/1 36/87/1
f 42/90/1 38/91/1 37/89/1
f 43/92/1 39/3/1 38/91/1
f 67/93/6 62/94/6 66/69/6
f 64/95/6 60/96/6 61/97/6
f 13/12/3 67/93/3 45/68/3
f 39/72/4 65/98/4 49/9/4
f 35/84/1 62/99/1 1/85/1
f 15/5/2 61/100/2 5/2/2
f 1/16/4 63/101/4 13/12/4
f 49/9/3 64/95/3 15/5/3
f 44/1/1 9/4/1 5/2/1
f 9/4/2 16/60/2 15/5/2
f 19/102/3 17/10/3 15/5/3
f 15/5/3 16/60/3 19/102/3
f 16/60/3 54/59/3 19/102/3
f 53/62/3 52/64/3 19/102/3
f 52/64/3 51/66/3 18/8/3
f 13/12/3 20/78/3 18/8/3
f 18/8/3 19/102/3 52/64/3
f 19/102/3 54/59/3 53/62/3
f 51/66/3 50/6/3 18/8/3
f 14/7/3 13/12/3 18/8/3
f 49/9/3 15/5/3 17/10/3
f 13/12/4 14/7/4 23/13/4
f 21/17/4 23/13/4 14/7/4
f 1/16/4 13/12/4 24/103/4
f 13/12/4 22/14/4 24/103/4
f 21/17/4 14/7/4 3/15/4
f 1/16/4 24/103/4 21/17/4
f 5/2/1 61/100/1 60/18/1
f 40/19/5 3/104/5 14/7/5
f 8/20/3 11/23/3 4/21/3
f 11/23/4 8/20/4 17/24/4
f 2/26/2 4/105/2 29/27/2
f 20/29/2 26/106/2 30/30/2
f 6/32/5 32/36/5 56/107/5
f 32/36/5 26/108/5 59/109/5
f 58/110/5 32/36/5 59/109/5
f 26/108/5 20/111/5 59/109/5
f 58/110/5 57/112/5 32/36/5
f 57/112/5 56/107/5 32/36/5
f 56/107/5 55/113/5 6/32/5
f 55/113/5 17/33/5 6/32/5
f 2/114/5 25/38/5 10/115/5
f 8/34/5 2/114/5 10/115/5
f 10/115/5 6/32/5 8/34/5
f 27/35/5 26/108/5 32/36/5
f 33/37/5 32/36/5 6/32/5
f 6/32/5 10/115/5 33/37/5
f 10/115/5 25/38/5 33/37/5
f 31/40/6 29/45/6 4/116/6
f 19/117/6 18/118/6 7/119/6
f 18/118/6 30/42/6 7/119/6
f 31/40/6 4/116/6 11/41/6
f 19/117/6 7/119/6 11/41/6
f 7/119/6 12/39/6 11/41/6
f 31/40/6 12/39/6 34/44/6
f 12/39/6 7/119/6 34/44/6
f 7/119/6 30/42/6 34/44/6
f 31/40/6 34/44/6 28/43/6
f 24/46/3 25/120/3 29/47/3
f 22/49/1 23/121/1 30/50/1
f 24/54/5 22/122/5 27/52/5
f 22/122/5 26/123/5 27/52/5
f 30/124/6 23/125/6 28/57/6
f 23/125/6 21/55/6 28/57/6
f 9/58/5 44/61/5 54/59/5
f 44/61/5 43/63/5 53/62/5
f 43/63/5 42/65/5 52/64/5
f 42/65/5 41/67/5 51/66/5
f 41/67/5 40/19/5 50/6/5
f 45/68/2 67/93/2 66/69/2
f 49/9/6 48/73/6 38/71/6
f 48/73/6 47/75/6 37/74/6
f 47/75/6 46/77/6 36/76/6
f 46/77/6 45/68/6 35/70/6
f 20/78/3 13/12/3 45/68/3
f 59/79/3 45/68/3 46/77/3
f 58/80/3 46/77/3 47/75/3
f 47/75/3 48/73/3 56/82/3
f 48/73/3 49/9/3 55/11/3
f 3/83/1 40/86/1 35/84/1
f 40/86/1 41/88/1 36/87/1
f 41/88/1 42/90/1 37/89/1
f 42/90/1 43/92/1 38/91/1
f 43/92/1 44/1/1 39/3/1
f 67/93/6 63/101/6 62/94/6
f 64/95/6 65/98/6 60/96/6
f 13/12/3 63/101/3 67/93/3
f 39/72/4 60/96/4 65/98/4
f 35/84/1 66/126/1 62/99/1
f 15/5/2 64/95/2 61/100/2
f 1/16/4 62/127/4 63/101/4
f 49/9/3 65/98/3 64/95/3
