# Blender v3.1.2 OBJ File: ''
# www.blender.org
mtllib ICE_BOX.mtl
o 円柱
v 0.000000 -1.000000 -0.890618
v 0.000000 0.168979 -0.552949
v -0.000000 0.688127 -1.301702
v 0.173751 -1.000000 -0.873505
v 0.107875 0.168979 -0.542324
v 0.253949 0.688127 -1.276690
v 0.340825 -1.000000 -0.822824
v 0.211604 0.168979 -0.510858
v 0.498140 0.688127 -1.202616
v 0.494801 -1.000000 -0.740522
v 0.307202 0.168979 -0.459760
v 0.723187 0.688127 -1.082326
v 0.629762 -1.000000 -0.629762
v 0.390994 0.168979 -0.390994
v 0.920442 0.688127 -0.920442
v 0.740522 -1.000000 -0.494801
v 0.459760 0.168979 -0.307202
v 1.082326 0.688127 -0.723187
v 0.822824 -1.000000 -0.340825
v 0.510858 0.168979 -0.211604
v 1.202616 0.688127 -0.498140
v 0.873505 -1.000000 -0.173751
v 0.542324 0.168979 -0.107875
v 1.276690 0.688127 -0.253949
v 0.890618 -1.000000 0.000000
v 0.552949 0.168979 0.000000
v 1.301702 0.688127 0.000000
v 0.873505 -1.000000 0.173751
v 0.542324 0.168979 0.107875
v 1.276690 0.688127 0.253949
v 0.822824 -1.000000 0.340825
v 0.510858 0.168979 0.211604
v 1.202616 0.688127 0.498140
v 0.740522 -1.000000 0.494801
v 0.459760 0.168979 0.307202
v 1.082326 0.688127 0.723187
v 0.390994 0.168979 0.390994
v 0.629762 -1.000000 0.629762
v 0.920442 0.688127 0.920442
v 0.494801 -1.000000 0.740522
v 0.307202 0.168979 0.459760
v 0.723187 0.688127 1.082326
v 0.211604 0.168979 0.510858
v 0.340825 -1.000000 0.822824
v 0.498140 0.688127 1.202616
v 0.107875 0.168979 0.542324
v 0.173751 -1.000000 0.873505
v 0.253949 0.688127 1.276690
v -0.000000 0.168979 0.552949
v -0.000000 -1.000000 0.890618
v -0.000000 0.688127 1.301702
v -0.173751 -1.000000 0.873505
v -0.107875 0.168979 0.542324
v -0.253949 0.688127 1.276690
v -0.340825 -1.000000 0.822824
v -0.211604 0.168979 0.510858
v -0.498140 0.688127 1.202616
v -0.494801 -1.000000 0.740522
v -0.307202 0.168979 0.459760
v -0.723187 0.688127 1.082326
v -0.629762 -1.000000 0.629762
v -0.390994 0.168979 0.390994
v -0.920442 0.688127 0.920442
v -0.740522 -1.000000 0.494801
v -0.459760 0.168979 0.307202
v -1.082325 0.688127 0.723187
v -0.822824 -1.000000 0.340825
v -0.510858 0.168979 0.211604
v -1.202616 0.688127 0.498140
v -0.873505 -1.000000 0.173751
v -0.542324 0.168979 0.107875
v -1.276690 0.688127 0.253950
v -0.890618 -1.000000 -0.000000
v -0.552949 0.168979 -0.000000
v -1.301702 0.688127 -0.000000
v -0.873505 -1.000000 -0.173751
v -0.542324 0.168979 -0.107875
v -1.276690 0.688127 -0.253950
v -0.822824 -1.000000 -0.340825
v -0.510858 0.168979 -0.211604
v -1.202616 0.688127 -0.498140
v -0.740522 -1.000000 -0.494801
v -0.459760 0.168979 -0.307202
v -1.082326 0.688127 -0.723187
v -0.629762 -1.000000 -0.629762
v -0.390994 0.168979 -0.390994
v -0.920442 0.688127 -0.920442
v -0.494801 -1.000000 -0.740522
v -0.307202 0.168979 -0.459760
v -0.723187 0.688127 -1.082326
v -0.340825 -1.000000 -0.822824
v -0.211604 0.168979 -0.510858
v -0.498140 0.688127 -1.202616
v -0.173751 -1.000000 -0.873505
v -0.107875 0.168979 -0.542324
v -0.253949 0.688127 -1.276690
v 0.000000 0.981099 -0.879329
v 0.171549 0.981099 -0.862432
v 0.336504 0.981099 -0.812394
v 0.488529 0.981099 -0.731135
v 0.621779 0.981099 -0.621779
v 0.731135 0.981099 -0.488529
v 0.812394 0.981099 -0.336504
v 0.862432 0.981099 -0.171549
v 0.879329 0.981099 0.000000
v 0.862432 0.981099 0.171548
v 0.812394 0.981099 0.336504
v 0.731135 0.981099 0.488529
v 0.621779 0.981099 0.621779
v 0.488529 0.981099 0.731135
v 0.336505 0.981099 0.812394
v 0.171548 0.981099 0.862433
v -0.000000 0.981099 0.879329
v -0.171548 0.981099 0.862433
v -0.336504 0.981099 0.812394
v -0.488529 0.981099 0.731135
v -0.621779 0.981099 0.621779
v -0.731135 0.981099 0.488529
v -0.812394 0.981099 0.336505
v -0.862432 0.981099 0.171549
v -0.879329 0.981099 -0.000000
v -0.862432 0.981099 -0.171549
v -0.812394 0.981099 -0.336505
v -0.731135 0.981099 -0.488529
v -0.621779 0.981099 -0.621779
v -0.488529 0.981099 -0.731135
v -0.336504 0.981099 -0.812394
v -0.171548 0.981099 -0.862433
v -0.552949 0.931639 -0.000000
v -0.602647 0.981099 -0.000000
v -0.556773 0.981099 0.230623
v -0.510858 0.931639 0.211604
v -0.591068 0.981099 0.117571
v -0.542324 0.931639 0.107875
v -0.591067 0.981099 -0.117571
v -0.542324 0.931639 -0.107875
v -0.501083 0.981099 0.334813
v -0.459760 0.931639 0.307202
v -0.459760 0.931639 -0.307202
v -0.501083 0.981099 -0.334813
v -0.556773 0.981099 -0.230623
v -0.510858 0.931639 -0.211604
v -0.390994 0.931639 -0.390994
v -0.426136 0.981099 -0.426136
v -0.334813 0.981099 0.501083
v -0.307202 0.931639 0.459760
v -0.334813 0.981099 -0.501083
v -0.307202 0.931639 -0.459760
v -0.000000 0.981099 -0.602647
v 0.000000 0.931639 -0.552949
v -0.107875 0.931639 -0.542324
v -0.117571 0.981099 -0.591067
v 0.211604 0.931639 -0.510858
v 0.230623 0.981099 -0.556773
v 0.117571 0.981099 -0.591067
v 0.107875 0.931639 -0.542324
v -0.211604 0.931639 -0.510858
v -0.230623 0.981099 -0.556773
v -0.426136 0.981099 0.426136
v -0.390994 0.931639 0.390994
v -0.230623 0.981099 0.556773
v -0.211604 0.931639 0.510858
v -0.000000 0.981099 0.602647
v -0.000000 0.931639 0.552949
v 0.117571 0.981099 0.591067
v 0.107875 0.931639 0.542324
v -0.117571 0.981099 0.591067
v -0.107875 0.931639 0.542324
v 0.230623 0.981099 0.556773
v 0.211604 0.931639 0.510858
v 0.307202 0.931639 -0.459760
v 0.334813 0.981099 -0.501083
v 0.334813 0.981099 0.501083
v 0.307202 0.931639 0.459760
v 0.501083 0.981099 -0.334813
v 0.459760 0.931639 -0.307202
v 0.501083 0.981099 0.334813
v 0.459760 0.931639 0.307202
v 0.426136 0.981099 -0.426136
v 0.390994 0.931639 -0.390994
v 0.602647 0.981099 0.000000
v 0.552949 0.931639 0.000000
v 0.591067 0.981099 -0.117571
v 0.542324 0.931639 -0.107875
v 0.556773 0.981099 0.230623
v 0.510858 0.931639 0.211604
v 0.591067 0.981099 0.117571
v 0.542324 0.931639 0.107875
v 0.510858 0.931639 -0.211604
v 0.556773 0.981099 -0.230623
v 0.426136 0.981099 0.426136
v 0.390994 0.931639 0.390994
vt 0.866023 0.000248
vt 0.809652 0.996747
vt 0.809634 -0.000026
vt 0.750570 -0.000313
vt 0.689793 0.995906
vt 0.691100 -0.000602
vt 0.633514 -0.000882
vt 0.631561 0.995497
vt 0.580019 -0.001142
vt 0.511908 0.684687
vt 0.512928 0.887517
vt 0.508863 0.686087
vt 0.505479 0.687051
vt 0.507982 0.888926
vt 0.501887 0.687543
vt 0.502732 0.889645
vt 0.498225 0.687543
vt 0.497379 0.889645
vt 0.494633 0.687051
vt 0.492129 0.888926
vt 0.491249 0.686087
vt 0.482733 0.885471
vt 0.488204 0.684687
vt 0.399161 1.000171
vt 0.337724 -0.001019
vt 0.386008 -0.000937
vt 0.349001 1.000290
vt 0.285392 -0.001108
vt 0.294632 1.000420
vt 0.231024 -0.001200
vt 0.238109 1.000554
vt 0.176708 -0.001291
vt 0.181685 1.000688
vt 0.124531 -0.001380
vt 0.127467 1.000817
vt 0.076500 -0.001461
vt 0.077558 1.000936
vt 0.034459 -0.001532
vt 0.033862 1.001040
vt 0.000024 -0.001590
vt 0.515832 0.251945
vt 0.509202 0.081964
vt 0.511184 0.080664
vt 0.512936 0.253845
vt 0.506873 0.082900
vt 0.505751 0.255994
vt 0.504287 0.083435
vt 0.501542 0.083548
vt 0.501740 0.256161
vt 0.498745 0.083236
vt 0.493644 0.254643
vt 0.496003 0.082511
vt 0.493421 0.081399
vt 0.489870 0.253019
vt 0.491098 0.079944
vt 0.486475 0.250893
vt 0.489124 0.078203
vt 1.000612 0.998089
vt 0.962296 0.000716
vt 0.998483 0.000892
vt 0.474033 0.329730
vt 0.463005 0.321153
vt 0.465261 0.299116
vt 0.964022 0.997832
vt 0.917570 0.000499
vt 0.918796 0.997514
vt 0.488492 0.642841
vt 0.504467 0.632568
vt 0.518450 0.803359
vt 0.526063 0.205422
vt 0.528616 0.321791
vt 0.526063 0.321791
vt 0.472299 0.567189
vt 0.474421 0.684699
vt 0.472299 0.683558
vt 0.461448 0.058873
vt 0.453009 0.106004
vt 0.455896 0.043858
vt 0.417661 0.177284
vt 0.426388 0.222131
vt 0.416489 0.215765
vt 0.455896 0.426908
vt 0.449027 0.369933
vt 0.453009 0.364762
vt 0.476333 0.177285
vt 0.465261 0.171650
vt 0.474033 0.141036
vt 0.432546 0.058873
vt 0.433860 0.130871
vt 0.427549 0.080670
vt 0.423300 0.362352
vt 0.433860 0.339895
vt 0.427549 0.390095
vt 0.476333 0.293481
vt 0.466814 0.274630
vt 0.449027 0.100833
vt 0.450002 0.036204
vt 0.416489 0.255000
vt 0.426388 0.248635
vt 0.456759 0.354619
vt 0.461448 0.411893
vt 0.463005 0.149612
vt 0.470694 0.108414
vt 0.430989 0.149612
vt 0.423300 0.108413
vt 0.437235 0.354619
vt 0.432546 0.411893
vt 0.467606 0.248635
vt 0.477505 0.255000
vt 0.444967 0.100833
vt 0.443992 0.036204
vt 0.427180 0.274630
vt 0.417661 0.293481
vt 0.466445 0.390095
vt 0.460135 0.339895
vt 0.466445 0.080670
vt 0.460135 0.130871
vt 0.428734 0.171650
vt 0.419961 0.141036
vt 0.440986 0.364762
vt 0.438098 0.426908
vt 0.477505 0.215766
vt 0.467606 0.222131
vt 0.438098 0.043858
vt 0.440986 0.106004
vt 0.428734 0.299116
vt 0.419961 0.329729
vt 0.470694 0.362352
vt 0.456759 0.116146
vt 0.427180 0.196136
vt 0.450002 0.434562
vt 0.444967 0.369933
vt 0.443992 0.434562
vt 0.466814 0.196136
vt 0.437235 0.116146
vt 0.430989 0.321153
vt 0.462380 0.566403
vt 0.464884 0.682371
vt 0.462380 0.682772
vt 0.460579 0.208485
vt 0.459514 0.191703
vt 0.457960 0.475603
vt 0.475723 0.491949
vt 0.457899 0.491949
vt 0.458255 0.554217
vt 0.476302 0.566002
vt 0.458478 0.566002
vt 0.460021 0.805113
vt 0.462380 0.689530
vt 0.462380 0.805899
vt 0.474421 0.803972
vt 0.476226 0.686151
vt 0.476226 0.802520
vt 0.464884 0.689931
vt 0.464884 0.806300
vt 0.469940 0.805899
vt 0.472299 0.688744
vt 0.472299 0.805113
vt 0.467436 0.806300
vt 0.469940 0.689530
vt 0.457899 0.803972
vt 0.460021 0.688744
vt 0.467436 0.689931
vt 0.474421 0.687603
vt 0.474421 0.568330
vt 0.458081 0.540360
vt 0.476079 0.554217
vt 0.475723 0.508615
vt 0.457899 0.508615
vt 0.457960 0.524962
vt 0.475905 0.540360
vt 0.475784 0.524962
vt 0.460021 0.567189
vt 0.460021 0.683558
vt 0.458081 0.460205
vt 0.475784 0.475603
vt 0.531120 0.205823
vt 0.533478 0.322977
vt 0.531120 0.322191
vt 0.528616 0.205422
vt 0.519078 0.207750
vt 0.521201 0.322977
vt 0.519078 0.324118
vt 0.433416 0.262281
vt 0.434480 0.279062
vt 0.521201 0.206609
vt 0.523560 0.322191
vt 0.458255 0.446347
vt 0.476302 0.434562
vt 0.476079 0.446347
vt 0.533478 0.206609
vt 0.535601 0.324118
vt 0.457899 0.568330
vt 0.457899 0.684699
vt 0.475905 0.460205
vt 0.464884 0.566002
vt 0.467436 0.682371
vt 0.469940 0.566403
vt 0.469940 0.682772
vt 0.467436 0.566002
vt 0.519576 0.096133
vt 0.525899 0.045833
vt 0.538177 0.195792
vt 0.451117 0.146713
vt 0.448274 0.150774
vt 0.448388 0.143169
vt 0.433416 0.208485
vt 0.434038 0.227050
vt 0.432873 0.226301
vt 0.432873 0.244465
vt 0.451117 0.324053
vt 0.448274 0.319992
vt 0.450777 0.316741
vt 0.440859 0.160403
vt 0.437993 0.163756
vt 0.440307 0.153664
vt 0.443217 0.154025
vt 0.453136 0.310362
vt 0.459459 0.210703
vt 0.458482 0.195305
vt 0.455258 0.301103
vt 0.453688 0.317102
vt 0.434536 0.210703
vt 0.434480 0.191703
vt 0.435513 0.195305
vt 0.436026 0.176600
vt 0.434536 0.260062
vt 0.435513 0.275460
vt 0.436026 0.294166
vt 0.438736 0.301103
vt 0.440307 0.317102
vt 0.437993 0.307010
vt 0.445606 0.143169
vt 0.443217 0.316740
vt 0.442877 0.324053
vt 0.445721 0.319992
vt 0.445606 0.327596
vt 0.448388 0.327596
vt 0.453688 0.153664
vt 0.450777 0.154025
vt 0.460579 0.262281
vt 0.459957 0.243716
vt 0.461121 0.244465
vt 0.461121 0.226301
vt 0.456001 0.163756
vt 0.457063 0.181448
vt 0.455258 0.169663
vt 0.457063 0.289318
vt 0.459514 0.279062
vt 0.457968 0.294166
vt 0.436931 0.181448
vt 0.459459 0.260062
vt 0.442877 0.146713
vt 0.445721 0.150774
vt 0.434038 0.243716
vt 0.436931 0.289318
vt 0.453136 0.160403
vt 0.457968 0.176600
vt 0.459957 0.227050
vt 0.523560 0.205823
vt 0.866672 0.997148
vt 0.749926 0.996328
vt 0.577470 0.995117
vt 0.517379 0.885471
vt 0.487184 0.887517
vt -0.001916 1.001125
vt 0.509532 0.255213
vt 0.497652 0.255704
vt 0.483590 0.248347
vt 0.516877 0.828160
vt 0.514592 0.850480
vt 0.511685 0.869462
vt 0.508266 0.884376
vt 0.504467 0.894649
vt 0.500435 0.899886
vt 0.496323 0.899886
vt 0.492290 0.894649
vt 0.488492 0.884376
vt 0.485073 0.869462
vt 0.482165 0.850480
vt 0.479881 0.828160
vt 0.478307 0.803359
vt 0.477505 0.777031
vt 0.477505 0.750187
vt 0.478307 0.723858
vt 0.479881 0.699057
vt 0.482165 0.676737
vt 0.485073 0.657755
vt 0.492290 0.632568
vt 0.496323 0.627331
vt 0.500435 0.627331
vt 0.508266 0.642841
vt 0.511685 0.657755
vt 0.514592 0.676737
vt 0.516877 0.699057
vt 0.518450 0.723858
vt 0.519252 0.750187
vt 0.519252 0.777031
vt 0.456001 0.307010
vt 0.457899 0.687603
vt 0.476226 0.569782
vt 0.458478 0.434562
vt 0.535601 0.207750
vt 0.528258 0.039455
vt 0.530762 0.036204
vt 0.533314 0.036204
vt 0.535818 0.039455
vt 0.538177 0.045833
vt 0.543523 0.080735
vt 0.540299 0.055093
vt 0.542104 0.066878
vt 0.544500 0.096133
vt 0.544998 0.112480
vt 0.544998 0.129146
vt 0.544500 0.145492
vt 0.543523 0.160890
vt 0.542104 0.174748
vt 0.540299 0.186533
vt 0.535818 0.202170
vt 0.533314 0.205422
vt 0.530762 0.205422
vt 0.528258 0.202170
vt 0.525899 0.195792
vt 0.523777 0.186533
vt 0.521972 0.174748
vt 0.520553 0.160890
vt 0.519576 0.145492
vt 0.519078 0.129146
vt 0.519078 0.112480
vt 0.520553 0.080735
vt 0.521972 0.066878
vt 0.523777 0.055093
vt 0.438736 0.169663
vt 0.440859 0.310362
vt 0.458482 0.275460
vn 0.0953 -0.2355 -0.9672
vn 0.2821 -0.2355 -0.9300
vn 0.4581 -0.2355 -0.8571
vn 0.6165 -0.2355 -0.7513
vn 0.7513 -0.2355 -0.6165
vn 0.8571 -0.2355 -0.4581
vn 0.9300 -0.2355 -0.2821
vn 0.9672 -0.2355 -0.0953
vn 0.9672 -0.2355 0.0953
vn 0.9300 -0.2355 0.2821
vn 0.8571 -0.2355 0.4581
vn 0.7513 -0.2355 0.6165
vn 0.6165 -0.2355 0.7513
vn 0.4581 -0.2355 0.8571
vn 0.2821 -0.2355 0.9300
vn 0.0953 -0.2355 0.9672
vn -0.0953 -0.2355 0.9672
vn -0.2821 -0.2355 0.9300
vn -0.4581 -0.2355 0.8571
vn -0.6165 -0.2355 0.7513
vn -0.7513 -0.2355 0.6165
vn -0.8571 -0.2355 0.4581
vn -0.9300 -0.2355 0.2821
vn -0.9672 -0.2355 0.0953
vn -0.9672 -0.2355 -0.0953
vn -0.9300 -0.2355 -0.2821
vn -0.8571 -0.2355 -0.4581
vn -0.7513 -0.2355 -0.6165
vn -0.6165 -0.2355 -0.7513
vn -0.4581 -0.2355 -0.8571
vn 0.5043 0.8204 -0.2695
vn -0.2821 -0.2355 -0.9300
vn -0.0953 -0.2355 -0.9672
vn 0.0000 -1.0000 0.0000
vn 0.9952 0.0000 0.0980
vn -0.4714 0.0000 0.8819
vn 0.1660 0.8204 0.5472
vn -0.5690 0.8204 0.0560
vn 0.1660 0.8204 -0.5472
vn 0.5043 0.8204 0.2695
vn -0.3627 0.8204 0.4420
vn -0.3627 0.8204 -0.4420
vn 0.5472 0.8204 -0.1660
vn 0.0560 0.8204 0.5690
vn -0.5690 0.8204 -0.0560
vn 0.2695 0.8204 -0.5043
vn 0.4420 0.8204 0.3627
vn -0.4420 0.8204 0.3627
vn -0.2695 0.8204 -0.5043
vn 0.5690 0.8204 -0.0560
vn -0.0560 0.8204 0.5690
vn -0.5472 0.8204 -0.1660
vn 0.3627 0.8204 -0.4420
vn 0.3627 0.8204 0.4420
vn -0.5043 0.8204 0.2695
vn -0.1660 0.8204 -0.5472
vn 0.5690 0.8204 0.0560
vn -0.1660 0.8204 0.5472
vn -0.5043 0.8204 -0.2695
vn 0.4420 0.8204 -0.3627
vn 0.2695 0.8204 0.5043
vn -0.5472 0.8204 0.1660
vn 0.0560 0.8204 -0.5690
vn -0.0560 0.8204 -0.5690
vn 0.5472 0.8204 0.1660
vn -0.2695 0.8204 0.5043
vn -0.4420 0.8204 -0.3627
vn 0.2903 0.0000 0.9569
vn 0.0000 1.0000 -0.0000
vn 0.2903 0.0000 -0.9569
vn -0.6344 0.0000 -0.7730
vn -0.8819 0.0000 -0.4714
vn -0.7730 0.0000 0.6344
vn -0.9569 0.0000 -0.2903
vn -0.9569 0.0000 0.2903
vn -0.9952 0.0000 0.0980
vn -0.7730 0.0000 -0.6344
vn -0.9952 0.0000 -0.0980
vn -0.8819 0.0000 0.4714
vn -0.6344 0.0000 0.7730
vn -0.4714 0.0000 -0.8819
vn 0.0980 0.0000 -0.9952
vn -0.2903 0.0000 -0.9569
vn -0.0980 0.0000 -0.9952
vn 0.4714 0.0000 0.8819
vn 0.4714 0.0000 -0.8819
vn 0.8819 0.0000 0.4714
vn 0.9569 0.0000 0.2903
vn 0.8819 0.0000 -0.4714
vn 0.9569 0.0000 -0.2903
vn 0.7730 0.0000 -0.6344
vn 0.7730 0.0000 0.6344
vn 0.6344 0.0000 0.7730
vn 0.6344 0.0000 -0.7730
vn 0.0980 0.0000 0.9952
vn -0.2903 0.0000 0.9569
vn -0.0980 0.0000 0.9952
vn -0.0693 0.7071 -0.7037
vn 0.7037 0.7071 -0.0693
vn 0.7037 0.7071 0.0693
vn -0.2053 0.7071 0.6767
vn 0.4486 0.7071 -0.5466
vn 0.3333 0.7071 -0.6236
vn -0.3333 0.7071 0.6236
vn -0.6236 0.7071 -0.3333
vn -0.4486 0.7071 0.5466
vn 0.6767 0.7071 -0.2053
vn 0.6236 0.7071 -0.3333
vn 0.6236 0.7071 0.3333
vn 0.5466 0.7071 0.4486
vn 0.3333 0.7071 0.6236
vn 0.0693 0.7071 -0.7037
vn 0.2053 0.7071 0.6767
vn 0.0693 0.7071 0.7037
vn -0.0693 0.7071 0.7037
vn -0.2053 0.7071 -0.6767
vn -0.7037 0.7071 0.0693
vn -0.7037 0.7071 -0.0693
vn -0.4486 0.7071 -0.5466
vn -0.6236 0.7071 0.3333
vn 0.5466 0.7071 -0.4486
vn -0.6767 0.7071 0.2053
vn 0.2053 0.7071 -0.6767
vn 0.6767 0.7071 0.2053
vn 0.4486 0.7071 0.5466
vn -0.3333 0.7071 -0.6236
vn -0.5466 0.7071 0.4486
vn -0.5466 0.7071 -0.4486
vn -0.6767 0.7071 -0.2053
vn 0.9952 0.0000 -0.0980
usemtl マテリアル
s off
f 1/1/1 6/2/1 4/3/1
f 6/2/2 7/4/2 4/3/2
f 7/4/3 12/5/3 10/6/3
f 12/5/4 13/7/4 10/6/4
f 15/8/5 16/9/5 13/7/5
f 16/10/6 21/11/6 19/12/6
f 21/11/7 22/13/7 19/12/7
f 24/14/8 25/15/8 22/13/8
f 27/16/9 28/17/9 25/15/9
f 30/18/10 31/19/10 28/17/10
f 33/20/11 34/21/11 31/19/11
f 34/21/12 39/22/12 38/23/12
f 39/24/13 40/25/13 38/26/13
f 42/27/14 44/28/14 40/25/14
f 45/29/15 47/30/15 44/28/15
f 48/31/16 50/32/16 47/30/16
f 51/33/17 52/34/17 50/32/17
f 54/35/18 55/36/18 52/34/18
f 57/37/19 58/38/19 55/36/19
f 60/39/20 61/40/20 58/38/20
f 63/41/21 64/42/21 61/43/21
f 66/44/22 67/45/22 64/42/22
f 67/45/23 72/46/23 70/47/23
f 72/46/24 73/48/24 70/47/24
f 75/49/25 76/50/25 73/48/25
f 76/50/26 81/51/26 79/52/26
f 81/51/27 82/53/27 79/52/27
f 84/54/28 85/55/28 82/53/28
f 87/56/29 88/57/29 85/55/29
f 90/58/30 91/59/30 88/60/30
f 21/61/31 102/62/31 103/63/31
f 93/64/32 94/65/32 91/59/32
f 96/66/33 1/1/33 94/65/33
f 55/67/34 67/68/34 91/69/34
f 74/70/35 136/71/35 129/72/35
f 8/73/36 171/74/36 153/75/36
f 45/76/37 112/77/37 48/78/37
f 72/79/38 121/80/38 75/81/38
f 9/82/39 98/83/39 99/84/39
f 33/85/40 108/86/40 36/87/40
f 60/88/41 117/89/41 63/90/41
f 87/91/42 126/92/42 90/93/42
f 24/94/43 103/63/43 104/95/43
f 48/78/44 113/96/44 51/97/44
f 78/98/45 121/80/45 122/99/45
f 9/82/46 100/100/46 12/101/46
f 36/87/47 109/102/47 39/103/47
f 63/90/48 118/104/48 66/105/48
f 90/93/49 127/106/49 93/107/49
f 24/94/50 105/108/50 27/109/50
f 51/97/51 114/110/51 54/111/51
f 78/98/52 123/112/52 81/113/52
f 15/114/53 100/100/53 101/115/53
f 42/116/54 109/102/54 110/117/54
f 66/105/55 119/118/55 69/119/55
f 93/107/56 128/120/56 96/121/56
f 30/122/57 105/108/57 106/123/57
f 57/124/58 114/110/58 115/125/58
f 81/113/59 124/126/59 84/127/59
f 15/114/60 102/62/60 18/128/60
f 42/116/61 111/129/61 45/76/61
f 72/79/62 119/118/62 120/130/62
f 6/131/63 97/132/63 98/83/63
f 3/133/64 128/120/64 97/132/64
f 30/122/65 107/134/65 33/85/65
f 57/124/66 116/135/66 60/88/66
f 84/127/67 125/136/67 87/91/67
f 92/137/68 151/138/68 157/139/68
f 107/134/69 185/140/69 177/141/69
f 56/142/70 168/143/70 53/144/70
f 41/145/71 192/146/71 37/147/71
f 35/148/72 186/149/72 32/150/72
f 17/151/73 180/152/73 14/153/73
f 32/150/74 188/154/74 29/155/74
f 23/156/75 189/157/75 20/158/75
f 26/159/76 184/160/76 23/156/76
f 37/161/77 178/162/77 35/148/77
f 29/155/78 182/163/78 26/159/78
f 20/158/79 176/164/79 17/151/79
f 11/165/80 180/152/80 171/74/80
f 43/166/81 174/167/81 41/145/81
f 53/144/82 164/168/82 49/169/82
f 46/170/83 170/171/83 43/166/83
f 49/169/84 166/172/84 46/170/84
f 89/173/85 157/139/85 148/174/85
f 59/175/86 162/176/86 56/142/86
f 80/177/87 139/178/87 142/179/87
f 77/180/88 142/179/88 136/71/88
f 65/181/89 132/182/89 138/183/89
f 123/112/69 141/184/69 140/185/69
f 68/186/90 134/187/90 132/182/90
f 62/188/91 138/189/91 160/190/91
f 83/191/92 143/192/92 139/178/92
f 86/193/93 148/174/93 143/194/93
f 62/188/94 146/195/94 59/175/94
f 95/196/95 150/197/95 151/138/95
f 5/198/96 153/75/96 156/199/96
f 2/200/97 156/199/97 150/197/97
f 74/201/69 62/202/69 14/203/69
f 165/204/98 164/205/98 163/206/98
f 133/207/99 129/208/99 130/209/99
f 129/208/100 135/210/100 130/209/100
f 154/211/101 156/212/101 153/213/101
f 146/214/102 159/215/102 145/216/102
f 145/216/103 162/217/103 146/214/103
f 171/218/104 154/211/104 153/213/104
f 177/141/105 186/219/105 178/220/105
f 180/221/106 172/222/106 171/218/106
f 134/223/107 131/224/107 132/225/107
f 137/226/108 132/225/108 131/224/108
f 140/185/109 142/227/109 139/228/109
f 139/228/110 144/229/110 140/185/110
f 148/230/111 158/231/111 147/232/111
f 164/205/112 167/233/112 163/206/112
f 158/231/113 151/234/113 152/235/113
f 152/235/114 150/236/114 149/237/114
f 150/236/115 155/238/115 149/237/115
f 169/239/116 166/240/116 165/204/116
f 183/241/117 182/242/117 181/243/117
f 182/242/118 187/244/118 181/243/118
f 173/245/119 192/246/119 174/247/119
f 176/248/120 190/249/120 175/250/120
f 159/215/121 138/251/121 137/226/121
f 190/249/122 184/252/122 183/241/122
f 161/253/123 168/254/123 162/217/123
f 136/255/124 141/184/124 135/210/124
f 143/256/125 147/232/125 144/229/125
f 169/239/126 174/247/126 170/257/126
f 175/250/127 180/221/127 176/248/127
f 178/220/128 191/258/128 177/141/128
f 185/140/129 188/259/129 186/219/129
f 71/260/130 129/72/130 134/187/130
f 1/1/1 3/261/1 6/2/1
f 6/2/2 9/262/2 7/4/2
f 7/4/3 9/262/3 12/5/3
f 12/5/4 15/8/4 13/7/4
f 15/8/5 18/263/5 16/9/5
f 16/10/6 18/264/6 21/11/6
f 21/11/7 24/14/7 22/13/7
f 24/14/8 27/16/8 25/15/8
f 27/16/9 30/18/9 28/17/9
f 30/18/10 33/20/10 31/19/10
f 33/20/11 36/265/11 34/21/11
f 34/21/12 36/265/12 39/22/12
f 39/24/13 42/27/13 40/25/13
f 42/27/14 45/29/14 44/28/14
f 45/29/15 48/31/15 47/30/15
f 48/31/16 51/33/16 50/32/16
f 51/33/17 54/35/17 52/34/17
f 54/35/18 57/37/18 55/36/18
f 57/37/19 60/39/19 58/38/19
f 60/39/20 63/266/20 61/40/20
f 63/41/21 66/44/21 64/42/21
f 66/44/22 69/267/22 67/45/22
f 67/45/23 69/267/23 72/46/23
f 72/46/24 75/49/24 73/48/24
f 75/49/25 78/268/25 76/50/25
f 76/50/26 78/268/26 81/51/26
f 81/51/27 84/54/27 82/53/27
f 84/54/28 87/56/28 85/55/28
f 87/56/29 90/269/29 88/57/29
f 90/58/30 93/64/30 91/59/30
f 21/61/31 18/128/31 102/62/31
f 93/64/32 96/66/32 94/65/32
f 96/66/33 3/261/33 1/1/33
f 91/69/34 94/270/34 1/271/34
f 1/271/34 4/272/34 91/69/34
f 4/272/34 7/273/34 91/69/34
f 7/273/34 10/274/34 13/275/34
f 13/275/34 16/276/34 7/273/34
f 16/276/34 19/277/34 7/273/34
f 19/277/34 22/278/34 25/279/34
f 25/279/34 28/280/34 19/277/34
f 28/280/34 31/281/34 19/277/34
f 31/281/34 34/282/34 38/283/34
f 38/283/34 40/284/34 44/285/34
f 44/285/34 47/286/34 50/287/34
f 50/287/34 52/288/34 55/67/34
f 55/67/34 58/289/34 61/290/34
f 61/290/34 64/291/34 67/68/34
f 67/68/34 70/292/34 73/293/34
f 73/293/34 76/294/34 79/295/34
f 79/295/34 82/296/34 91/69/34
f 82/296/34 85/297/34 91/69/34
f 85/297/34 88/298/34 91/69/34
f 31/281/34 38/283/34 44/285/34
f 44/285/34 50/287/34 55/67/34
f 55/67/34 61/290/34 67/68/34
f 67/68/34 73/293/34 91/69/34
f 73/293/34 79/295/34 91/69/34
f 91/69/34 7/273/34 44/285/34
f 7/273/34 19/277/34 44/285/34
f 19/277/34 31/281/34 44/285/34
f 44/285/34 55/67/34 91/69/34
f 74/70/35 77/180/35 136/71/35
f 8/73/36 11/165/36 171/74/36
f 45/76/37 111/129/37 112/77/37
f 72/79/38 120/130/38 121/80/38
f 9/82/39 6/131/39 98/83/39
f 33/85/40 107/134/40 108/86/40
f 60/88/41 116/135/41 117/89/41
f 87/91/42 125/136/42 126/92/42
f 24/94/43 21/61/43 103/63/43
f 48/78/44 112/77/44 113/96/44
f 78/98/45 75/81/45 121/80/45
f 9/82/46 99/84/46 100/100/46
f 36/87/47 108/86/47 109/102/47
f 63/90/48 117/89/48 118/104/48
f 90/93/49 126/92/49 127/106/49
f 24/94/50 104/95/50 105/108/50
f 51/97/51 113/96/51 114/110/51
f 78/98/52 122/99/52 123/112/52
f 15/114/53 12/101/53 100/100/53
f 42/116/54 39/103/54 109/102/54
f 66/105/55 118/104/55 119/118/55
f 93/107/56 127/106/56 128/120/56
f 30/122/57 27/109/57 105/108/57
f 57/124/58 54/111/58 114/110/58
f 81/113/59 123/112/59 124/126/59
f 15/114/60 101/115/60 102/62/60
f 42/116/61 110/117/61 111/129/61
f 72/79/62 69/119/62 119/118/62
f 6/131/63 3/133/63 97/132/63
f 3/133/64 96/121/64 128/120/64
f 30/122/65 106/123/65 107/134/65
f 57/124/66 115/125/66 116/135/66
f 84/127/67 124/126/67 125/136/67
f 92/137/68 95/196/68 151/138/68
f 167/233/69 161/253/69 115/125/69
f 115/125/69 114/110/69 167/233/69
f 114/110/69 113/96/69 163/206/69
f 113/96/69 112/77/69 165/204/69
f 112/77/69 111/129/69 169/239/69
f 111/129/69 110/117/69 169/239/69
f 110/117/69 109/102/69 173/245/69
f 169/239/69 110/117/69 173/245/69
f 109/102/69 108/86/69 191/258/69
f 108/86/69 107/134/69 177/141/69
f 191/258/69 108/86/69 177/141/69
f 107/134/69 106/123/69 187/244/69
f 106/123/69 105/108/69 181/243/69
f 105/108/69 104/95/69 183/241/69
f 104/95/69 103/63/69 190/249/69
f 103/63/69 102/62/69 190/249/69
f 102/62/69 101/115/69 175/250/69
f 190/249/69 102/62/69 175/250/69
f 101/115/69 100/100/69 179/299/69
f 100/100/69 99/84/69 172/222/69
f 179/299/69 100/100/69 172/222/69
f 99/84/69 154/211/69 172/222/69
f 106/123/69 181/243/69 187/244/69
f 104/95/69 190/249/69 183/241/69
f 114/110/69 163/206/69 167/233/69
f 112/77/69 169/239/69 165/204/69
f 165/204/69 163/206/69 113/96/69
f 179/299/69 175/250/69 101/115/69
f 173/245/69 109/102/69 191/258/69
f 105/108/69 183/241/69 181/243/69
f 107/134/69 187/244/69 185/140/69
f 56/142/70 162/176/70 168/143/70
f 41/145/71 174/167/71 192/146/71
f 35/148/72 178/162/72 186/149/72
f 17/151/73 176/164/73 180/152/73
f 32/150/74 186/149/74 188/154/74
f 23/156/75 184/160/75 189/157/75
f 26/159/76 182/163/76 184/160/76
f 37/161/77 192/300/77 178/162/77
f 29/155/78 188/154/78 182/163/78
f 20/158/79 189/157/79 176/164/79
f 11/165/80 14/301/80 180/152/80
f 43/166/81 170/171/81 174/167/81
f 53/144/82 168/143/82 164/168/82
f 46/170/83 166/172/83 170/171/83
f 49/169/84 164/168/84 166/172/84
f 89/173/85 92/137/85 157/139/85
f 59/175/86 146/195/86 162/176/86
f 80/177/87 83/191/87 139/178/87
f 77/180/88 80/177/88 142/179/88
f 65/181/89 68/186/89 132/182/89
f 155/238/69 154/211/69 99/84/69
f 99/84/69 98/83/69 155/238/69
f 98/83/69 97/132/69 149/237/69
f 97/132/69 128/120/69 152/235/69
f 128/120/69 127/106/69 158/231/69
f 127/106/69 126/92/69 158/231/69
f 126/92/69 125/136/69 147/232/69
f 158/231/69 126/92/69 147/232/69
f 125/136/69 124/126/69 144/229/69
f 124/126/69 123/112/69 140/185/69
f 144/229/69 124/126/69 140/185/69
f 123/112/69 122/99/69 135/210/69
f 122/99/69 121/80/69 130/209/69
f 121/80/69 120/130/69 133/207/69
f 120/130/69 119/118/69 131/224/69
f 119/118/69 118/104/69 131/224/69
f 118/104/69 117/89/69 137/226/69
f 131/224/69 118/104/69 137/226/69
f 117/89/69 116/135/69 159/215/69
f 116/135/69 115/125/69 145/216/69
f 159/215/69 116/135/69 145/216/69
f 115/125/69 161/253/69 145/216/69
f 122/99/69 130/209/69 135/210/69
f 120/130/69 131/224/69 133/207/69
f 98/83/69 149/237/69 155/238/69
f 128/120/69 158/231/69 152/235/69
f 152/235/69 149/237/69 97/132/69
f 159/215/69 137/226/69 117/89/69
f 147/232/69 125/136/69 144/229/69
f 121/80/69 133/207/69 130/209/69
f 123/112/69 135/210/69 141/184/69
f 68/186/90 71/260/90 134/187/90
f 62/188/91 65/302/91 138/189/91
f 83/191/92 86/303/92 143/192/92
f 86/193/93 89/173/93 148/174/93
f 62/188/94 160/190/94 146/195/94
f 95/196/95 2/200/95 150/197/95
f 5/198/96 8/73/96 153/75/96
f 2/200/97 5/198/97 156/199/97
f 62/202/69 59/304/69 56/305/69
f 56/305/69 53/306/69 62/202/69
f 53/306/69 49/307/69 62/202/69
f 49/307/69 46/308/69 37/309/69
f 46/308/69 43/310/69 37/309/69
f 43/310/69 41/311/69 37/309/69
f 37/309/69 35/312/69 32/313/69
f 32/313/69 29/314/69 26/315/69
f 26/315/69 23/316/69 20/317/69
f 20/317/69 17/318/69 26/315/69
f 17/318/69 14/203/69 26/315/69
f 14/203/69 11/319/69 8/320/69
f 8/320/69 5/321/69 14/203/69
f 5/321/69 2/322/69 14/203/69
f 2/322/69 95/323/69 92/324/69
f 92/324/69 89/325/69 86/326/69
f 86/326/69 83/327/69 80/328/69
f 80/328/69 77/329/69 74/201/69
f 74/201/69 71/330/69 62/202/69
f 71/330/69 68/331/69 62/202/69
f 68/331/69 65/332/69 62/202/69
f 37/309/69 32/313/69 26/315/69
f 2/322/69 92/324/69 14/203/69
f 92/324/69 86/326/69 14/203/69
f 86/326/69 80/328/69 74/201/69
f 62/202/69 49/307/69 37/309/69
f 37/309/69 26/315/69 62/202/69
f 26/315/69 14/203/69 62/202/69
f 86/326/69 74/201/69 14/203/69
f 165/204/98 166/240/98 164/205/98
f 133/207/99 134/223/99 129/208/99
f 129/208/100 136/255/100 135/210/100
f 154/211/101 155/238/101 156/212/101
f 146/214/102 160/333/102 159/215/102
f 145/216/103 161/253/103 162/217/103
f 171/218/104 172/222/104 154/211/104
f 177/141/105 185/140/105 186/219/105
f 180/221/106 179/299/106 172/222/106
f 134/223/107 133/207/107 131/224/107
f 137/226/108 138/251/108 132/225/108
f 140/185/109 141/184/109 142/227/109
f 139/228/110 143/256/110 144/229/110
f 148/230/111 157/334/111 158/231/111
f 164/205/112 168/254/112 167/233/112
f 158/231/113 157/334/113 151/234/113
f 152/235/114 151/234/114 150/236/114
f 150/236/115 156/212/115 155/238/115
f 169/239/116 170/257/116 166/240/116
f 183/241/117 184/252/117 182/242/117
f 182/242/118 188/259/118 187/244/118
f 173/245/119 191/258/119 192/246/119
f 176/248/120 189/335/120 190/249/120
f 159/215/121 160/333/121 138/251/121
f 190/249/122 189/335/122 184/252/122
f 161/253/123 167/233/123 168/254/123
f 136/255/124 142/227/124 141/184/124
f 143/256/125 148/230/125 147/232/125
f 169/239/126 173/245/126 174/247/126
f 175/250/127 179/299/127 180/221/127
f 178/220/128 192/246/128 191/258/128
f 185/140/129 187/244/129 188/259/129
f 71/260/130 74/70/130 129/72/130
