# Blender v3.1.2 OBJ File: ''
# www.blender.org
mtllib Pipe_1_3.mtl
o 平面_平面.002
v -0.346410 11.974264 -5.800000
v -0.200000 11.974264 -5.653590
v -0.000000 11.974264 -5.600000
v 0.200000 11.974264 -5.653590
v 0.346410 11.974264 -5.800000
v 0.400000 11.974264 -6.000000
v 0.346410 11.974264 -6.200000
v 0.200000 11.974264 -6.346410
v 0.000000 11.974264 -6.400000
v -0.200000 11.974264 -6.346410
v -0.346410 11.974264 -6.200000
v -0.400000 11.974264 -6.000000
v -0.346410 0.000000 0.200000
v -0.200000 0.000000 0.346410
v -0.000000 0.000000 0.400000
v 0.200000 0.000000 0.346410
v 0.346410 0.000000 0.200000
v 0.400000 0.000000 0.000000
v 0.346410 0.000000 -0.200000
v 0.200000 0.000000 -0.346410
v 0.000000 0.000000 -0.400000
v -0.200000 0.000000 -0.346410
v -0.346410 0.000000 -0.200000
v -0.400000 0.000000 -0.000000
v -0.346410 0.000000 0.200000
v -0.200000 0.000000 0.346410
v -0.000000 0.000000 0.400000
v 0.200000 0.000000 0.346410
v 0.346410 0.000000 0.200000
v 0.400000 0.000000 0.000000
v 0.346410 0.000000 -0.200000
v 0.200000 0.000000 -0.346410
v 0.000000 0.000000 -0.400000
v -0.200000 0.000000 -0.346410
v -0.346410 0.000000 -0.200000
v -0.400000 0.000000 -0.000000
v -0.346410 4.050801 0.184776
v -0.200000 4.106830 0.320041
v -0.000000 4.127337 0.369552
v 0.200000 4.106830 0.320041
v 0.346410 4.050801 0.184776
v 0.400000 3.974264 0.000000
v 0.346410 3.897727 -0.184776
v 0.200000 3.841699 -0.320041
v 0.000000 3.821191 -0.369552
v -0.200000 3.841699 -0.320041
v -0.346410 3.897727 -0.184776
v -0.400000 3.974264 -0.000000
v -0.346410 6.159040 -1.923463
v -0.200000 6.294305 -1.867435
v -0.000000 6.343816 -1.846927
v 0.200000 6.294305 -1.867435
v 0.346410 6.159040 -1.923463
v 0.400000 5.974265 -2.000000
v 0.346410 5.789488 -2.076537
v 0.200000 5.654223 -2.132565
v 0.000000 5.604712 -2.153074
v -0.200000 5.654222 -2.132565
v -0.346410 5.789488 -2.076537
v -0.400000 5.974264 -2.000000
v -0.346410 6.159040 -3.923463
v -0.200000 6.294305 -3.867435
v -0.000000 6.343816 -3.846926
v 0.200000 6.294305 -3.867435
v 0.346410 6.159040 -3.923463
v 0.400000 5.974265 -4.000000
v 0.346410 5.789488 -4.076537
v 0.200000 5.654223 -4.132565
v 0.000000 5.604712 -4.153073
v -0.200000 5.654222 -4.132565
v -0.346410 5.789488 -4.076537
v -0.400000 5.974264 -4.000000
v -0.346410 8.050800 -5.815224
v -0.200000 8.106830 -5.679959
v -0.000000 8.127337 -5.630448
v 0.200000 8.106830 -5.679958
v 0.346410 8.050801 -5.815224
v 0.400000 7.974264 -6.000000
v 0.346410 7.897727 -6.184776
v 0.200000 7.841699 -6.320041
v 0.000000 7.821191 -6.369552
v -0.200000 7.841699 -6.320042
v -0.346410 7.897727 -6.184776
v -0.400000 7.974264 -6.000000
v -0.346410 11.974264 -5.800000
v -0.200000 11.974264 -5.653590
v -0.000000 11.974264 -5.600000
v 0.200000 11.974264 -5.653590
v 0.346410 11.974264 -5.800000
v 0.400000 11.974264 -6.000000
v 0.346410 11.974264 -6.200000
v 0.200000 11.974264 -6.346410
v 0.000000 11.974264 -6.400000
v -0.200000 11.974264 -6.346410
v -0.346410 11.974264 -6.200000
v -0.400000 11.974264 -6.000000
vt 0.818182 0.000000
vt 0.636364 0.000000
vt 0.727273 0.000000
vt 0.909091 0.000000
vt 0.545455 0.000000
vt 1.000000 0.000000
vt 0.454545 0.000000
vt 0.000000 0.000000
vt 0.363636 0.000000
vt 0.090909 0.000000
vt 0.272727 0.000000
vt 0.181818 0.000000
vt 0.636364 0.000000
vt 0.818182 0.000000
vt 0.727273 0.000000
vt 0.909091 0.000000
vt 0.545455 0.000000
vt 1.000000 0.000000
vt 0.454545 0.000000
vt 0.000000 0.000000
vt 0.363636 0.000000
vt 0.090909 0.000000
vt 0.272727 0.000000
vt 0.181818 0.000000
vt 0.000000 1.000000
vt 0.200000 0.916667
vt 0.000000 0.916667
vt 0.000000 0.083333
vt 0.200000 0.000000
vt 0.000000 0.000000
vt 0.000000 0.166667
vt 0.200000 0.083333
vt 0.200000 0.250000
vt 0.000000 0.250000
vt 0.200000 0.333333
vt 0.000000 0.333333
vt 0.200000 0.416667
vt 0.000000 0.416667
vt 0.200000 0.500000
vt 0.000000 0.500000
vt 0.200000 0.583333
vt 0.000000 0.583333
vt 0.200000 0.666667
vt 0.000000 0.666667
vt 0.000000 0.750000
vt 0.000000 0.833333
vt 0.200000 0.750000
vt 0.200000 0.833333
vt 0.400000 1.000000
vt 0.200000 1.000000
vt 0.400000 0.083333
vt 0.400000 0.166667
vt 0.200000 0.166667
vt 0.400000 0.250000
vt 0.400000 0.333333
vt 0.400000 0.500000
vt 0.400000 0.583333
vt 0.400000 0.750000
vt 0.400000 0.833333
vt 0.400000 0.916667
vt 0.600000 1.000000
vt 0.600000 0.083333
vt 0.400000 0.000000
vt 0.600000 0.166667
vt 0.600000 0.250000
vt 0.400000 0.416667
vt 0.600000 0.333333
vt 0.600000 0.416667
vt 0.600000 0.500000
vt 0.400000 0.666667
vt 0.600000 0.583333
vt 0.600000 0.750000
vt 0.600000 0.833333
vt 0.600000 0.916667
vt 0.800000 1.000000
vt 0.800000 0.000000
vt 0.600000 0.000000
vt 0.800000 0.083333
vt 0.800000 0.250000
vt 0.800000 0.333333
vt 0.800000 0.416667
vt 0.800000 0.500000
vt 0.800000 0.666667
vt 0.600000 0.666667
vt 0.800000 0.750000
vt 0.800000 0.833333
vt 0.800000 0.916667
vt 1.000000 0.916667
vt 1.000000 0.000000
vt 0.800000 0.166667
vt 1.000000 0.083333
vt 1.000000 0.250000
vt 1.000000 0.333333
vt 1.000000 0.416667
vt 1.000000 0.500000
vt 1.000000 0.583333
vt 0.800000 0.583333
vt 1.000000 0.666667
vt 1.000000 0.750000
vt 1.000000 0.833333
vt 1.000000 1.000000
vt 1.000000 0.166667
vn 0.0000 1.0000 -0.0000
vn 0.0000 -1.0000 0.0000
vn -0.9659 -0.0000 0.2588
vn -0.7071 0.0027 0.7071
vn -0.2588 0.0062 0.9659
vn 0.2588 0.0062 0.9659
vn 0.7071 0.0027 0.7071
vn 0.9659 0.0000 0.2588
vn 0.9659 0.0010 -0.2588
vn 0.7071 0.0049 -0.7071
vn 0.2588 0.0077 -0.9659
vn -0.2588 0.0077 -0.9659
vn -0.7071 0.0049 -0.7071
vn -0.9659 0.0010 -0.2588
vn -0.9604 0.1970 0.1970
vn -0.6786 0.5194 0.5194
vn -0.2403 0.6864 0.6864
vn 0.2403 0.6864 0.6864
vn 0.6786 0.5194 0.5194
vn 0.9604 0.1970 0.1970
vn 0.9604 -0.1970 -0.1970
vn 0.6786 -0.5194 -0.5194
vn 0.2403 -0.6864 -0.6864
vn -0.2403 -0.6864 -0.6864
vn -0.6786 -0.5194 -0.5194
vn -0.9604 -0.1970 -0.1970
vn -0.9604 0.2785 0.0000
vn -0.6786 0.7345 0.0000
vn -0.2403 0.9707 0.0000
vn 0.2403 0.9707 0.0000
vn 0.6786 0.7345 0.0000
vn 0.9604 0.2785 0.0000
vn 0.9604 -0.2785 0.0000
vn 0.6786 -0.7345 0.0000
vn 0.2403 -0.9707 0.0000
vn -0.2403 -0.9707 0.0000
vn -0.6786 -0.7345 0.0000
vn -0.9604 -0.2785 0.0000
vn -0.9604 0.0000 0.2785
vn -0.6780 -0.0029 0.7350
vn -0.2396 -0.0066 0.9708
vn 0.2396 -0.0066 0.9708
vn 0.6780 -0.0029 0.7351
vn 0.9604 0.0000 0.2785
vn 0.9605 -0.0010 -0.2781
vn 0.6796 -0.0047 -0.7336
vn 0.2410 -0.0071 -0.9705
vn -0.2410 -0.0071 -0.9705
vn -0.6796 -0.0047 -0.7336
vn -0.9605 -0.0010 -0.2782
vn -0.9605 0.0010 0.2781
vn -0.6796 0.0047 0.7336
vn -0.2410 0.0072 0.9705
vn 0.2410 0.0072 0.9705
vn 0.6796 0.0047 0.7336
vn 0.9605 0.0010 0.2781
vn 0.9604 -0.0000 -0.2785
vn 0.6780 0.0029 -0.7351
vn 0.2397 0.0067 -0.9708
vn -0.2396 0.0067 -0.9708
vn -0.6780 0.0029 -0.7351
vn -0.9604 0.0000 -0.2785
vn -0.9659 -0.0010 0.2588
vn -0.7071 -0.0048 0.7071
vn -0.2588 -0.0076 0.9659
vn 0.2588 -0.0076 0.9659
vn 0.7071 -0.0048 0.7071
vn 0.9659 -0.0010 0.2588
vn 0.9659 0.0000 -0.2588
vn 0.7071 -0.0026 -0.7071
vn 0.2588 -0.0062 -0.9659
vn -0.2588 -0.0062 -0.9659
vn -0.7071 -0.0026 -0.7071
vn -0.9659 0.0000 -0.2588
usemtl None
s off
f 10/1/1 8/2/1 9/3/1
f 11/4/1 8/2/1 10/1/1
f 11/4/1 7/5/1 8/2/1
f 12/6/1 7/5/1 11/4/1
f 12/6/1 6/7/1 7/5/1
f 1/8/1 6/7/1 12/6/1
f 1/8/1 5/9/1 6/7/1
f 2/10/1 5/9/1 1/8/1
f 2/10/1 4/11/1 5/9/1
f 3/12/1 4/11/1 2/10/1
f 20/13/2 22/14/2 21/15/2
f 20/13/2 23/16/2 22/14/2
f 19/17/2 23/16/2 20/13/2
f 19/17/2 24/18/2 23/16/2
f 18/19/2 24/18/2 19/17/2
f 18/19/2 13/20/2 24/18/2
f 17/21/2 13/20/2 18/19/2
f 17/21/2 14/22/2 13/20/2
f 16/23/2 14/22/2 17/21/2
f 16/23/2 15/24/2 14/22/2
f 25/25/3 48/26/3 36/27/3
f 26/28/4 37/29/4 25/30/4
f 27/31/5 38/32/5 26/28/5
f 40/33/6 27/31/6 28/34/6
f 41/35/7 28/34/7 29/36/7
f 42/37/8 29/36/8 30/38/8
f 43/39/9 30/38/9 31/40/9
f 44/41/10 31/40/10 32/42/10
f 45/43/11 32/42/11 33/44/11
f 34/45/12 45/43/12 33/44/12
f 35/46/13 46/47/13 34/45/13
f 36/27/14 47/48/14 35/46/14
f 49/49/15 48/26/15 37/50/15
f 50/51/16 37/29/16 38/32/16
f 51/52/17 38/32/17 39/53/17
f 52/54/18 39/53/18 40/33/18
f 53/55/19 40/33/19 41/35/19
f 42/37/20 53/55/20 41/35/20
f 55/56/21 42/37/21 43/39/21
f 44/41/22 55/56/22 43/39/22
f 45/43/23 56/57/23 44/41/23
f 58/58/24 45/43/24 46/47/24
f 59/59/25 46/47/25 47/48/25
f 60/60/26 47/48/26 48/26/26
f 61/61/27 60/60/27 49/49/27
f 62/62/28 49/63/28 50/51/28
f 63/64/29 50/51/29 51/52/29
f 52/54/30 63/64/30 51/52/30
f 53/55/31 64/65/31 52/54/31
f 54/66/32 65/67/32 53/55/32
f 55/56/33 66/68/33 54/66/33
f 56/57/34 67/69/34 55/56/34
f 57/70/35 68/71/35 56/57/35
f 70/72/36 57/70/36 58/58/36
f 71/73/37 58/58/37 59/59/37
f 72/74/38 59/59/38 60/60/38
f 73/75/15 72/74/15 61/61/15
f 62/62/16 73/76/16 61/77/16
f 63/64/17 74/78/17 62/62/17
f 76/79/18 63/64/18 64/65/18
f 77/80/19 64/65/19 65/67/19
f 78/81/20 65/67/20 66/68/20
f 79/82/21 66/68/21 67/69/21
f 68/71/22 79/82/22 67/69/22
f 81/83/23 68/71/23 69/84/23
f 82/85/24 69/84/24 70/72/24
f 83/86/25 70/72/25 71/73/25
f 84/87/26 71/73/26 72/74/26
f 73/75/39 96/88/39 84/87/39
f 74/78/40 85/89/40 73/76/40
f 75/90/41 86/91/41 74/78/41
f 88/92/42 75/90/42 76/79/42
f 89/93/43 76/79/43 77/80/43
f 90/94/44 77/80/44 78/81/44
f 91/95/45 78/81/45 79/82/45
f 92/96/46 79/82/46 80/97/46
f 93/98/47 80/97/47 81/83/47
f 82/85/48 93/98/48 81/83/48
f 83/86/49 94/99/49 82/85/49
f 84/87/50 95/100/50 83/86/50
f 25/25/51 37/50/51 48/26/51
f 26/28/52 38/32/52 37/29/52
f 27/31/53 39/53/53 38/32/53
f 40/33/54 39/53/54 27/31/54
f 41/35/55 40/33/55 28/34/55
f 42/37/56 41/35/56 29/36/56
f 43/39/57 42/37/57 30/38/57
f 44/41/58 43/39/58 31/40/58
f 45/43/59 44/41/59 32/42/59
f 34/45/60 46/47/60 45/43/60
f 35/46/61 47/48/61 46/47/61
f 36/27/62 48/26/62 47/48/62
f 49/49/15 60/60/15 48/26/15
f 50/51/16 49/63/16 37/29/16
f 51/52/17 50/51/17 38/32/17
f 52/54/18 51/52/18 39/53/18
f 53/55/19 52/54/19 40/33/19
f 42/37/20 54/66/20 53/55/20
f 55/56/21 54/66/21 42/37/21
f 44/41/22 56/57/22 55/56/22
f 45/43/23 57/70/23 56/57/23
f 58/58/24 57/70/24 45/43/24
f 59/59/25 58/58/25 46/47/25
f 60/60/26 59/59/26 47/48/26
f 61/61/27 72/74/27 60/60/27
f 62/62/28 61/77/28 49/63/28
f 63/64/29 62/62/29 50/51/29
f 52/54/30 64/65/30 63/64/30
f 53/55/31 65/67/31 64/65/31
f 54/66/32 66/68/32 65/67/32
f 55/56/33 67/69/33 66/68/33
f 56/57/34 68/71/34 67/69/34
f 57/70/35 69/84/35 68/71/35
f 70/72/36 69/84/36 57/70/36
f 71/73/37 70/72/37 58/58/37
f 72/74/38 71/73/38 59/59/38
f 73/75/15 84/87/15 72/74/15
f 62/62/16 74/78/16 73/76/16
f 63/64/17 75/90/17 74/78/17
f 76/79/18 75/90/18 63/64/18
f 77/80/19 76/79/19 64/65/19
f 78/81/20 77/80/20 65/67/20
f 79/82/21 78/81/21 66/68/21
f 68/71/22 80/97/22 79/82/22
f 81/83/23 80/97/23 68/71/23
f 82/85/24 81/83/24 69/84/24
f 83/86/25 82/85/25 70/72/25
f 84/87/26 83/86/26 71/73/26
f 73/75/63 85/101/63 96/88/63
f 74/78/64 86/91/64 85/89/64
f 75/90/65 87/102/65 86/91/65
f 88/92/66 87/102/66 75/90/66
f 89/93/67 88/92/67 76/79/67
f 90/94/68 89/93/68 77/80/68
f 91/95/69 90/94/69 78/81/69
f 92/96/70 91/95/70 79/82/70
f 93/98/71 92/96/71 80/97/71
f 82/85/72 94/99/72 93/98/72
f 83/86/73 95/100/73 94/99/73
f 84/87/74 96/88/74 95/100/74
