# Blender v3.1.2 OBJ File: ''
# www.blender.org
mtllib Pipe_1_2.mtl
o 平面_平面.001
v -0.346410 10.017967 0.200000
v -0.200000 10.017967 0.346410
v -0.000000 10.017967 0.400000
v 0.200000 10.017967 0.346410
v 0.346410 10.017967 0.200000
v 0.400000 10.017967 0.000000
v 0.346410 10.017967 -0.200000
v 0.200000 10.017967 -0.346410
v 0.000000 10.017967 -0.400000
v -0.200000 10.017967 -0.346410
v -0.346410 10.017967 -0.200000
v -0.400000 10.017967 -0.000000
v -0.346410 0.000000 0.200000
v -0.200000 0.000000 0.346410
v -0.000000 0.000000 0.400000
v 0.200000 0.000000 0.346410
v 0.346410 0.000000 0.200000
v 0.400000 0.000000 0.000000
v 0.346410 0.000000 -0.200000
v 0.200000 0.000000 -0.346410
v 0.000000 0.000000 -0.400000
v -0.200000 0.000000 -0.346410
v -0.346410 0.000000 -0.200000
v -0.400000 0.000000 -0.000000
v -0.346410 0.000000 0.200000
v -0.200000 0.000000 0.346410
v -0.000000 0.000000 0.400000
v 0.200000 0.000000 0.346410
v 0.346410 0.000000 0.200000
v 0.400000 0.000000 0.000000
v 0.346410 0.000000 -0.200000
v 0.200000 0.000000 -0.346410
v 0.000000 0.000000 -0.400000
v -0.200000 0.000000 -0.346410
v -0.346410 0.000000 -0.200000
v -0.400000 0.000000 -0.000000
v -0.346410 10.017967 0.200000
v -0.200000 10.017967 0.346410
v -0.000000 10.017967 0.400000
v 0.200000 10.017967 0.346410
v 0.346410 10.017967 0.200000
v 0.400000 10.017967 0.000000
v 0.346410 10.017967 -0.200000
v 0.200000 10.017967 -0.346410
v 0.000000 10.017967 -0.400000
v -0.200000 10.017967 -0.346410
v -0.346410 10.017967 -0.200000
v -0.400000 10.017967 -0.000000
vt 0.818182 0.000000
vt 0.636364 0.000000
vt 0.727273 0.000000
vt 0.909091 0.000000
vt 0.545455 0.000000
vt 1.000000 0.000000
vt 0.454545 0.000000
vt 0.000000 0.000000
vt 0.363636 0.000000
vt 0.090909 0.000000
vt 0.272727 0.000000
vt 0.181818 0.000000
vt 0.636364 0.000000
vt 0.818182 0.000000
vt 0.727273 0.000000
vt 0.909091 0.000000
vt 0.545455 0.000000
vt 1.000000 0.000000
vt 0.454545 0.000000
vt 0.000000 0.000000
vt 0.363636 0.000000
vt 0.090909 0.000000
vt 0.272727 0.000000
vt 0.181818 0.000000
vt 1.000000 1.000000
vt 0.000000 0.916667
vt 0.000000 1.000000
vt 1.000000 0.083333
vt 0.000000 0.000000
vt 0.000000 0.083333
vt 1.000000 0.166667
vt 0.000000 0.166667
vt 1.000000 0.250000
vt 0.000000 0.250000
vt 1.000000 0.333333
vt 0.000000 0.333333
vt 1.000000 0.416667
vt 0.000000 0.416667
vt 1.000000 0.500000
vt 0.000000 0.500000
vt 1.000000 0.583333
vt 0.000000 0.583333
vt 1.000000 0.666667
vt 0.000000 0.666667
vt 1.000000 0.750000
vt 0.000000 0.750000
vt 1.000000 0.833333
vt 0.000000 0.833333
vt 1.000000 0.916667
vt 1.000000 0.000000
vn 0.0000 1.0000 -0.0000
vn 0.0000 -1.0000 0.0000
vn -0.9659 0.0000 0.2588
vn -0.7071 0.0000 0.7071
vn -0.2588 0.0000 0.9659
vn 0.2588 0.0000 0.9659
vn 0.7071 0.0000 0.7071
vn 0.9659 0.0000 0.2588
vn 0.9659 0.0000 -0.2588
vn 0.7071 0.0000 -0.7071
vn 0.2588 0.0000 -0.9659
vn -0.2588 0.0000 -0.9659
vn -0.7071 0.0000 -0.7071
vn -0.9659 0.0000 -0.2588
usemtl None
s off
f 10/1/1 8/2/1 9/3/1
f 11/4/1 8/2/1 10/1/1
f 11/4/1 7/5/1 8/2/1
f 12/6/1 7/5/1 11/4/1
f 12/6/1 6/7/1 7/5/1
f 1/8/1 6/7/1 12/6/1
f 1/8/1 5/9/1 6/7/1
f 2/10/1 5/9/1 1/8/1
f 2/10/1 4/11/1 5/9/1
f 3/12/1 4/11/1 2/10/1
f 20/13/2 22/14/2 21/15/2
f 20/13/2 23/16/2 22/14/2
f 19/17/2 23/16/2 20/13/2
f 19/17/2 24/18/2 23/16/2
f 18/19/2 24/18/2 19/17/2
f 18/19/2 13/20/2 24/18/2
f 17/21/2 13/20/2 18/19/2
f 17/21/2 14/22/2 13/20/2
f 16/23/2 14/22/2 17/21/2
f 16/23/2 15/24/2 14/22/2
f 37/25/3 36/26/3 25/27/3
f 38/28/4 25/29/4 26/30/4
f 39/31/5 26/30/5 27/32/5
f 40/33/6 27/32/6 28/34/6
f 41/35/7 28/34/7 29/36/7
f 42/37/8 29/36/8 30/38/8
f 43/39/9 30/38/9 31/40/9
f 44/41/10 31/40/10 32/42/10
f 45/43/11 32/42/11 33/44/11
f 46/45/12 33/44/12 34/46/12
f 47/47/13 34/46/13 35/48/13
f 48/49/14 35/48/14 36/26/14
f 37/25/3 48/49/3 36/26/3
f 38/28/4 37/50/4 25/29/4
f 39/31/5 38/28/5 26/30/5
f 40/33/6 39/31/6 27/32/6
f 41/35/7 40/33/7 28/34/7
f 42/37/8 41/35/8 29/36/8
f 43/39/9 42/37/9 30/38/9
f 44/41/10 43/39/10 31/40/10
f 45/43/11 44/41/11 32/42/11
f 46/45/12 45/43/12 33/44/12
f 47/47/13 46/45/13 34/46/13
f 48/49/14 47/47/14 35/48/14
