# Blender v3.1.2 OBJ File: ''
# www.blender.org
mtllib Pipe_1.mtl
o 平面
v -0.346410 10.200000 -12.000000
v -0.200000 10.346410 -12.000000
v -0.000000 10.400000 -12.000000
v 0.200000 10.346411 -12.000000
v 0.346410 10.200000 -12.000000
v 0.400000 10.000000 -12.000000
v 0.346410 9.800000 -12.000000
v 0.200000 9.653590 -12.000000
v 0.000000 9.600000 -12.000000
v -0.200000 9.653589 -12.000000
v -0.346410 9.800000 -12.000000
v -0.400000 10.000000 -12.000000
v -0.346410 0.000000 0.200000
v -0.200000 0.000000 0.346410
v -0.000000 0.000000 0.400000
v 0.200000 0.000000 0.346410
v 0.346410 0.000000 0.200000
v 0.400000 0.000000 0.000000
v 0.346410 0.000000 -0.200000
v 0.200000 0.000000 -0.346410
v 0.000000 0.000000 -0.400000
v -0.200000 0.000000 -0.346410
v -0.346410 0.000000 -0.200000
v -0.400000 0.000000 -0.000000
v -0.346410 0.000000 0.200000
v -0.200000 0.000000 0.346410
v -0.000000 0.000000 0.400000
v 0.200000 0.000000 0.346410
v 0.346410 0.000000 0.200000
v 0.400000 0.000000 0.000000
v 0.346410 0.000000 -0.200000
v 0.200000 0.000000 -0.346410
v 0.000000 0.000000 -0.400000
v -0.200000 0.000000 -0.346410
v -0.346410 0.000000 -0.200000
v -0.400000 0.000000 -0.000000
v -0.346410 7.045950 0.194650
v -0.200000 7.079589 0.337143
v -0.000000 7.091901 0.389300
v 0.200000 7.079589 0.337144
v 0.346410 7.045950 0.194650
v 0.400000 7.000000 0.000000
v 0.346410 6.954050 -0.194650
v 0.200000 6.920411 -0.337143
v 0.000000 6.908099 -0.389300
v -0.200000 6.920411 -0.337144
v -0.346410 6.954049 -0.194650
v -0.400000 7.000000 -0.000000
v -0.346410 9.141421 -0.858579
v -0.200000 9.244949 -0.755051
v -0.000000 9.282843 -0.717157
v 0.200000 9.244949 -0.755051
v 0.346410 9.141421 -0.858579
v 0.400000 9.000000 -1.000000
v 0.346410 8.858579 -1.141421
v 0.200000 8.755051 -1.244949
v 0.000000 8.717157 -1.282843
v -0.200000 8.755051 -1.244949
v -0.346410 8.858579 -1.141422
v -0.400000 9.000000 -1.000000
v -0.346410 10.194650 -2.954049
v -0.200000 10.337143 -2.920411
v -0.000000 10.389299 -2.908099
v 0.200000 10.337144 -2.920411
v 0.346410 10.194650 -2.954049
v 0.400000 10.000000 -3.000000
v 0.346410 9.805350 -3.045950
v 0.200000 9.662857 -3.079589
v 0.000000 9.610701 -3.091901
v -0.200000 9.662856 -3.079589
v -0.346410 9.805350 -3.045951
v -0.400000 10.000000 -3.000000
v -0.346410 10.200000 -12.000000
v -0.200000 10.346410 -12.000000
v -0.000000 10.400000 -12.000000
v 0.200000 10.346411 -12.000000
v 0.346410 10.200000 -12.000000
v 0.400000 10.000000 -12.000000
v 0.346410 9.800000 -12.000000
v 0.200000 9.653590 -12.000000
v 0.000000 9.600000 -12.000000
v -0.200000 9.653589 -12.000000
v -0.346410 9.800000 -12.000000
v -0.400000 10.000000 -12.000000
vt 0.818182 0.000000
vt 0.636364 0.000000
vt 0.727273 0.000000
vt 0.909091 0.000000
vt 0.545455 0.000000
vt 1.000000 0.000000
vt 0.454545 0.000000
vt 0.000000 0.000000
vt 0.363636 0.000000
vt 0.090909 0.000000
vt 0.272727 0.000000
vt 0.181818 0.000000
vt 0.636364 0.000000
vt 0.818182 0.000000
vt 0.727273 0.000000
vt 0.909091 0.000000
vt 0.545455 0.000000
vt 1.000000 0.000000
vt 0.454545 0.000000
vt 0.000000 0.000000
vt 0.363636 0.000000
vt 0.090909 0.000000
vt 0.272727 0.000000
vt 0.181818 0.000000
vt 0.000000 1.000000
vt 0.250000 0.916667
vt 0.000000 0.916667
vt 0.000000 0.083333
vt 0.250000 0.000000
vt 0.000000 0.000000
vt 0.000000 0.166667
vt 0.250000 0.083333
vt 0.250000 0.250000
vt 0.000000 0.250000
vt 0.250000 0.333333
vt 0.000000 0.333333
vt 0.250000 0.416667
vt 0.000000 0.416667
vt 0.250000 0.500000
vt 0.000000 0.500000
vt 0.250000 0.583333
vt 0.000000 0.583333
vt 0.250000 0.666667
vt 0.000000 0.666667
vt 0.000000 0.750000
vt 0.000000 0.833333
vt 0.250000 0.750000
vt 0.250000 0.833333
vt 0.250000 1.000000
vt 0.500000 0.916667
vt 0.500000 0.000000
vt 0.250000 0.166667
vt 0.500000 0.083333
vt 0.500000 0.250000
vt 0.500000 0.333333
vt 0.500000 0.416667
vt 0.500000 0.500000
vt 0.500000 0.583333
vt 0.500000 0.666667
vt 0.500000 0.750000
vt 0.500000 0.833333
vt 0.750000 1.000000
vt 0.500000 1.000000
vt 0.750000 0.083333
vt 0.750000 0.166667
vt 0.500000 0.166667
vt 0.750000 0.250000
vt 0.750000 0.333333
vt 0.750000 0.416667
vt 0.750000 0.500000
vt 0.750000 0.583333
vt 0.750000 0.750000
vt 0.750000 0.833333
vt 0.750000 0.916667
vt 1.000000 1.000000
vt 1.000000 0.083333
vt 0.750000 0.000000
vt 1.000000 0.166667
vt 1.000000 0.250000
vt 1.000000 0.333333
vt 1.000000 0.416667
vt 1.000000 0.500000
vt 0.750000 0.666667
vt 1.000000 0.583333
vt 1.000000 0.750000
vt 1.000000 0.833333
vt 1.000000 0.916667
vt 1.000000 0.000000
vt 1.000000 0.666667
vn 0.0000 0.0000 -1.0000
vn 0.0000 -1.0000 0.0000
vn -0.9659 -0.0000 0.2588
vn -0.7071 0.0005 0.7071
vn -0.2588 0.0013 0.9659
vn 0.2588 0.0013 0.9659
vn 0.7071 0.0005 0.7071
vn 0.9659 -0.0000 0.2588
vn 0.9659 0.0002 -0.2588
vn 0.7071 0.0009 -0.7071
vn 0.2588 0.0015 -0.9659
vn -0.2588 0.0015 -0.9659
vn -0.7071 0.0009 -0.7071
vn -0.9659 0.0002 -0.2588
vn -0.9641 0.1187 0.2374
vn -0.6973 0.3219 0.6405
vn -0.2521 0.4358 0.8640
vn 0.2521 0.4358 0.8640
vn 0.6973 0.3219 0.6405
vn 0.9641 0.1187 0.2374
vn 0.9642 -0.1181 -0.2376
vn 0.6978 -0.3177 -0.6420
vn 0.2526 -0.4285 -0.8675
vn -0.2526 -0.4285 -0.8675
vn -0.6978 -0.3177 -0.6420
vn -0.9642 -0.1181 -0.2376
vn -0.9624 0.2427 0.1220
vn -0.6887 0.6474 0.3265
vn -0.2467 0.8650 0.4369
vn 0.2467 0.8650 0.4369
vn 0.6887 0.6474 0.3265
vn 0.9624 0.2427 0.1220
vn 0.9624 -0.2431 -0.1216
vn 0.6880 -0.6499 -0.3231
vn 0.2460 -0.8687 -0.4299
vn -0.2460 -0.8687 -0.4299
vn -0.6880 -0.6499 -0.3231
vn -0.9624 -0.2431 -0.1216
vn -0.9641 0.2654 0.0002
vn -0.6975 0.7165 0.0007
vn -0.2524 0.9676 0.0011
vn 0.2524 0.9676 0.0011
vn 0.6975 0.7165 0.0007
vn 0.9641 0.2654 0.0002
vn 0.9641 -0.2654 0.0000
vn 0.6974 -0.7167 0.0004
vn 0.2523 -0.9677 0.0010
vn -0.2523 -0.9677 0.0010
vn -0.6974 -0.7167 0.0004
vn -0.9641 -0.2654 0.0000
vn -0.9641 0.0002 0.2654
vn -0.6976 0.0009 0.7165
vn -0.2524 0.0015 0.9676
vn 0.2524 0.0015 0.9676
vn 0.6976 0.0009 0.7165
vn 0.9641 0.0002 0.2654
vn 0.9641 -0.0000 -0.2654
vn 0.6974 0.0006 -0.7167
vn 0.2523 0.0013 -0.9677
vn -0.2523 0.0013 -0.9677
vn -0.6974 0.0006 -0.7167
vn -0.9641 -0.0000 -0.2654
vn -0.9624 0.1220 0.2427
vn -0.6887 0.3265 0.6474
vn -0.2467 0.4369 0.8650
vn 0.2467 0.4369 0.8650
vn 0.6887 0.3265 0.6474
vn 0.9624 0.1220 0.2427
vn 0.9624 -0.1216 -0.2431
vn 0.6880 -0.3231 -0.6499
vn 0.2460 -0.4299 -0.8687
vn -0.2460 -0.4299 -0.8687
vn -0.6880 -0.3231 -0.6499
vn -0.9624 -0.1216 -0.2431
vn -0.9641 0.2374 0.1187
vn -0.6973 0.6405 0.3219
vn -0.2521 0.8640 0.4358
vn 0.2521 0.8640 0.4358
vn 0.6973 0.6405 0.3219
vn 0.9641 0.2374 0.1187
vn 0.9642 -0.2376 -0.1181
vn 0.6978 -0.6420 -0.3177
vn 0.2526 -0.8675 -0.4285
vn -0.2526 -0.8675 -0.4285
vn -0.6978 -0.6420 -0.3177
vn -0.9642 -0.2376 -0.1181
vn -0.9659 0.2588 0.0000
vn -0.7071 0.7071 0.0004
vn -0.2588 0.9659 0.0010
vn 0.2588 0.9659 0.0010
vn 0.7071 0.7071 0.0004
vn 0.9659 0.2588 -0.0000
vn 0.9659 -0.2588 0.0002
vn 0.7071 -0.7071 0.0007
vn 0.2588 -0.9659 0.0012
vn -0.2588 -0.9659 0.0012
vn -0.7071 -0.7071 0.0007
vn -0.9659 -0.2588 0.0002
usemtl None
s off
f 10/1/1 8/2/1 9/3/1
f 11/4/1 8/2/1 10/1/1
f 11/4/1 7/5/1 8/2/1
f 12/6/1 7/5/1 11/4/1
f 12/6/1 6/7/1 7/5/1
f 1/8/1 6/7/1 12/6/1
f 1/8/1 5/9/1 6/7/1
f 2/10/1 5/9/1 1/8/1
f 2/10/1 4/11/1 5/9/1
f 3/12/1 4/11/1 2/10/1
f 20/13/2 22/14/2 21/15/2
f 20/13/2 23/16/2 22/14/2
f 19/17/2 23/16/2 20/13/2
f 19/17/2 24/18/2 23/16/2
f 18/19/2 24/18/2 19/17/2
f 18/19/2 13/20/2 24/18/2
f 17/21/2 13/20/2 18/19/2
f 17/21/2 14/22/2 13/20/2
f 16/23/2 14/22/2 17/21/2
f 16/23/2 15/24/2 14/22/2
f 25/25/3 48/26/3 36/27/3
f 26/28/4 37/29/4 25/30/4
f 27/31/5 38/32/5 26/28/5
f 40/33/6 27/31/6 28/34/6
f 41/35/7 28/34/7 29/36/7
f 42/37/8 29/36/8 30/38/8
f 43/39/9 30/38/9 31/40/9
f 44/41/10 31/40/10 32/42/10
f 45/43/11 32/42/11 33/44/11
f 34/45/12 45/43/12 33/44/12
f 35/46/13 46/47/13 34/45/13
f 36/27/14 47/48/14 35/46/14
f 37/49/15 60/50/15 48/26/15
f 38/32/16 49/51/16 37/29/16
f 39/52/17 50/53/17 38/32/17
f 52/54/18 39/52/18 40/33/18
f 53/55/19 40/33/19 41/35/19
f 54/56/20 41/35/20 42/37/20
f 55/57/21 42/37/21 43/39/21
f 56/58/22 43/39/22 44/41/22
f 57/59/23 44/41/23 45/43/23
f 46/47/24 57/59/24 45/43/24
f 47/48/25 58/60/25 46/47/25
f 48/26/26 59/61/26 47/48/26
f 61/62/27 60/50/27 49/63/27
f 62/64/28 49/51/28 50/53/28
f 63/65/29 50/53/29 51/66/29
f 52/54/30 63/65/30 51/66/30
f 53/55/31 64/67/31 52/54/31
f 54/56/32 65/68/32 53/55/32
f 55/57/33 66/69/33 54/56/33
f 56/58/34 67/70/34 55/57/34
f 57/59/35 68/71/35 56/58/35
f 70/72/36 57/59/36 58/60/36
f 71/73/37 58/60/37 59/61/37
f 72/74/38 59/61/38 60/50/38
f 73/75/39 72/74/39 61/62/39
f 74/76/40 61/77/40 62/64/40
f 75/78/41 62/64/41 63/65/41
f 64/67/42 75/78/42 63/65/42
f 65/68/43 76/79/43 64/67/43
f 66/69/44 77/80/44 65/68/44
f 67/70/45 78/81/45 66/69/45
f 68/71/46 79/82/46 67/70/46
f 69/83/47 80/84/47 68/71/47
f 82/85/48 69/83/48 70/72/48
f 83/86/49 70/72/49 71/73/49
f 84/87/50 71/73/50 72/74/50
f 25/25/51 37/49/51 48/26/51
f 26/28/52 38/32/52 37/29/52
f 27/31/53 39/52/53 38/32/53
f 40/33/54 39/52/54 27/31/54
f 41/35/55 40/33/55 28/34/55
f 42/37/56 41/35/56 29/36/56
f 43/39/57 42/37/57 30/38/57
f 44/41/58 43/39/58 31/40/58
f 45/43/59 44/41/59 32/42/59
f 34/45/60 46/47/60 45/43/60
f 35/46/61 47/48/61 46/47/61
f 36/27/62 48/26/62 47/48/62
f 37/49/63 49/63/63 60/50/63
f 38/32/64 50/53/64 49/51/64
f 39/52/65 51/66/65 50/53/65
f 52/54/66 51/66/66 39/52/66
f 53/55/67 52/54/67 40/33/67
f 54/56/68 53/55/68 41/35/68
f 55/57/69 54/56/69 42/37/69
f 56/58/70 55/57/70 43/39/70
f 57/59/71 56/58/71 44/41/71
f 46/47/72 58/60/72 57/59/72
f 47/48/73 59/61/73 58/60/73
f 48/26/74 60/50/74 59/61/74
f 61/62/75 72/74/75 60/50/75
f 62/64/76 61/77/76 49/51/76
f 63/65/77 62/64/77 50/53/77
f 52/54/78 64/67/78 63/65/78
f 53/55/79 65/68/79 64/67/79
f 54/56/80 66/69/80 65/68/80
f 55/57/81 67/70/81 66/69/81
f 56/58/82 68/71/82 67/70/82
f 57/59/83 69/83/83 68/71/83
f 70/72/84 69/83/84 57/59/84
f 71/73/85 70/72/85 58/60/85
f 72/74/86 71/73/86 59/61/86
f 73/75/87 84/87/87 72/74/87
f 74/76/88 73/88/88 61/77/88
f 75/78/89 74/76/89 62/64/89
f 64/67/90 76/79/90 75/78/90
f 65/68/91 77/80/91 76/79/91
f 66/69/92 78/81/92 77/80/92
f 67/70/93 79/82/93 78/81/93
f 68/71/94 80/84/94 79/82/94
f 69/83/95 81/89/95 80/84/95
f 82/85/96 81/89/96 69/83/96
f 83/86/97 82/85/97 70/72/97
f 84/87/98 83/86/98 71/73/98
