# Blender v3.1.2 OBJ File: 'SteamGear.blend'
# www.blender.org
mtllib SteamGear.mtl
o 歯車_円柱.006
v -0.194081 0.000000 -1.000000
v 0.194081 -0.000000 -1.000000
v -0.194081 -0.195090 -0.980785
v 0.194081 -0.195090 -0.980785
v -0.194081 -0.382683 -0.923880
v 0.194081 -0.382683 -0.923880
v -0.194081 -0.555570 -0.831470
v 0.194081 -0.555570 -0.831470
v -0.194081 -0.707107 -0.707107
v 0.194081 -0.707107 -0.707107
v -0.194081 -0.831470 -0.555570
v 0.194081 -0.831470 -0.555570
v -0.194081 -0.923880 -0.382683
v 0.194081 -0.923880 -0.382683
v -0.194081 -0.980785 -0.195090
v 0.194081 -0.980785 -0.195090
v -0.194081 -1.000000 0.000000
v 0.194081 -1.000000 0.000000
v -0.194081 -0.980785 0.195090
v 0.194081 -0.980785 0.195090
v -0.194081 -0.923880 0.382683
v 0.194081 -0.923880 0.382683
v -0.194081 -0.831470 0.555570
v 0.194081 -0.831470 0.555570
v -0.194081 -0.707107 0.707107
v 0.194081 -0.707107 0.707107
v -0.194081 -0.555570 0.831470
v 0.194081 -0.555570 0.831470
v -0.194081 -0.382683 0.923880
v 0.194081 -0.382683 0.923880
v -0.194081 -0.195090 0.980785
v 0.194081 -0.195090 0.980785
v -0.194081 0.000000 1.000000
v 0.194081 0.000000 1.000000
v -0.194081 0.195090 0.980785
v 0.194081 0.195090 0.980785
v -0.194081 0.382683 0.923880
v 0.194081 0.382683 0.923880
v -0.194081 0.555570 0.831470
v 0.194081 0.555570 0.831470
v -0.194081 0.707107 0.707107
v 0.194081 0.707107 0.707107
v -0.194081 0.831469 0.555570
v 0.194081 0.831469 0.555570
v -0.194081 0.923880 0.382684
v 0.194081 0.923880 0.382684
v -0.194081 0.980785 0.195090
v 0.194081 0.980785 0.195090
v -0.194081 1.000000 -0.000000
v 0.194081 1.000000 -0.000000
v -0.194081 0.980785 -0.195090
v 0.194081 0.980785 -0.195090
v -0.194081 0.923879 -0.382684
v 0.194081 0.923879 -0.382684
v -0.194081 0.831470 -0.555570
v 0.194081 0.831470 -0.555570
v -0.194081 0.707107 -0.707107
v 0.194081 0.707107 -0.707107
v -0.194081 0.555570 -0.831470
v 0.194081 0.555570 -0.831470
v -0.194081 0.382683 -0.923880
v 0.194081 0.382683 -0.923880
v -0.194081 0.195090 -0.980785
v 0.194081 0.195090 -0.980785
v 0.194081 0.423340 -0.633574
v 0.194081 0.148657 -0.747351
v 0.194081 0.291602 -0.703989
v 0.194081 0.747351 0.148657
v 0.194081 0.633574 0.423340
v 0.194081 0.703989 0.291602
v 0.194081 -0.148657 0.747351
v 0.194081 -0.423340 0.633574
v 0.194081 -0.291602 0.703989
v 0.194081 -0.633574 -0.423340
v 0.194081 -0.747351 -0.148657
v 0.194081 -0.703989 -0.291602
v 0.194081 0.761993 -0.000000
v 0.194081 0.747351 -0.148657
v 0.194081 0.633574 -0.423340
v 0.194081 0.703989 -0.291602
v 0.194081 0.538810 -0.538810
v 0.194081 0.423340 0.633574
v 0.194081 -0.291602 -0.703989
v 0.194081 -0.148657 -0.747351
v 0.194081 -0.000000 -0.761993
v 0.194081 0.538810 0.538810
v 0.194081 0.291602 0.703989
v 0.194081 0.148657 0.747351
v 0.194081 -0.423340 -0.633574
v 0.194081 0.000000 0.761993
v 0.194081 -0.633574 0.423340
v 0.194081 -0.538810 0.538810
v 0.194081 -0.761993 0.000000
v 0.194081 -0.703989 0.291602
v 0.194081 -0.747351 0.148657
v 0.194081 -0.538810 -0.538810
v -0.194081 -0.291602 -0.703989
v -0.194081 -0.538810 -0.538810
v -0.194081 -0.423340 -0.633574
v -0.194081 -0.538810 0.538810
v -0.194081 -0.703989 0.291602
v -0.194081 -0.633574 0.423340
v -0.194081 0.538810 0.538810
v -0.194081 0.291602 0.703989
v -0.194081 0.423340 0.633574
v -0.194081 0.703989 -0.291602
v -0.194081 0.538810 -0.538810
v -0.194081 0.633574 -0.423340
v -0.194081 0.000000 -0.761993
v -0.194081 -0.291602 0.703989
v -0.194081 -0.423340 0.633574
v -0.194081 -0.148657 -0.747351
v -0.194081 -0.703989 -0.291602
v -0.194081 -0.633574 -0.423340
v -0.194081 -0.761993 0.000000
v -0.194081 -0.747351 0.148657
v -0.194081 -0.747351 -0.148657
v -0.194081 0.761993 -0.000000
v -0.194081 0.747351 0.148657
v -0.194081 0.747351 -0.148657
v -0.194081 0.703989 0.291602
v -0.194081 0.633574 0.423340
v -0.194081 0.291602 -0.703989
v -0.194081 0.148657 -0.747351
v -0.194081 -0.148657 0.747351
v -0.194081 0.000000 0.761993
v -0.194081 0.148657 0.747351
v -0.194081 0.423340 -0.633574
v -0.194081 -0.010628 -1.107909
v 0.194081 -0.010628 -1.107909
v -0.194081 -0.205718 -1.088694
v 0.194081 -0.205718 -1.088694
v -0.194081 -0.433798 -1.019507
v 0.194081 -0.433798 -1.019507
v -0.194081 -0.606684 -0.927097
v 0.194081 -0.606684 -0.927097
v -0.194081 -0.790925 -0.775895
v 0.194081 -0.790925 -0.775895
v -0.194081 -0.915288 -0.624358
v 0.194081 -0.915288 -0.624358
v -0.194081 -1.027642 -0.414159
v 0.194081 -1.027642 -0.414159
v -0.194081 -1.084547 -0.226566
v 0.194081 -1.084547 -0.226566
v -0.194081 -1.107909 0.010628
v 0.194081 -1.107909 0.010628
v -0.194081 -1.088694 0.205718
v 0.194081 -1.088694 0.205718
v -0.194081 -1.019507 0.433797
v 0.194081 -1.019507 0.433797
v -0.194081 -0.927097 0.606684
v 0.194081 -0.927097 0.606684
v -0.194081 -0.775895 0.790925
v 0.194081 -0.775895 0.790925
v -0.194081 -0.624358 0.915288
v 0.194081 -0.624358 0.915288
v -0.194081 -0.414159 1.027642
v 0.194081 -0.414159 1.027642
v -0.194081 -0.226566 1.084547
v 0.194081 -0.226566 1.084547
v -0.194081 0.010628 1.107909
v 0.194081 0.010628 1.107909
v -0.194081 0.205718 1.088694
v 0.194081 0.205718 1.088694
v -0.194081 0.433797 1.019507
v 0.194081 0.433797 1.019507
v -0.194081 0.606684 0.927097
v 0.194081 0.606684 0.927097
v -0.194081 0.790925 0.775895
v 0.194081 0.790925 0.775895
v -0.194081 0.915288 0.624358
v 0.194081 0.915288 0.624358
v -0.194081 1.027642 0.414159
v 0.194081 1.027642 0.414159
v -0.194081 1.084547 0.226566
v 0.194081 1.084547 0.226566
v -0.194081 1.107909 -0.010628
v 0.194081 1.107909 -0.010628
v -0.194081 1.088694 -0.205719
v 0.194081 1.088694 -0.205719
v -0.194081 1.019507 -0.433798
v 0.194081 1.019507 -0.433798
v -0.194081 0.927097 -0.606684
v 0.194081 0.927097 -0.606684
v -0.194081 0.775895 -0.790925
v 0.194081 0.775895 -0.790925
v -0.194081 0.624358 -0.915288
v 0.194081 0.624358 -0.915288
v -0.194081 0.414159 -1.027642
v 0.194081 0.414159 -1.027642
v -0.194081 0.226566 -1.084547
v 0.194081 0.226566 -1.084547
v -0.194135 0.000000 -0.168604
v 0.194135 -0.000000 -0.168604
v -0.194135 -0.032893 -0.165364
v 0.194135 -0.032893 -0.165364
v -0.194135 -0.064522 -0.155770
v 0.194135 -0.064522 -0.155770
v -0.194135 -0.093671 -0.140189
v 0.194135 -0.093671 -0.140189
v -0.194135 -0.119221 -0.119221
v 0.194135 -0.119221 -0.119221
v -0.194135 -0.140189 -0.093671
v 0.194135 -0.140189 -0.093671
v -0.194135 -0.155770 -0.064522
v 0.194135 -0.155770 -0.064522
v -0.194135 -0.165364 -0.032893
v 0.194135 -0.165364 -0.032893
v -0.194135 -0.168604 0.000000
v 0.194135 -0.168604 0.000000
v -0.194135 -0.165364 0.032893
v 0.194135 -0.165364 0.032893
v -0.194135 -0.155770 0.064522
v 0.194135 -0.155770 0.064522
v -0.194135 -0.140189 0.093671
v 0.194135 -0.140189 0.093671
v -0.194135 -0.119221 0.119221
v 0.194135 -0.119221 0.119221
v -0.194135 -0.093671 0.140189
v 0.194135 -0.093671 0.140189
v -0.194135 -0.064522 0.155770
v 0.194135 -0.064522 0.155770
v -0.194135 -0.032893 0.165364
v 0.194135 -0.032893 0.165364
v -0.194135 0.000000 0.168604
v 0.194135 0.000000 0.168604
v -0.194135 0.032893 0.165364
v 0.194135 0.032893 0.165364
v -0.194135 0.064522 0.155770
v 0.194135 0.064522 0.155770
v -0.194135 0.093671 0.140189
v 0.194135 0.093671 0.140189
v -0.194135 0.119221 0.119221
v 0.194135 0.119221 0.119221
v -0.194135 0.140189 0.093671
v 0.194135 0.140189 0.093671
v -0.194135 0.155770 0.064522
v 0.194135 0.155770 0.064522
v -0.194135 0.165364 0.032893
v 0.194135 0.165364 0.032893
v -0.194135 0.168604 -0.000000
v 0.194135 0.168604 -0.000000
v -0.194135 0.165364 -0.032893
v 0.194135 0.165364 -0.032893
v -0.194135 0.155770 -0.064522
v 0.194135 0.155770 -0.064522
v -0.194135 0.140189 -0.093671
v 0.194135 0.140189 -0.093671
v -0.194135 0.119221 -0.119221
v 0.194135 0.119221 -0.119221
v -0.194135 0.093671 -0.140189
v 0.194135 0.093671 -0.140189
v -0.194135 0.064522 -0.155770
v 0.194135 0.064522 -0.155770
v -0.194135 0.032893 -0.165364
v 0.194135 0.032893 -0.165364
v 0.194135 0.071377 -0.106823
v 0.194135 0.025064 -0.126006
v 0.194135 0.049165 -0.118695
v 0.194135 0.126006 0.025064
v 0.194135 0.106823 0.071377
v 0.194135 0.118695 0.049165
v 0.194135 -0.025064 0.126006
v 0.194135 -0.071377 0.106823
v 0.194135 -0.049165 0.118695
v 0.194135 -0.106823 -0.071377
v 0.194135 -0.126006 -0.025064
v 0.194135 -0.118695 -0.049165
v 0.194135 0.128475 -0.000000
v 0.194135 0.126006 -0.025064
v 0.194135 0.106823 -0.071377
v 0.194135 0.118695 -0.049165
v 0.194135 0.090845 -0.090845
v 0.194135 0.071377 0.106823
v 0.194135 -0.049165 -0.118695
v 0.194135 -0.025064 -0.126006
v 0.194135 -0.000000 -0.128475
v 0.194135 0.090845 0.090845
v 0.194135 0.049165 0.118695
v 0.194135 0.025064 0.126006
v 0.194135 -0.071377 -0.106823
v 0.194135 0.000000 0.128475
v 0.194135 -0.106823 0.071377
v 0.194135 -0.090845 0.090845
v 0.194135 -0.128475 0.000000
v 0.194135 -0.118695 0.049165
v 0.194135 -0.126006 0.025064
v 0.194135 -0.090845 -0.090845
v -0.194135 -0.049165 -0.118695
v -0.194135 -0.090845 -0.090845
v -0.194135 -0.071377 -0.106823
v -0.194135 -0.090845 0.090845
v -0.194135 -0.118695 0.049165
v -0.194135 -0.106823 0.071377
v -0.194135 0.090845 0.090845
v -0.194135 0.049165 0.118695
v -0.194135 0.071377 0.106823
v -0.194135 0.118695 -0.049165
v -0.194135 0.090845 -0.090845
v -0.194135 0.106823 -0.071377
v -0.194135 0.000000 -0.128475
v -0.194135 -0.049165 0.118695
v -0.194135 -0.071377 0.106823
v -0.194135 -0.025064 -0.126006
v -0.194135 -0.118695 -0.049165
v -0.194135 -0.106823 -0.071377
v -0.194135 -0.128475 0.000000
v -0.194135 -0.126006 0.025064
v -0.194135 -0.126006 -0.025064
v -0.194135 0.128475 -0.000000
v -0.194135 0.126006 0.025064
v -0.194135 0.126006 -0.025064
v -0.194135 0.118695 0.049165
v -0.194135 0.106823 0.071377
v -0.194135 0.049165 -0.118695
v -0.194135 0.025064 -0.126006
v -0.194135 -0.025064 0.126006
v -0.194135 0.000000 0.128475
v -0.194135 0.025064 0.126006
v -0.194135 0.071377 -0.106823
v -0.183094 0.137342 0.058353
v -0.183094 0.855154 0.058353
v -0.183094 0.137342 -0.056803
v -0.183094 0.855154 -0.056803
v 0.183094 0.137342 0.058353
v 0.183094 0.855154 0.058353
v 0.183094 0.137342 -0.056803
v 0.183094 0.855154 -0.056803
v -0.183094 -0.643907 -0.556748
v -0.183094 -0.136338 -0.049178
v -0.183094 -0.562480 -0.638175
v -0.183094 -0.054910 -0.130606
v 0.183094 -0.643907 -0.556748
v 0.183094 -0.136338 -0.049178
v 0.183094 -0.562480 -0.638175
v 0.183094 -0.054910 -0.130606
v -0.183094 -0.562480 0.646247
v -0.183094 -0.054910 0.138678
v -0.183094 -0.643907 0.564819
v -0.183094 -0.136338 0.057250
v 0.183094 -0.562480 0.646247
v 0.183094 -0.054910 0.138678
v 0.183094 -0.643907 0.564819
v 0.183094 -0.136338 0.057250
v -0.183094 0.419034 0.754464
v -0.183094 0.115673 0.103905
v -0.183094 0.314667 0.803131
v -0.183094 0.011307 0.152573
v 0.183094 0.419034 0.754464
v 0.183094 0.115673 0.103905
v 0.183094 0.314667 0.803131
v 0.183094 0.011307 0.152573
v -0.183094 0.314667 -0.807175
v -0.183094 0.011307 -0.156616
v -0.183094 0.419034 -0.758507
v -0.183094 0.115673 -0.107949
v 0.183094 0.314667 -0.807175
v 0.183094 0.011307 -0.156616
v 0.183094 0.419034 -0.758507
v 0.183094 0.115673 -0.107949
vt 0.625000 1.000000
vt 0.625000 0.500000
vt 0.625000 0.500000
vt 0.968750 1.000000
vt 0.937500 0.500000
vt 0.968750 0.500000
vt 0.218750 0.500000
vt 0.218750 1.000000
vt 0.218750 1.000000
vt 0.906250 1.000000
vt 0.875000 0.500000
vt 0.906250 0.500000
vt 0.250000 0.010000
vt 0.203178 0.014612
vt 0.250000 0.010000
vt 0.843750 1.000000
vt 0.812500 0.500000
vt 0.843750 0.500000
vt 0.510000 0.250000
vt 0.514612 0.296822
vt 0.514612 0.296822
vt 0.781250 1.000000
vt 0.750000 0.500000
vt 0.781250 0.500000
vt 0.656250 0.500000
vt 0.656250 1.000000
vt 0.656250 1.000000
vt 0.718750 1.000000
vt 0.687500 0.500000
vt 0.718750 0.500000
vt 0.250000 1.000000
vt 0.250000 0.500000
vt 0.250000 0.500000
vt 0.296822 0.014612
vt 0.341844 0.028269
vt 0.341844 0.028269
vt 0.593750 1.000000
vt 0.562500 0.500000
vt 0.593750 0.500000
vt 0.971731 0.158156
vt 0.949553 0.116663
vt 0.949553 0.116663
vt 0.531250 1.000000
vt 0.500000 0.500000
vt 0.531250 0.500000
vt 0.687500 1.000000
vt 0.687500 0.500000
vt 0.468750 1.000000
vt 0.437500 0.500000
vt 0.468750 0.500000
vt 0.281250 0.500000
vt 0.281250 1.000000
vt 0.281250 1.000000
vt 0.406250 1.000000
vt 0.375000 0.500000
vt 0.406250 0.500000
vt 0.383337 0.050447
vt 0.419706 0.080294
vt 0.419706 0.080294
vt 0.343750 1.000000
vt 0.312500 0.500000
vt 0.343750 0.500000
vt 0.528269 0.158156
vt 0.514612 0.203178
vt 0.514612 0.203178
vt 0.718750 1.000000
vt 0.187500 0.500000
vt 0.312500 1.000000
vt 0.312500 0.500000
vt 0.156250 1.000000
vt 0.125000 0.500000
vt 0.156250 0.500000
vt 0.449553 0.116663
vt 0.471731 0.158156
vt 0.471731 0.158156
vt 0.093750 1.000000
vt 0.062500 0.500000
vt 0.093750 0.500000
vt 0.028269 0.158156
vt 0.081043 0.180016
vt 0.070636 0.214322
vt 0.471731 0.341844
vt 0.418957 0.319984
vt 0.429364 0.285678
vt 0.990000 0.250000
vt 0.985388 0.203178
vt 0.985388 0.203178
vt 0.031250 1.000000
vt 0.000000 0.500000
vt 0.031250 0.500000
vt 0.570636 0.214322
vt 0.581043 0.180016
vt 0.985388 0.296822
vt 0.929364 0.285678
vt 0.918958 0.319985
vt 0.968750 0.937296
vt 1.000000 0.562704
vt 0.968750 0.562704
vt 0.937500 0.937296
vt 0.937500 0.562704
vt 0.906250 0.937296
vt 0.906250 0.562704
vt 0.875000 0.937296
vt 0.875000 0.562704
vt 0.843750 0.562704
vt 0.843750 0.937296
vt 0.843750 0.937296
vt 0.812500 0.562704
vt 0.812500 0.937296
vt 0.781250 0.562704
vt 0.781250 0.937296
vt 0.750000 0.562704
vt 0.750000 0.937296
vt 0.718750 0.562704
vt 0.718750 0.937296
vt 0.687500 0.562704
vt 0.687500 0.937296
vt 0.656250 0.562704
vt 0.656250 0.937296
vt 0.625000 0.562704
vt 0.625000 0.937296
vt 0.593750 0.562704
vt 0.593750 0.937296
vt 0.562500 0.562704
vt 0.562500 0.937296
vt 0.531250 0.562704
vt 0.531250 0.937296
vt 0.500000 0.562704
vt 0.500000 0.937296
vt 0.468750 0.562704
vt 0.468750 0.937296
vt 0.468750 0.937296
vt 0.437500 0.562704
vt 0.437500 0.937296
vt 0.406250 0.562704
vt 0.406250 0.937296
vt 0.375000 0.562704
vt 0.375000 0.937296
vt 0.343750 0.937296
vt 0.343750 0.562704
vt 0.312500 0.937296
vt 0.343750 0.562704
vt 0.312500 0.562704
vt 0.281250 0.937296
vt 0.281250 0.562704
vt 0.250000 0.937296
vt 0.250000 0.562704
vt 0.218750 0.937296
vt 0.218750 0.562704
vt 0.187500 0.937296
vt 0.187500 0.562704
vt 0.156250 0.937296
vt 0.156250 0.562704
vt 0.125000 0.937296
vt 0.125000 0.562704
vt 0.093750 0.937296
vt 0.093750 0.562704
vt 0.062500 0.937296
vt 0.062500 0.562704
vt 0.031250 0.937296
vt 0.031250 0.562704
vt 0.000000 0.937296
vt 0.000000 0.562704
vt 1.000000 1.000000
vt 0.968750 0.500000
vt 1.000000 0.500000
vt 0.937500 1.000000
vt 0.906250 0.500000
vt 0.937500 0.500000
vt 0.875000 1.000000
vt 0.843750 0.500000
vt 0.875000 0.500000
vt 0.812500 1.000000
vt 0.781250 0.500000
vt 0.812500 0.500000
vt 0.750000 1.000000
vt 0.718750 0.500000
vt 0.750000 0.500000
vt 0.687500 1.000000
vt 0.656250 0.500000
vt 0.625000 1.000000
vt 0.593750 0.500000
vt 0.562500 1.000000
vt 0.531250 0.500000
vt 0.562500 0.500000
vt 0.500000 1.000000
vt 0.468750 0.500000
vt 0.500000 0.500000
vt 0.437500 1.000000
vt 0.406250 0.500000
vt 0.437500 0.500000
vt 0.375000 1.000000
vt 0.343750 0.500000
vt 0.375000 0.500000
vt 0.312500 1.000000
vt 0.281250 0.500000
vt 0.250000 1.000000
vt 0.218750 0.500000
vt 0.187500 1.000000
vt 0.156250 0.500000
vt 0.187500 0.500000
vt 0.125000 1.000000
vt 0.093750 0.500000
vt 0.125000 0.500000
vt 0.062500 1.000000
vt 0.031250 0.500000
vt 0.062500 0.500000
vt 0.919706 0.080294
vt 0.883337 0.050447
vt 0.883337 0.050447
vt 0.158156 0.028269
vt 0.116663 0.050447
vt 0.158156 0.028269
vt 0.187500 1.000000
vt 0.593750 1.000000
vt 0.000000 1.000000
vt 0.000000 0.500000
vt 0.550447 0.383337
vt 0.528269 0.341844
vt 0.550447 0.383337
vt 0.050447 0.116663
vt 0.080294 0.080294
vt 0.080294 0.080294
vt 0.750000 0.490000
vt 0.796822 0.485388
vt 0.796822 0.485388
vt 0.156250 1.000000
vt 0.562500 1.000000
vt 0.968750 1.000000
vt 0.158156 0.471731
vt 0.203178 0.485388
vt 0.158156 0.471731
vt 0.796822 0.014612
vt 0.841844 0.028269
vt 0.796822 0.014612
vt 0.014612 0.203178
vt 0.028269 0.158156
vt 0.125000 1.000000
vt 0.531250 1.000000
vt 0.937500 1.000000
vt 0.580294 0.419706
vt 0.616663 0.449553
vt 0.616663 0.449553
vt 0.841844 0.471731
vt 0.883337 0.449553
vt 0.883337 0.449553
vt 0.093750 1.000000
vt 0.500000 1.000000
vt 0.014612 0.296822
vt 0.010000 0.250000
vt 0.010000 0.250000
vt 0.906250 1.000000
vt 0.296822 0.485388
vt 0.250000 0.490000
vt 0.250000 0.490000
vt 0.750000 0.010000
vt 0.703178 0.014612
vt 0.703178 0.014612
vt 0.062500 1.000000
vt 0.468750 1.000000
vt 0.050447 0.383337
vt 0.028269 0.341844
vt 0.028269 0.341844
vt 0.875000 1.000000
vt 0.383337 0.449553
vt 0.341844 0.471731
vt 0.341844 0.471731
vt 0.658156 0.471731
vt 0.703178 0.485388
vt 0.703178 0.485388
vt 0.919706 0.419706
vt 0.949553 0.383337
vt 0.949553 0.383337
vt 0.031250 1.000000
vt 0.437500 1.000000
vt 0.843750 1.000000
vt 0.449553 0.383337
vt 0.419706 0.419706
vt 0.419706 0.419706
vt 0.658156 0.028269
vt 0.616663 0.050447
vt 0.616663 0.050447
vt 0.116663 0.449553
vt 0.080294 0.419706
vt 0.080294 0.419706
vt 0.406250 1.000000
vt 0.812500 1.000000
vt 0.485388 0.296822
vt 0.471731 0.341844
vt 0.971731 0.341844
vt 0.985388 0.296822
vt 0.375000 1.000000
vt 0.781250 1.000000
vt 0.580294 0.080294
vt 0.550447 0.116663
vt 0.550447 0.116663
vt 0.485388 0.203178
vt 0.490000 0.250000
vt 0.490000 0.250000
vt 0.343750 1.000000
vt 0.750000 1.000000
vt 1.000000 1.000000
vt 0.968750 0.500000
vt 1.000000 0.500000
vt 0.968750 1.000000
vt 0.937500 0.500000
vt 0.937500 1.000000
vt 0.906250 0.500000
vt 0.906250 1.000000
vt 0.875000 0.500000
vt 0.875000 1.000000
vt 0.843750 0.500000
vt 0.843750 1.000000
vt 0.812500 0.500000
vt 0.812500 1.000000
vt 0.781250 0.500000
vt 0.781250 1.000000
vt 0.750000 0.500000
vt 0.750000 1.000000
vt 0.718750 0.500000
vt 0.718750 1.000000
vt 0.687500 0.500000
vt 0.687500 1.000000
vt 0.656250 0.500000
vt 0.656250 1.000000
vt 0.625000 0.500000
vt 0.625000 1.000000
vt 0.593750 0.500000
vt 0.593750 1.000000
vt 0.562500 0.500000
vt 0.562500 1.000000
vt 0.531250 0.500000
vt 0.531250 1.000000
vt 0.500000 0.500000
vt 0.500000 1.000000
vt 0.468750 0.500000
vt 0.468750 1.000000
vt 0.437500 0.500000
vt 0.437500 1.000000
vt 0.406250 0.500000
vt 0.406250 1.000000
vt 0.375000 0.500000
vt 0.375000 1.000000
vt 0.343750 0.500000
vt 0.343750 1.000000
vt 0.312500 0.500000
vt 0.312500 1.000000
vt 0.281250 0.500000
vt 0.281250 1.000000
vt 0.250000 0.500000
vt 0.250000 1.000000
vt 0.218750 0.500000
vt 0.218750 1.000000
vt 0.187500 0.500000
vt 0.187500 1.000000
vt 0.156250 0.500000
vt 0.156250 1.000000
vt 0.125000 0.500000
vt 0.125000 1.000000
vt 0.093750 0.500000
vt 0.093750 1.000000
vt 0.062500 0.500000
vt 0.028269 0.158156
vt 0.081043 0.180016
vt 0.070636 0.214322
vt 0.471731 0.341844
vt 0.418957 0.319984
vt 0.429364 0.285678
vt 0.062500 1.000000
vt 0.031250 0.500000
vt 0.031250 1.000000
vt 0.000000 0.500000
vt 0.514612 0.203178
vt 0.570636 0.214322
vt 0.581043 0.180016
vt 0.985388 0.296822
vt 0.929364 0.285678
vt 0.918958 0.319985
vt 0.968750 0.937296
vt 1.000000 0.562704
vt 0.968750 0.562704
vt 0.937500 0.937296
vt 0.937500 0.562704
vt 0.906250 0.937296
vt 0.906250 0.562704
vt 0.875000 0.937296
vt 0.875000 0.562704
vt 0.843750 0.562704
vt 0.843750 0.937296
vt 0.843750 0.937296
vt 0.812500 0.562704
vt 0.812500 0.937296
vt 0.781250 0.562704
vt 0.781250 0.937296
vt 0.750000 0.562704
vt 0.750000 0.937296
vt 0.718750 0.562704
vt 0.718750 0.937296
vt 0.687500 0.562704
vt 0.687500 0.937296
vt 0.656250 0.562704
vt 0.656250 0.937296
vt 0.625000 0.562704
vt 0.625000 0.937296
vt 0.593750 0.562704
vt 0.593750 0.937296
vt 0.562500 0.562704
vt 0.562500 0.937296
vt 0.531250 0.562704
vt 0.531250 0.937296
vt 0.500000 0.562704
vt 0.500000 0.937296
vt 0.468750 0.562704
vt 0.468750 0.937296
vt 0.468750 0.937296
vt 0.437500 0.562704
vt 0.437500 0.937296
vt 0.406250 0.562704
vt 0.406250 0.937296
vt 0.375000 0.562704
vt 0.375000 0.937296
vt 0.343750 0.937296
vt 0.343750 0.562704
vt 0.312500 0.937296
vt 0.343750 0.562704
vt 0.312500 0.562704
vt 0.281250 0.937296
vt 0.281250 0.562704
vt 0.250000 0.937296
vt 0.250000 0.562704
vt 0.218750 0.937296
vt 0.218750 0.562704
vt 0.187500 0.937296
vt 0.187500 0.562704
vt 0.156250 0.937296
vt 0.156250 0.562704
vt 0.125000 0.937296
vt 0.125000 0.562704
vt 0.093750 0.937296
vt 0.093750 0.562704
vt 0.062500 0.937296
vt 0.062500 0.562704
vt 0.031250 0.937296
vt 0.031250 0.562704
vt 0.000000 0.937296
vt 0.000000 0.562704
vt 0.625000 0.000000
vt 0.375000 0.250000
vt 0.375000 0.000000
vt 0.625000 0.500000
vt 0.375000 0.500000
vt 0.375000 0.750000
vt 0.625000 0.750000
vt 0.375000 1.000000
vt 0.125000 0.750000
vt 0.125000 0.500000
vt 0.875000 0.500000
vt 0.625000 0.000000
vt 0.375000 0.250000
vt 0.375000 0.000000
vt 0.625000 0.250000
vt 0.375000 0.500000
vt 0.625000 0.500000
vt 0.375000 0.750000
vt 0.625000 0.750000
vt 0.375000 1.000000
vt 0.125000 0.750000
vt 0.125000 0.500000
vt 0.875000 0.500000
vt 0.625000 0.000000
vt 0.375000 0.250000
vt 0.375000 0.000000
vt 0.625000 0.250000
vt 0.375000 0.500000
vt 0.625000 0.500000
vt 0.375000 0.750000
vt 0.625000 0.750000
vt 0.375000 1.000000
vt 0.125000 0.750000
vt 0.125000 0.500000
vt 0.875000 0.500000
vt 0.375000 0.000000
vt 0.625000 0.250000
vt 0.375000 0.250000
vt 0.375000 0.500000
vt 0.625000 0.750000
vt 0.375000 0.750000
vt 0.375000 1.000000
vt 0.125000 0.750000
vt 0.125000 0.500000
vt 0.875000 0.500000
vt 0.625000 0.500000
vt 0.375000 0.000000
vt 0.625000 0.250000
vt 0.375000 0.250000
vt 0.375000 0.500000
vt 0.625000 0.750000
vt 0.375000 0.750000
vt 0.375000 1.000000
vt 0.125000 0.750000
vt 0.125000 0.500000
vt 0.875000 0.500000
vt 0.625000 0.500000
vt 0.203178 0.014612
vt 0.510000 0.250000
vt 0.296822 0.014612
vt 0.971731 0.158156
vt 0.383337 0.050447
vt 0.528269 0.158156
vt 0.449553 0.116663
vt 0.285678 0.429364
vt 0.319984 0.418957
vt 0.250000 0.432878
vt 0.203178 0.485388
vt 0.214322 0.429364
vt 0.180016 0.418958
vt 0.148398 0.402058
vt 0.120686 0.379314
vt 0.097942 0.351602
vt 0.070636 0.285678
vt 0.014612 0.203178
vt 0.067122 0.250000
vt 0.097942 0.148398
vt 0.120686 0.120686
vt 0.116663 0.050447
vt 0.148398 0.097942
vt 0.180016 0.081043
vt 0.214322 0.070636
vt 0.250000 0.067122
vt 0.285678 0.070636
vt 0.351602 0.097942
vt 0.379314 0.120686
vt 0.402058 0.148398
vt 0.418957 0.180016
vt 0.319984 0.081043
vt 0.081043 0.319985
vt 0.429364 0.214322
vt 0.432878 0.250000
vt 0.402058 0.351602
vt 0.379314 0.379314
vt 0.351602 0.402058
vt 0.990000 0.250000
vt 0.620686 0.120686
vt 0.648398 0.097942
vt 0.597942 0.148398
vt 0.567122 0.250000
vt 0.570636 0.285678
vt 0.528269 0.341844
vt 0.581043 0.319984
vt 0.597942 0.351602
vt 0.620686 0.379314
vt 0.648398 0.402058
vt 0.680016 0.418957
vt 0.714322 0.429364
vt 0.750000 0.432878
vt 0.785678 0.429364
vt 0.819985 0.418957
vt 0.879315 0.379314
vt 0.902058 0.351602
vt 0.932878 0.250000
vt 0.929364 0.214322
vt 0.918957 0.180016
vt 0.902058 0.148398
vt 0.879315 0.120686
vt 0.851602 0.097942
vt 0.841844 0.028269
vt 0.819985 0.081043
vt 0.750000 0.067122
vt 0.714322 0.070636
vt 0.680016 0.081043
vt 0.785678 0.070636
vt 0.851602 0.402058
vt 1.000000 0.937296
vt 0.843750 0.562704
vt 0.468750 0.562704
vt 0.343750 0.937296
vt 0.919706 0.080294
vt 0.000000 1.000000
vt 0.050447 0.116663
vt 0.750000 0.490000
vt 0.580294 0.419706
vt 0.841844 0.471731
vt 0.014612 0.296822
vt 0.296822 0.485388
vt 0.750000 0.010000
vt 0.050447 0.383337
vt 0.383337 0.449553
vt 0.658156 0.471731
vt 0.919706 0.419706
vt 0.449553 0.383337
vt 0.658156 0.028269
vt 0.116663 0.449553
vt 0.485388 0.296822
vt 0.971731 0.341844
vt 0.580294 0.080294
vt 0.485388 0.203178
vt 0.285678 0.429364
vt 0.319984 0.418957
vt 0.341844 0.471731
vt 0.296822 0.485388
vt 0.250000 0.490000
vt 0.250000 0.432878
vt 0.203178 0.485388
vt 0.214322 0.429364
vt 0.158156 0.471731
vt 0.116663 0.449553
vt 0.180016 0.418958
vt 0.080294 0.419706
vt 0.148398 0.402058
vt 0.050447 0.383337
vt 0.120686 0.379314
vt 0.028269 0.341844
vt 0.097942 0.351602
vt 0.014612 0.296822
vt 0.070636 0.285678
vt 0.010000 0.250000
vt 0.014612 0.203178
vt 0.067122 0.250000
vt 0.050447 0.116663
vt 0.097942 0.148398
vt 0.080294 0.080294
vt 0.120686 0.120686
vt 0.116663 0.050447
vt 0.148398 0.097942
vt 0.158156 0.028269
vt 0.180016 0.081043
vt 0.203178 0.014612
vt 0.214322 0.070636
vt 0.250000 0.010000
vt 0.250000 0.067122
vt 0.296822 0.014612
vt 0.285678 0.070636
vt 0.341844 0.028269
vt 0.383337 0.050447
vt 0.351602 0.097942
vt 0.419706 0.080294
vt 0.379314 0.120686
vt 0.449553 0.116663
vt 0.471731 0.158156
vt 0.402058 0.148398
vt 0.418957 0.180016
vt 0.319984 0.081043
vt 0.081043 0.319985
vt 0.429364 0.214322
vt 0.485388 0.203178
vt 0.490000 0.250000
vt 0.432878 0.250000
vt 0.485388 0.296822
vt 0.449553 0.383337
vt 0.402058 0.351602
vt 0.419706 0.419706
vt 0.379314 0.379314
vt 0.383337 0.449553
vt 0.351602 0.402058
vt 0.000000 1.000000
vt 0.620686 0.120686
vt 0.648398 0.097942
vt 0.616663 0.050447
vt 0.580294 0.080294
vt 0.550447 0.116663
vt 0.597942 0.148398
vt 0.528269 0.158156
vt 0.510000 0.250000
vt 0.567122 0.250000
vt 0.514612 0.296822
vt 0.570636 0.285678
vt 0.528269 0.341844
vt 0.550447 0.383337
vt 0.581043 0.319984
vt 0.597942 0.351602
vt 0.620686 0.379314
vt 0.580294 0.419706
vt 0.616663 0.449553
vt 0.648398 0.402058
vt 0.658156 0.471731
vt 0.680016 0.418957
vt 0.703178 0.485388
vt 0.750000 0.490000
vt 0.714322 0.429364
vt 0.796822 0.485388
vt 0.750000 0.432878
vt 0.841844 0.471731
vt 0.785678 0.429364
vt 0.883337 0.449553
vt 0.819985 0.418957
vt 0.919706 0.419706
vt 0.879315 0.379314
vt 0.949553 0.383337
vt 0.971731 0.341844
vt 0.902058 0.351602
vt 0.990000 0.250000
vt 0.932878 0.250000
vt 0.985388 0.203178
vt 0.929364 0.214322
vt 0.971731 0.158156
vt 0.918957 0.180016
vt 0.949553 0.116663
vt 0.902058 0.148398
vt 0.919706 0.080294
vt 0.879315 0.120686
vt 0.883337 0.050447
vt 0.851602 0.097942
vt 0.841844 0.028269
vt 0.819985 0.081043
vt 0.796822 0.014612
vt 0.750000 0.010000
vt 0.750000 0.067122
vt 0.703178 0.014612
vt 0.714322 0.070636
vt 0.658156 0.028269
vt 0.680016 0.081043
vt 0.785678 0.070636
vt 0.851602 0.402058
vt 1.000000 0.937296
vt 0.843750 0.562704
vt 0.468750 0.562704
vt 0.343750 0.937296
vt 0.625000 0.250000
vt 0.625000 1.000000
vt 0.875000 0.750000
vt 0.625000 1.000000
vt 0.875000 0.750000
vt 0.625000 1.000000
vt 0.875000 0.750000
vt 0.625000 0.000000
vt 0.625000 1.000000
vt 0.875000 0.750000
vt 0.625000 0.000000
vt 0.625000 1.000000
vt 0.875000 0.750000
vn 0.0000 -0.7730 -0.6344
vn 0.0000 -0.2903 -0.9569
vn 0.0000 -0.0980 -0.9952
vn 0.0000 -0.6344 -0.7730
vn 1.0000 -0.0000 0.0000
vn 0.0000 -0.8819 -0.4714
vn -1.0000 0.0000 0.0000
vn 0.0000 -0.9952 -0.0980
vn 0.0000 0.4714 0.8819
vn 0.0000 -0.9569 0.2903
vn 0.0000 0.0980 0.9952
vn 0.0000 -0.7730 0.6344
vn 0.0000 -0.4714 0.8819
vn 0.0000 -0.0980 0.9952
vn 0.0000 -0.4714 -0.8819
vn 0.0000 0.2903 0.9569
vn 0.0000 0.2903 -0.9569
vn 0.0000 0.6344 0.7730
vn 0.0000 0.8819 0.4714
vn 0.0000 0.9952 0.0980
vn 0.0000 0.9569 -0.2903
vn 0.0000 -0.2903 0.9569
vn 0.0000 0.7730 -0.6344
vn 0.0000 0.4714 -0.8819
vn 0.0000 0.0980 -0.9952
vn 0.0000 0.7730 0.6344
vn 0.0000 0.9569 0.2903
vn 0.0000 0.9952 -0.0980
vn 0.0000 0.8819 -0.4714
vn 0.0000 0.6344 -0.7730
vn 0.0000 -0.9569 -0.2903
vn 0.0000 -0.9952 0.0980
vn 0.0000 -0.8819 0.4714
vn 0.0000 -0.6344 0.7730
vn 0.0000 0.0000 -1.0000
vn 0.0000 0.0000 1.0000
vn -0.0000 -1.0000 0.0000
vn 0.0000 1.0000 0.0000
vn 0.0000 0.7071 -0.7071
vn 0.0000 -0.7071 0.7071
vn 0.0000 -0.7071 -0.7071
vn 0.0000 0.7071 0.7071
vn 0.0000 -0.9063 0.4226
vn 0.0000 0.9063 -0.4226
vn 0.0000 0.4226 0.9063
vn -0.0000 -0.4226 -0.9063
vn 0.0000 0.9063 0.4226
vn 0.0000 -0.9063 -0.4226
vn 0.0000 0.4226 -0.9063
vn 0.0000 -0.4226 0.9063
usemtl None
s off
f 26/1/1 153/2/1 25/3/1
f 4/4/2 5/5/2 3/6/2
f 51/7/3 180/8/3 52/9/3
f 8/10/4 9/11/4 7/12/4
f 34/13/5 164/14/5 162/15/5
f 12/16/6 13/17/6 11/18/6
f 49/19/7 179/20/7 51/21/7
f 16/22/8 17/23/8 15/24/8
f 23/25/9 152/26/9 24/27/9
f 20/28/10 21/29/10 19/30/10
f 50/31/11 177/32/11 49/33/11
f 24/27/12 25/3/12 23/25/12
f 32/34/5 158/35/5 30/36/5
f 28/37/13 29/38/13 27/39/13
f 21/40/7 151/41/7 23/42/7
f 32/43/14 33/44/14 31/45/14
f 22/46/15 149/47/15 21/29/15
f 36/48/16 37/49/16 35/50/16
f 47/51/17 176/52/17 48/53/17
f 40/54/18 41/55/18 39/56/18
f 28/57/5 154/58/5 26/59/5
f 44/60/19 45/61/19 43/62/19
f 45/63/7 175/64/7 47/65/7
f 48/53/20 49/33/20 47/51/20
f 19/30/11 148/66/11 20/28/11
f 52/9/21 53/67/21 51/7/21
f 46/68/22 173/69/22 45/61/22
f 56/70/23 57/71/23 55/72/23
f 24/73/5 150/74/5 22/75/5
f 60/76/24 61/77/24 59/78/24
f 46/79/5 70/80/5 68/81/5
f 14/82/5 76/83/5 75/84/5
f 17/85/7 147/86/7 19/87/7
f 64/88/25 1/89/25 63/90/25
f 47/65/7 119/91/7 121/92/7
f 15/93/7 117/94/7 113/95/7
f 84/96/11 109/97/11 112/98/11
f 83/99/16 112/98/16 97/100/16
f 89/101/9 97/100/9 99/102/9
f 96/103/18 99/102/18 98/104/18
f 96/103/26 114/105/26 74/106/26
f 74/107/19 113/108/19 76/109/19
f 76/109/27 117/110/27 75/111/27
f 75/111/20 115/112/20 93/113/20
f 93/113/28 116/114/28 95/115/28
f 95/115/21 101/116/21 94/117/21
f 94/117/29 102/118/29 91/119/29
f 91/119/23 100/120/23 92/121/23
f 92/121/30 111/122/30 72/123/30
f 72/123/24 110/124/24 73/125/24
f 73/125/17 125/126/17 71/127/17
f 71/127/25 126/128/25 90/129/25
f 90/129/3 127/130/3 88/131/3
f 88/132/2 104/133/2 87/134/2
f 87/134/15 105/135/15 82/136/15
f 82/136/4 103/137/4 86/138/4
f 69/139/1 103/137/1 122/140/1
f 70/141/6 122/142/6 121/143/6
f 68/144/31 121/143/31 119/145/31
f 77/146/8 119/145/8 118/147/8
f 78/148/32 118/147/32 120/149/32
f 80/150/10 120/149/10 106/151/10
f 79/152/33 106/151/33 108/153/33
f 81/154/12 108/153/12 107/155/12
f 65/156/34 107/155/34 128/157/34
f 67/158/13 128/157/13 123/159/13
f 66/160/22 123/159/22 124/161/22
f 85/162/14 124/161/14 109/163/14
f 130/164/3 131/165/3 129/166/3
f 134/167/15 135/168/15 133/169/15
f 138/170/1 139/171/1 137/172/1
f 142/173/31 143/174/31 141/175/31
f 146/176/32 147/177/32 145/178/32
f 150/179/33 151/180/33 149/47/33
f 154/181/34 155/182/34 153/2/34
f 158/183/22 159/184/22 157/185/22
f 162/186/11 163/187/11 161/188/11
f 166/189/9 167/190/9 165/191/9
f 170/192/26 171/193/26 169/194/26
f 174/195/27 175/196/27 173/69/27
f 178/197/28 179/198/28 177/32/28
f 182/199/29 183/200/29 181/201/29
f 186/202/30 187/203/30 185/204/30
f 190/205/17 191/206/17 189/207/17
f 25/208/7 155/209/7 27/210/7
f 38/211/5 168/212/5 166/213/5
f 54/214/9 181/201/9 53/67/9
f 27/39/26 156/215/26 28/37/26
f 2/216/28 129/217/28 1/89/28
f 55/218/7 181/219/7 183/220/7
f 44/221/5 170/222/5 42/223/5
f 1/224/7 131/225/7 3/226/7
f 55/72/15 184/227/15 56/70/15
f 30/228/31 157/185/31 29/38/31
f 3/6/32 132/229/32 4/4/32
f 62/230/5 192/231/5 190/232/5
f 31/233/7 157/234/7 159/235/7
f 46/79/5 176/236/5 174/237/5
f 58/238/26 185/204/26 57/71/26
f 31/45/27 160/239/27 32/43/27
f 6/240/29 133/169/29 5/5/29
f 57/241/7 187/242/7 59/243/7
f 5/244/7 135/245/7 7/246/7
f 59/78/1 188/247/1 60/76/1
f 34/248/32 161/188/32 33/44/32
f 52/249/5 178/250/5 50/251/5
f 7/12/33 136/252/33 8/10/33
f 4/253/5 130/254/5 2/255/5
f 33/256/7 163/257/7 35/258/7
f 62/259/27 189/207/27 61/77/27
f 35/50/28 164/260/28 36/48/28
f 56/261/5 182/262/5 54/263/5
f 10/264/30 137/172/30 9/11/30
f 8/265/5 134/266/5 6/267/5
f 61/268/7 191/269/7 63/270/7
f 9/271/7 139/272/7 11/273/7
f 63/90/31 192/274/31 64/88/31
f 38/275/33 165/191/33 37/49/33
f 11/18/34 140/276/34 12/16/34
f 12/277/5 138/278/5 10/279/5
f 37/280/7 167/281/7 39/282/7
f 60/283/5 186/284/5 58/285/5
f 39/56/29 168/286/29 40/54/29
f 14/287/17 141/175/17 13/17/17
f 16/288/5 142/289/5 14/82/5
f 13/290/7 143/291/7 15/93/7
f 42/292/34 169/194/34 41/55/34
f 15/24/22 144/293/22 16/22/22
f 41/294/7 171/295/7 43/296/7
f 20/297/5 146/298/5 18/299/5
f 43/62/30 172/300/30 44/60/30
f 18/301/3 145/178/3 17/23/3
f 194/302/3 195/303/3 193/304/3
f 196/305/2 197/306/2 195/303/2
f 198/307/15 199/308/15 197/306/15
f 200/309/4 201/310/4 199/308/4
f 202/311/1 203/312/1 201/310/1
f 204/313/6 205/314/6 203/312/6
f 206/315/31 207/316/31 205/314/31
f 208/317/8 209/318/8 207/316/8
f 210/319/32 211/320/32 209/318/32
f 212/321/10 213/322/10 211/320/10
f 214/323/33 215/324/33 213/322/33
f 216/325/12 217/326/12 215/324/12
f 218/327/34 219/328/34 217/326/34
f 220/329/13 221/330/13 219/328/13
f 222/331/22 223/332/22 221/330/22
f 224/333/14 225/334/14 223/332/14
f 226/335/11 227/336/11 225/334/11
f 228/337/16 229/338/16 227/336/16
f 230/339/9 231/340/9 229/338/9
f 232/341/18 233/342/18 231/340/18
f 234/343/26 235/344/26 233/342/26
f 236/345/19 237/346/19 235/344/19
f 238/347/27 239/348/27 237/346/27
f 240/349/20 241/350/20 239/348/20
f 242/351/28 243/352/28 241/350/28
f 244/353/21 245/354/21 243/352/21
f 246/355/29 247/356/29 245/354/29
f 248/357/23 249/358/23 247/356/23
f 250/359/30 251/360/30 249/358/30
f 252/361/24 253/362/24 251/360/24
f 238/363/5 262/364/5 260/365/5
f 206/366/5 268/367/5 267/368/5
f 254/369/17 255/370/17 253/362/17
f 256/371/25 193/372/25 255/370/25
f 239/373/7 311/374/7 313/375/7
f 207/376/7 309/377/7 305/378/7
f 276/379/11 301/380/11 304/381/11
f 275/382/16 304/381/16 289/383/16
f 281/384/9 289/383/9 291/385/9
f 288/386/18 291/385/18 290/387/18
f 288/386/26 306/388/26 266/389/26
f 266/390/19 305/391/19 268/392/19
f 268/392/27 309/393/27 267/394/27
f 267/394/20 307/395/20 285/396/20
f 285/396/28 308/397/28 287/398/28
f 287/398/21 293/399/21 286/400/21
f 286/400/29 294/401/29 283/402/29
f 283/402/23 292/403/23 284/404/23
f 284/404/30 303/405/30 264/406/30
f 264/406/24 302/407/24 265/408/24
f 265/408/17 317/409/17 263/410/17
f 263/410/25 318/411/25 282/412/25
f 282/412/3 319/413/3 280/414/3
f 280/415/2 296/416/2 279/417/2
f 279/417/15 297/418/15 274/419/15
f 274/419/4 295/420/4 278/421/4
f 261/422/1 295/420/1 314/423/1
f 262/424/6 314/425/6 313/426/6
f 260/427/31 313/426/31 311/428/31
f 269/429/8 311/428/8 310/430/8
f 270/431/32 310/430/32 312/432/32
f 272/433/10 312/432/10 298/434/10
f 271/435/33 298/434/33 300/436/33
f 273/437/12 300/436/12 299/438/12
f 257/439/34 299/438/34 320/440/34
f 259/441/13 320/440/13 315/442/13
f 258/443/22 315/442/22 316/444/22
f 277/445/14 316/444/14 301/446/14
f 322/447/7 323/448/7 321/449/7
f 323/448/35 328/450/35 327/451/35
f 328/450/5 325/452/5 327/451/5
f 326/453/36 321/454/36 325/452/36
f 327/451/37 321/455/37 323/456/37
f 324/457/38 326/453/38 328/450/38
f 330/458/7 331/459/7 329/460/7
f 332/461/39 335/462/39 331/459/39
f 336/463/5 333/464/5 335/462/5
f 334/465/40 329/466/40 333/464/40
f 335/462/41 329/467/41 331/468/41
f 332/469/42 334/465/42 336/463/42
f 338/470/7 339/471/7 337/472/7
f 340/473/41 343/474/41 339/471/41
f 344/475/5 341/476/5 343/474/5
f 342/477/42 337/478/42 341/476/42
f 343/474/40 337/479/40 339/480/40
f 340/481/39 342/477/39 344/475/39
f 345/482/7 348/483/7 347/484/7
f 348/483/43 351/485/43 347/484/43
f 351/485/5 350/486/5 349/487/5
f 350/486/44 345/488/44 349/487/44
f 351/485/45 345/489/45 347/490/45
f 348/491/46 350/486/46 352/492/46
f 353/493/7 356/494/7 355/495/7
f 356/494/47 359/496/47 355/495/47
f 359/496/5 358/497/5 357/498/5
f 358/497/48 353/499/48 357/498/48
f 359/496/49 353/500/49 355/501/49
f 356/502/50 358/497/50 360/503/50
f 26/1/1 154/181/1 153/2/1
f 4/4/2 6/240/2 5/5/2
f 51/7/3 179/198/3 180/8/3
f 8/10/4 10/264/4 9/11/4
f 34/13/5 36/504/5 164/14/5
f 12/16/6 14/287/6 13/17/6
f 49/19/7 177/505/7 179/20/7
f 16/22/8 18/301/8 17/23/8
f 23/25/9 151/180/9 152/26/9
f 20/28/10 22/46/10 21/29/10
f 50/31/11 178/197/11 177/32/11
f 24/27/12 26/1/12 25/3/12
f 32/34/5 160/506/5 158/35/5
f 28/37/13 30/228/13 29/38/13
f 21/40/7 149/507/7 151/41/7
f 32/43/14 34/248/14 33/44/14
f 22/46/15 150/179/15 149/47/15
f 36/48/16 38/275/16 37/49/16
f 47/51/17 175/196/17 176/52/17
f 40/54/18 42/292/18 41/55/18
f 28/57/5 156/508/5 154/58/5
f 44/60/19 46/68/19 45/61/19
f 45/63/7 173/509/7 175/64/7
f 48/53/20 50/31/20 49/33/20
f 19/30/11 147/177/11 148/66/11
f 52/9/21 54/214/21 53/67/21
f 46/68/22 174/195/22 173/69/22
f 56/70/23 58/238/23 57/71/23
f 24/73/5 152/510/5 150/74/5
f 60/76/24 62/259/24 61/77/24
f 84/511/5 83/512/5 6/267/5
f 6/267/5 4/253/5 84/511/5
f 4/253/5 2/255/5 85/513/5
f 2/255/5 64/514/5 66/515/5
f 64/514/5 62/230/5 66/515/5
f 62/230/5 60/283/5 67/516/5
f 60/283/5 58/285/5 65/517/5
f 67/516/5 60/283/5 65/517/5
f 58/285/5 56/261/5 81/518/5
f 56/261/5 54/263/5 79/519/5
f 81/518/5 56/261/5 79/519/5
f 54/263/5 52/249/5 78/520/5
f 52/249/5 50/251/5 78/520/5
f 50/251/5 48/521/5 77/522/5
f 48/521/5 46/79/5 68/81/5
f 77/522/5 48/521/5 68/81/5
f 46/79/5 44/221/5 69/523/5
f 44/221/5 42/223/5 86/524/5
f 42/223/5 40/525/5 82/526/5
f 40/525/5 38/211/5 87/527/5
f 38/211/5 36/504/5 88/528/5
f 36/504/5 34/13/5 90/529/5
f 34/13/5 32/34/5 71/530/5
f 32/34/5 30/36/5 71/530/5
f 30/36/5 28/57/5 72/531/5
f 28/57/5 26/59/5 92/532/5
f 26/59/5 24/73/5 92/532/5
f 24/73/5 22/75/5 91/533/5
f 92/532/5 24/73/5 91/533/5
f 22/75/5 94/534/5 91/533/5
f 28/57/5 92/532/5 72/531/5
f 36/504/5 90/529/5 88/528/5
f 44/221/5 86/524/5 69/523/5
f 40/525/5 87/527/5 82/526/5
f 78/520/5 50/251/5 77/522/5
f 4/253/5 85/513/5 84/511/5
f 66/515/5 85/513/5 2/255/5
f 67/516/5 66/515/5 62/230/5
f 30/36/5 72/531/5 73/535/5
f 30/36/5 73/535/5 71/530/5
f 65/517/5 58/285/5 81/518/5
f 34/13/5 71/530/5 90/529/5
f 38/211/5 88/528/5 87/527/5
f 80/536/5 79/519/5 54/263/5
f 78/520/5 80/536/5 54/263/5
f 42/223/5 82/526/5 86/524/5
f 46/79/5 69/523/5 70/80/5
f 95/537/5 94/534/5 22/75/5
f 22/75/5 20/297/5 95/537/5
f 20/297/5 18/299/5 93/538/5
f 18/299/5 16/288/5 75/84/5
f 16/288/5 14/82/5 75/84/5
f 14/82/5 12/277/5 74/539/5
f 12/277/5 10/279/5 96/540/5
f 10/279/5 8/265/5 96/540/5
f 8/265/5 6/267/5 89/541/5
f 96/540/5 8/265/5 89/541/5
f 6/267/5 83/512/5 89/541/5
f 12/277/5 96/540/5 74/539/5
f 20/297/5 93/538/5 95/537/5
f 75/84/5 93/538/5 18/299/5
f 14/82/5 74/539/5 76/83/5
f 17/85/7 145/542/7 147/86/7
f 64/88/25 2/216/25 1/89/25
f 103/543/7 105/544/7 39/282/7
f 39/282/7 41/294/7 103/543/7
f 41/294/7 43/296/7 122/545/7
f 43/296/7 45/63/7 121/92/7
f 45/63/7 47/65/7 121/92/7
f 47/65/7 49/19/7 118/546/7
f 49/19/7 51/21/7 120/547/7
f 51/21/7 53/548/7 120/547/7
f 53/548/7 55/218/7 106/549/7
f 120/547/7 53/548/7 106/549/7
f 55/218/7 108/550/7 106/549/7
f 49/19/7 120/547/7 118/546/7
f 41/294/7 122/545/7 103/543/7
f 121/92/7 122/545/7 43/296/7
f 47/65/7 118/546/7 119/91/7
f 107/551/7 108/550/7 55/218/7
f 55/218/7 57/241/7 107/551/7
f 57/241/7 59/243/7 128/552/7
f 59/243/7 61/268/7 123/553/7
f 61/268/7 63/270/7 123/553/7
f 63/270/7 1/224/7 124/554/7
f 1/224/7 3/226/7 109/555/7
f 124/554/7 1/224/7 109/555/7
f 3/226/7 5/244/7 112/556/7
f 5/244/7 7/246/7 97/557/7
f 112/556/7 5/244/7 97/557/7
f 7/246/7 9/271/7 98/558/7
f 9/271/7 11/273/7 98/558/7
f 11/273/7 13/290/7 114/559/7
f 13/290/7 15/93/7 113/95/7
f 114/559/7 13/290/7 113/95/7
f 15/93/7 17/85/7 115/560/7
f 17/85/7 19/87/7 116/561/7
f 19/87/7 21/40/7 101/562/7
f 21/40/7 23/42/7 102/563/7
f 23/42/7 25/208/7 100/564/7
f 25/208/7 27/210/7 111/565/7
f 27/210/7 29/566/7 110/567/7
f 29/566/7 31/233/7 110/567/7
f 31/233/7 33/256/7 126/568/7
f 33/256/7 35/258/7 127/569/7
f 35/258/7 37/280/7 127/569/7
f 37/280/7 39/282/7 104/570/7
f 127/569/7 37/280/7 104/570/7
f 39/282/7 105/544/7 104/570/7
f 33/256/7 127/569/7 126/568/7
f 25/208/7 111/565/7 100/564/7
f 17/85/7 116/561/7 115/560/7
f 21/40/7 102/563/7 101/562/7
f 98/558/7 11/273/7 114/559/7
f 57/241/7 128/552/7 107/551/7
f 123/553/7 128/552/7 59/243/7
f 124/554/7 123/553/7 63/270/7
f 31/233/7 126/568/7 125/571/7
f 31/233/7 125/571/7 110/567/7
f 109/555/7 3/226/7 112/556/7
f 27/210/7 110/567/7 111/565/7
f 23/42/7 100/564/7 102/563/7
f 99/572/7 97/557/7 7/246/7
f 98/558/7 99/572/7 7/246/7
f 19/87/7 101/562/7 116/561/7
f 15/93/7 115/560/7 117/94/7
f 84/96/11 85/573/11 109/97/11
f 83/99/16 84/96/16 112/98/16
f 89/101/9 83/99/9 97/100/9
f 96/103/18 89/101/18 99/102/18
f 96/103/26 98/104/26 114/105/26
f 74/107/19 114/574/19 113/108/19
f 76/109/27 113/108/27 117/110/27
f 75/111/20 117/110/20 115/112/20
f 93/113/28 115/112/28 116/114/28
f 95/115/21 116/114/21 101/116/21
f 94/117/29 101/116/29 102/118/29
f 91/119/23 102/118/23 100/120/23
f 92/121/30 100/120/30 111/122/30
f 72/123/24 111/122/24 110/124/24
f 73/125/17 110/124/17 125/126/17
f 71/127/25 125/126/25 126/128/25
f 90/129/3 126/128/3 127/130/3
f 88/132/2 127/575/2 104/133/2
f 87/134/15 104/133/15 105/135/15
f 82/136/4 105/135/4 103/137/4
f 69/139/1 86/138/1 103/137/1
f 70/141/6 69/576/6 122/142/6
f 68/144/31 70/141/31 121/143/31
f 77/146/8 68/144/8 119/145/8
f 78/148/32 77/146/32 118/147/32
f 80/150/10 78/148/10 120/149/10
f 79/152/33 80/150/33 106/151/33
f 81/154/12 79/152/12 108/153/12
f 65/156/34 81/154/34 107/155/34
f 67/158/13 65/156/13 128/157/13
f 66/160/22 67/158/22 123/159/22
f 85/162/14 66/160/14 124/161/14
f 130/164/3 132/229/3 131/165/3
f 134/167/15 136/252/15 135/168/15
f 138/170/1 140/276/1 139/171/1
f 142/173/31 144/293/31 143/174/31
f 146/176/32 148/66/32 147/177/32
f 150/179/33 152/26/33 151/180/33
f 154/181/34 156/215/34 155/182/34
f 158/183/22 160/239/22 159/184/22
f 162/186/11 164/260/11 163/187/11
f 166/189/9 168/286/9 167/190/9
f 170/192/26 172/300/26 171/193/26
f 174/195/27 176/52/27 175/196/27
f 178/197/28 180/8/28 179/198/28
f 182/199/29 184/227/29 183/200/29
f 186/202/30 188/247/30 187/203/30
f 190/205/17 192/274/17 191/206/17
f 25/208/7 153/577/7 155/209/7
f 38/211/5 40/525/5 168/212/5
f 54/214/9 182/199/9 181/201/9
f 27/39/26 155/182/26 156/215/26
f 2/216/28 130/578/28 129/217/28
f 55/218/7 53/548/7 181/219/7
f 44/221/5 172/579/5 170/222/5
f 1/224/7 129/580/7 131/225/7
f 55/72/15 183/200/15 184/227/15
f 30/228/31 158/183/31 157/185/31
f 3/6/32 131/165/32 132/229/32
f 62/230/5 64/514/5 192/231/5
f 31/233/7 29/566/7 157/234/7
f 46/79/5 48/521/5 176/236/5
f 58/238/26 186/202/26 185/204/26
f 31/45/27 159/184/27 160/239/27
f 6/240/29 134/167/29 133/169/29
f 57/241/7 185/581/7 187/242/7
f 5/244/7 133/582/7 135/245/7
f 59/78/1 187/203/1 188/247/1
f 34/248/32 162/186/32 161/188/32
f 52/249/5 180/583/5 178/250/5
f 7/12/33 135/168/33 136/252/33
f 4/253/5 132/584/5 130/254/5
f 33/256/7 161/585/7 163/257/7
f 62/259/27 190/205/27 189/207/27
f 35/50/28 163/187/28 164/260/28
f 56/261/5 184/586/5 182/262/5
f 10/264/30 138/170/30 137/172/30
f 8/265/5 136/587/5 134/266/5
f 61/268/7 189/588/7 191/269/7
f 9/271/7 137/589/7 139/272/7
f 63/90/31 191/206/31 192/274/31
f 38/275/33 166/189/33 165/191/33
f 11/18/34 139/171/34 140/276/34
f 12/277/5 140/590/5 138/278/5
f 37/280/7 165/591/7 167/281/7
f 60/283/5 188/592/5 186/284/5
f 39/56/29 167/190/29 168/286/29
f 14/287/17 142/173/17 141/175/17
f 16/288/5 144/593/5 142/289/5
f 13/290/7 141/594/7 143/291/7
f 42/292/34 170/192/34 169/194/34
f 15/24/22 143/174/22 144/293/22
f 41/294/7 169/595/7 171/295/7
f 20/297/5 148/596/5 146/298/5
f 43/62/30 171/193/30 172/300/30
f 18/301/3 146/176/3 145/178/3
f 194/302/3 196/305/3 195/303/3
f 196/305/2 198/307/2 197/306/2
f 198/307/15 200/309/15 199/308/15
f 200/309/4 202/311/4 201/310/4
f 202/311/1 204/313/1 203/312/1
f 204/313/6 206/315/6 205/314/6
f 206/315/31 208/317/31 207/316/31
f 208/317/8 210/319/8 209/318/8
f 210/319/32 212/321/32 211/320/32
f 212/321/10 214/323/10 213/322/10
f 214/323/33 216/325/33 215/324/33
f 216/325/12 218/327/12 217/326/12
f 218/327/34 220/329/34 219/328/34
f 220/329/13 222/331/13 221/330/13
f 222/331/22 224/333/22 223/332/22
f 224/333/14 226/335/14 225/334/14
f 226/335/11 228/337/11 227/336/11
f 228/337/16 230/339/16 229/338/16
f 230/339/9 232/341/9 231/340/9
f 232/341/18 234/343/18 233/342/18
f 234/343/26 236/345/26 235/344/26
f 236/345/19 238/347/19 237/346/19
f 238/347/27 240/349/27 239/348/27
f 240/349/20 242/351/20 241/350/20
f 242/351/28 244/353/28 243/352/28
f 244/353/21 246/355/21 245/354/21
f 246/355/29 248/357/29 247/356/29
f 248/357/23 250/359/23 249/358/23
f 250/359/30 252/361/30 251/360/30
f 252/361/24 254/369/24 253/362/24
f 276/597/5 275/598/5 198/599/5
f 198/599/5 196/600/5 276/597/5
f 196/600/5 194/601/5 277/602/5
f 194/601/5 256/603/5 258/604/5
f 256/603/5 254/605/5 258/604/5
f 254/605/5 252/606/5 259/607/5
f 252/606/5 250/608/5 257/609/5
f 259/607/5 252/606/5 257/609/5
f 250/608/5 248/610/5 273/611/5
f 248/610/5 246/612/5 271/613/5
f 273/611/5 248/610/5 271/613/5
f 246/612/5 244/614/5 270/615/5
f 244/614/5 242/616/5 270/615/5
f 242/616/5 240/617/5 269/618/5
f 240/617/5 238/363/5 260/365/5
f 269/618/5 240/617/5 260/365/5
f 238/363/5 236/619/5 261/620/5
f 236/619/5 234/621/5 278/622/5
f 234/621/5 232/623/5 274/624/5
f 232/623/5 230/625/5 279/626/5
f 230/625/5 228/627/5 280/628/5
f 228/627/5 226/629/5 282/630/5
f 226/629/5 224/631/5 263/632/5
f 224/631/5 222/633/5 263/632/5
f 222/633/5 220/634/5 264/635/5
f 220/634/5 218/636/5 284/637/5
f 218/636/5 216/638/5 284/637/5
f 216/638/5 214/639/5 283/640/5
f 284/637/5 216/638/5 283/640/5
f 214/639/5 286/641/5 283/640/5
f 220/634/5 284/637/5 264/635/5
f 228/627/5 282/630/5 280/628/5
f 236/619/5 278/622/5 261/620/5
f 232/623/5 279/626/5 274/624/5
f 270/615/5 242/616/5 269/618/5
f 196/600/5 277/602/5 276/597/5
f 258/604/5 277/602/5 194/601/5
f 259/607/5 258/604/5 254/605/5
f 222/633/5 264/635/5 265/642/5
f 222/633/5 265/642/5 263/632/5
f 257/609/5 250/608/5 273/611/5
f 226/629/5 263/632/5 282/630/5
f 230/625/5 280/628/5 279/626/5
f 272/643/5 271/613/5 246/612/5
f 270/615/5 272/643/5 246/612/5
f 234/621/5 274/624/5 278/622/5
f 238/363/5 261/620/5 262/364/5
f 287/644/5 286/641/5 214/639/5
f 214/639/5 212/645/5 287/644/5
f 212/645/5 210/646/5 285/647/5
f 210/646/5 208/648/5 267/368/5
f 208/648/5 206/366/5 267/368/5
f 206/366/5 204/649/5 266/650/5
f 204/649/5 202/651/5 288/652/5
f 202/651/5 200/653/5 288/652/5
f 200/653/5 198/599/5 281/654/5
f 288/652/5 200/653/5 281/654/5
f 198/599/5 275/598/5 281/654/5
f 204/649/5 288/652/5 266/650/5
f 212/645/5 285/647/5 287/644/5
f 267/368/5 285/647/5 210/646/5
f 206/366/5 266/650/5 268/367/5
f 254/369/17 256/371/17 255/370/17
f 256/371/25 194/655/25 193/372/25
f 295/656/7 297/657/7 231/658/7
f 231/658/7 233/659/7 295/656/7
f 233/659/7 235/660/7 314/661/7
f 235/660/7 237/662/7 313/375/7
f 237/662/7 239/373/7 313/375/7
f 239/373/7 241/663/7 310/664/7
f 241/663/7 243/665/7 312/666/7
f 243/665/7 245/667/7 312/666/7
f 245/667/7 247/668/7 298/669/7
f 312/666/7 245/667/7 298/669/7
f 247/668/7 300/670/7 298/669/7
f 241/663/7 312/666/7 310/664/7
f 233/659/7 314/661/7 295/656/7
f 313/375/7 314/661/7 235/660/7
f 239/373/7 310/664/7 311/374/7
f 299/671/7 300/670/7 247/668/7
f 247/668/7 249/672/7 299/671/7
f 249/672/7 251/673/7 320/674/7
f 251/673/7 253/675/7 315/676/7
f 253/675/7 255/677/7 315/676/7
f 255/677/7 193/678/7 316/679/7
f 193/678/7 195/680/7 301/681/7
f 316/679/7 193/678/7 301/681/7
f 195/680/7 197/682/7 304/683/7
f 197/682/7 199/684/7 289/685/7
f 304/683/7 197/682/7 289/685/7
f 199/684/7 201/686/7 290/687/7
f 201/686/7 203/688/7 290/687/7
f 203/688/7 205/689/7 306/690/7
f 205/689/7 207/376/7 305/378/7
f 306/690/7 205/689/7 305/378/7
f 207/376/7 209/691/7 307/692/7
f 209/691/7 211/693/7 308/694/7
f 211/693/7 213/695/7 293/696/7
f 213/695/7 215/697/7 294/698/7
f 215/697/7 217/699/7 292/700/7
f 217/699/7 219/701/7 303/702/7
f 219/701/7 221/703/7 302/704/7
f 221/703/7 223/705/7 302/704/7
f 223/705/7 225/706/7 318/707/7
f 225/706/7 227/708/7 319/709/7
f 227/708/7 229/710/7 319/709/7
f 229/710/7 231/658/7 296/711/7
f 319/709/7 229/710/7 296/711/7
f 231/658/7 297/657/7 296/711/7
f 225/706/7 319/709/7 318/707/7
f 217/699/7 303/702/7 292/700/7
f 209/691/7 308/694/7 307/692/7
f 213/695/7 294/698/7 293/696/7
f 290/687/7 203/688/7 306/690/7
f 249/672/7 320/674/7 299/671/7
f 315/676/7 320/674/7 251/673/7
f 316/679/7 315/676/7 255/677/7
f 223/705/7 318/707/7 317/712/7
f 223/705/7 317/712/7 302/704/7
f 301/681/7 195/680/7 304/683/7
f 219/701/7 302/704/7 303/702/7
f 215/697/7 292/700/7 294/698/7
f 291/713/7 289/685/7 199/684/7
f 290/687/7 291/713/7 199/684/7
f 211/693/7 293/696/7 308/694/7
f 207/376/7 307/692/7 309/377/7
f 276/379/11 277/714/11 301/380/11
f 275/382/16 276/379/16 304/381/16
f 281/384/9 275/382/9 289/383/9
f 288/386/18 281/384/18 291/385/18
f 288/386/26 290/387/26 306/388/26
f 266/390/19 306/715/19 305/391/19
f 268/392/27 305/391/27 309/393/27
f 267/394/20 309/393/20 307/395/20
f 285/396/28 307/395/28 308/397/28
f 287/398/21 308/397/21 293/399/21
f 286/400/29 293/399/29 294/401/29
f 283/402/23 294/401/23 292/403/23
f 284/404/30 292/403/30 303/405/30
f 264/406/24 303/405/24 302/407/24
f 265/408/17 302/407/17 317/409/17
f 263/410/25 317/409/25 318/411/25
f 282/412/3 318/411/3 319/413/3
f 280/415/2 319/716/2 296/416/2
f 279/417/15 296/416/15 297/418/15
f 274/419/4 297/418/4 295/420/4
f 261/422/1 278/421/1 295/420/1
f 262/424/6 261/717/6 314/425/6
f 260/427/31 262/424/31 313/426/31
f 269/429/8 260/427/8 311/428/8
f 270/431/32 269/429/32 310/430/32
f 272/433/10 270/431/10 312/432/10
f 271/435/33 272/433/33 298/434/33
f 273/437/12 271/435/12 300/436/12
f 257/439/34 273/437/34 299/438/34
f 259/441/13 257/439/13 320/440/13
f 258/443/22 259/441/22 315/442/22
f 277/445/14 258/443/14 316/444/14
f 322/447/7 324/718/7 323/448/7
f 323/448/35 324/718/35 328/450/35
f 328/450/5 326/453/5 325/452/5
f 326/453/36 322/719/36 321/454/36
f 327/451/37 325/452/37 321/455/37
f 324/457/38 322/720/38 326/453/38
f 330/458/7 332/461/7 331/459/7
f 332/461/39 336/463/39 335/462/39
f 336/463/5 334/465/5 333/464/5
f 334/465/40 330/721/40 329/466/40
f 335/462/41 333/464/41 329/467/41
f 332/469/42 330/722/42 334/465/42
f 338/470/7 340/473/7 339/471/7
f 340/473/41 344/475/41 343/474/41
f 344/475/5 342/477/5 341/476/5
f 342/477/42 338/723/42 337/478/42
f 343/474/40 341/476/40 337/479/40
f 340/481/39 338/724/39 342/477/39
f 345/482/7 346/725/7 348/483/7
f 348/483/43 352/492/43 351/485/43
f 351/485/5 352/492/5 350/486/5
f 350/486/44 346/726/44 345/488/44
f 351/485/45 349/487/45 345/489/45
f 348/491/46 346/727/46 350/486/46
f 353/493/7 354/728/7 356/494/7
f 356/494/47 360/503/47 359/496/47
f 359/496/5 360/503/5 358/497/5
f 358/497/48 354/729/48 353/499/48
f 359/496/49 357/498/49 353/500/49
f 356/502/50 354/730/50 358/497/50
