# Blender v3.1.2 OBJ File: 'SteamStails.blend'
# www.blender.org
mtllib SteamStails.mtl
o 平面
v -2.121320 2.121320 1.000000
v 2.121320 -2.121320 1.000000
v -2.121320 2.121320 -1.000000
v 2.121320 -2.121320 -1.000000
v -1.594690 2.132105 1.000000
v -1.590990 1.590990 1.000000
v -1.064360 1.601775 1.000000
v -1.060660 1.060660 1.000000
v -0.534030 1.071445 1.000000
v -0.530330 0.530330 1.000000
v -0.003700 0.541115 1.000000
v 0.000000 0.000000 1.000000
v 0.526630 0.010785 1.000000
v 0.530330 -0.530330 1.000000
v 1.056960 -0.519546 1.000000
v 1.060660 -1.060660 1.000000
v 1.587291 -1.049875 1.000000
v 1.590990 -1.590990 1.000000
v 2.117620 -1.580206 1.000000
v 2.117620 -1.580206 -1.000000
v 1.590990 -1.590990 -1.000000
v 1.587291 -1.049875 -1.000000
v 1.060660 -1.060660 -1.000000
v 1.056960 -0.519546 -1.000000
v 0.530330 -0.530330 -1.000000
v 0.526630 0.010785 -1.000000
v 0.000000 0.000000 -1.000000
v -0.003700 0.541115 -1.000000
v -0.530330 0.530330 -1.000000
v -0.534030 1.071445 -1.000000
v -1.060660 1.060660 -1.000000
v -1.064360 1.601775 -1.000000
v -1.590990 1.590990 -1.000000
v -1.594690 2.132105 -1.000000
vt 1.000000 0.000000
vt 0.937500 1.000000
vt 0.937500 0.000000
vt 0.062500 0.000000
vt 0.000000 1.000000
vt 0.000000 0.000000
vt 0.125000 0.000000
vt 0.062500 1.000000
vt 0.187500 0.000000
vt 0.125000 1.000000
vt 0.250000 0.000000
vt 0.187500 1.000000
vt 0.312500 0.000000
vt 0.250000 1.000000
vt 0.375000 0.000000
vt 0.312500 1.000000
vt 0.437500 0.000000
vt 0.375000 1.000000
vt 0.500000 0.000000
vt 0.437500 1.000000
vt 0.562500 0.000000
vt 0.500000 1.000000
vt 0.625000 0.000000
vt 0.562500 1.000000
vt 0.687500 0.000000
vt 0.625000 1.000000
vt 0.750000 0.000000
vt 0.687500 1.000000
vt 0.812500 0.000000
vt 0.750000 1.000000
vt 0.875000 0.000000
vt 0.812500 1.000000
vt 0.875000 1.000000
vt 1.000000 1.000000
vn 1.0000 0.0068 0.0000
vn -0.0205 0.9998 0.0000
usemtl None
s off
f 2/1/1 20/2/1 19/3/1
f 5/4/2 3/5/2 1/6/2
f 6/7/1 34/8/1 5/4/1
f 7/9/2 33/10/2 6/7/2
f 8/11/1 32/12/1 7/9/1
f 9/13/2 31/14/2 8/11/2
f 10/15/1 30/16/1 9/13/1
f 11/17/2 29/18/2 10/15/2
f 12/19/1 28/20/1 11/17/1
f 13/21/2 27/22/2 12/19/2
f 14/23/1 26/24/1 13/21/1
f 15/25/2 25/26/2 14/23/2
f 16/27/1 24/28/1 15/25/1
f 17/29/2 23/30/2 16/27/2
f 18/31/1 22/32/1 17/29/1
f 19/3/2 21/33/2 18/31/2
f 2/1/1 4/34/1 20/2/1
f 5/4/2 34/8/2 3/5/2
f 6/7/1 33/10/1 34/8/1
f 7/9/2 32/12/2 33/10/2
f 8/11/1 31/14/1 32/12/1
f 9/13/2 30/16/2 31/14/2
f 10/15/1 29/18/1 30/16/1
f 11/17/2 28/20/2 29/18/2
f 12/19/1 27/22/1 28/20/1
f 13/21/2 26/24/2 27/22/2
f 14/23/1 25/26/1 26/24/1
f 15/25/2 24/28/2 25/26/2
f 16/27/1 23/30/1 24/28/1
f 17/29/2 22/32/2 23/30/2
f 18/31/1 21/33/1 22/32/1
f 19/3/2 20/2/2 21/33/2
o 立方体
v 2.710495 -2.880937 1.119493
v -2.307464 2.137022 1.119493
v 2.710495 -2.880937 0.960573
v -2.307464 2.137022 0.960573
v 3.111645 -2.479787 1.119493
v -1.906314 2.538172 1.119493
v 3.111645 -2.479787 0.960573
v -1.906314 2.538172 0.960573
vt 0.625000 0.000000
vt 0.375000 0.250000
vt 0.375000 0.000000
vt 0.625000 0.250000
vt 0.375000 0.500000
vt 0.625000 0.500000
vt 0.375000 0.750000
vt 0.625000 0.750000
vt 0.375000 1.000000
vt 0.125000 0.750000
vt 0.125000 0.500000
vt 0.875000 0.500000
vt 0.625000 1.000000
vt 0.875000 0.750000
vn -0.7071 -0.7071 0.0000
vn 0.0000 0.0000 -1.0000
vn 0.7071 0.7071 0.0000
vn 0.0000 0.0000 1.0000
vn 0.7071 -0.7071 0.0000
vn -0.7071 0.7071 0.0000
usemtl None
s off
f 36/35/3 37/36/3 35/37/3
f 38/38/4 41/39/4 37/36/4
f 42/40/5 39/41/5 41/39/5
f 40/42/6 35/43/6 39/41/6
f 41/39/7 35/44/7 37/45/7
f 38/46/8 40/42/8 42/40/8
f 36/35/3 38/38/3 37/36/3
f 38/38/4 42/40/4 41/39/4
f 42/40/5 40/42/5 39/41/5
f 40/42/6 36/47/6 35/43/6
f 41/39/7 39/41/7 35/44/7
f 38/46/8 36/48/8 40/42/8
o 立方体.001
v 2.710495 -2.880937 -0.967311
v -2.307464 2.137022 -0.967311
v 2.710495 -2.880937 -1.126231
v -2.307464 2.137022 -1.126231
v 3.111645 -2.479787 -0.967311
v -1.906314 2.538172 -0.967311
v 3.111645 -2.479787 -1.126231
v -1.906314 2.538172 -1.126231
vt 0.625000 0.000000
vt 0.375000 0.250000
vt 0.375000 0.000000
vt 0.625000 0.250000
vt 0.375000 0.500000
vt 0.625000 0.500000
vt 0.375000 0.750000
vt 0.625000 0.750000
vt 0.375000 1.000000
vt 0.125000 0.750000
vt 0.125000 0.500000
vt 0.875000 0.500000
vt 0.625000 1.000000
vt 0.875000 0.750000
vn -0.7071 -0.7071 0.0000
vn -0.0000 0.0000 -1.0000
vn 0.7071 0.7071 0.0000
vn -0.0000 0.0000 1.0000
vn 0.7071 -0.7071 0.0000
vn -0.7071 0.7071 0.0000
usemtl None
s off
f 44/49/9 45/50/9 43/51/9
f 46/52/10 49/53/10 45/50/10
f 50/54/11 47/55/11 49/53/11
f 48/56/12 43/57/12 47/55/12
f 49/53/13 43/58/13 45/59/13
f 46/60/14 48/56/14 50/54/14
f 44/49/9 46/52/9 45/50/9
f 46/52/10 50/54/10 49/53/10
f 50/54/11 48/56/11 47/55/11
f 48/56/12 44/61/12 43/57/12
f 49/53/13 47/55/13 43/58/13
f 46/60/14 44/62/14 48/56/14
o 立方体.002
v -4.118104 1.850791 1.000000
v -4.120770 2.099002 1.000000
v -4.118104 1.850791 -1.000000
v -4.120770 2.099002 -1.000000
v -2.118219 1.872270 1.000000
v -2.120885 2.120480 1.000000
v -2.118219 1.872270 -1.000000
v -2.120885 2.120480 -1.000000
v 2.089297 -2.155549 0.999999
v 2.089297 -2.155549 -1.000001
v 2.123735 -2.123760 0.999999
v 2.123735 -2.123760 -1.000001
vt 0.625000 0.000000
vt 0.375000 0.250000
vt 0.375000 0.000000
vt 0.625000 0.250000
vt 0.375000 0.500000
vt 0.625000 0.500000
vt 0.375000 0.750000
vt 0.625000 0.750000
vt 0.375000 1.000000
vt 0.125000 0.750000
vt 0.125000 0.500000
vt 0.875000 0.500000
vt 0.375000 0.750000
vt 0.375000 0.500000
vt 0.375000 0.750000
vt 0.375000 0.500000
vt 0.000000 0.000000
vt 0.000000 0.000000
vt 0.000000 0.000000
vt 0.000000 0.000000
vt 0.000000 0.000000
vt 0.000000 0.000000
vt 0.625000 1.000000
vt 0.875000 0.750000
vt 0.000000 0.000000
vt 0.000000 0.000000
vn -0.9999 -0.0107 0.0000
vn 0.0000 0.0000 -1.0000
vn 0.9999 0.0107 0.0000
vn 0.0000 0.0000 1.0000
vn 0.0107 -0.9999 0.0000
vn -0.0107 0.9999 0.0000
vn -0.6915 -0.7224 0.0000
vn 0.6783 -0.7348 0.0000
vn 0.7071 0.7071 0.0000
usemtl None
s off
f 52/63/15 53/64/15 51/65/15
f 54/66/16 57/67/16 53/64/16
f 58/68/17 55/69/17 57/67/17
f 56/70/18 51/71/18 55/69/18
f 57/67/19 51/72/19 53/73/19
f 54/74/20 56/70/20 58/68/20
f 57/67/21 59/75/21 55/69/21
f 60/76/22 61/77/22 59/75/22
f 58/68/23 61/77/23 62/78/23
f 61/79/18 55/80/18 59/81/18
f 62/82/16 57/83/16 58/84/16
f 52/63/15 54/66/15 53/64/15
f 54/66/16 58/68/16 57/67/16
f 58/68/17 56/70/17 55/69/17
f 56/70/18 52/85/18 51/71/18
f 57/67/19 55/69/19 51/72/19
f 54/74/20 52/86/20 56/70/20
f 57/67/21 60/76/21 59/75/21
f 60/76/22 62/78/22 61/77/22
f 58/68/23 56/70/23 61/77/23
f 61/79/18 56/87/18 55/80/18
f 62/82/16 60/88/16 57/83/16
