# Blender v3.1.2 OBJ File: 'SteamPipeRing.blend'
# www.blender.org
mtllib SteamPipeRing.mtl
o 円柱
v -0.273490 0.509126 -0.660264
v -0.660264 0.509126 0.273490
v 0.273490 0.509126 0.660264
v 0.660264 0.509126 -0.273490
v -0.714664 0.509126 -0.000000
v -0.700932 0.509126 0.139424
v -0.700932 0.509126 -0.139424
v -0.594222 0.509126 0.397046
v -0.594222 0.509126 -0.397046
v -0.660264 0.509126 -0.273490
v -0.505344 0.509126 -0.505344
v -0.273490 0.509126 0.660264
v -0.397046 0.509126 0.594222
v -0.397046 0.509126 -0.594222
v -0.139424 0.509126 -0.700932
v 0.139424 0.509126 -0.700932
v 0.000000 0.509126 -0.714664
v -0.505344 0.509126 0.505344
v -0.139424 0.509126 0.700932
v 0.139424 0.509126 0.700932
v -0.000000 0.509126 0.714664
v 0.397046 0.509126 -0.594222
v 0.397046 0.509126 0.594222
v 0.273490 0.509126 -0.660264
v 0.594222 0.509126 -0.397046
v 0.594222 0.509126 0.397046
v 0.505344 0.509126 -0.505344
v 0.714664 0.509126 0.000000
v 0.700932 0.509126 -0.139424
v 0.660264 0.509126 0.273490
v 0.700932 0.509126 0.139424
v 0.505344 0.509126 0.505344
v 0.397046 -0.509126 -0.594222
v 0.594222 -0.509126 0.397046
v -0.397046 -0.509126 0.594222
v -0.594222 -0.509126 -0.397046
v 0.000000 -0.509126 -0.714664
v 0.139424 -0.509126 -0.700932
v 0.397046 -0.509126 0.594222
v 0.273490 -0.509126 0.660264
v 0.273490 -0.509126 -0.660264
v 0.594222 -0.509126 -0.397046
v 0.714664 -0.509126 0.000000
v 0.700932 -0.509126 -0.139424
v 0.660264 -0.509126 0.273490
v 0.700932 -0.509126 0.139424
v 0.660264 -0.509126 -0.273490
v 0.505344 -0.509126 -0.505344
v 0.505344 -0.509126 0.505344
v -0.714664 -0.509126 -0.000000
v -0.660264 -0.509126 0.273490
v -0.700932 -0.509126 0.139424
v -0.700932 -0.509126 -0.139424
v -0.505344 -0.509126 -0.505344
v -0.594222 -0.509126 0.397046
v -0.505344 -0.509126 0.505344
v -0.660264 -0.509126 -0.273490
v -0.273490 -0.509126 -0.660264
v -0.397046 -0.509126 -0.594222
v -0.139424 -0.509126 0.700932
v 0.139424 -0.509126 0.700932
v -0.000000 -0.509126 0.714664
v -0.273490 -0.509126 0.660264
v -0.139424 -0.509126 -0.700932
v -0.000000 0.509126 -0.908226
v 0.000000 0.462627 -1.000000
v 0.177186 0.509126 -0.890775
v 0.195090 0.462627 -0.980785
v 0.347563 0.509126 -0.839091
v 0.382683 0.462627 -0.923880
v 0.504583 0.509126 -0.755162
v 0.555570 0.462627 -0.831470
v 0.642213 0.509126 -0.642213
v 0.707107 0.462627 -0.707107
v 0.755162 0.509126 -0.504583
v 0.831470 0.462627 -0.555570
v 0.839091 0.509126 -0.347563
v 0.923880 0.462627 -0.382683
v 0.890775 0.509126 -0.177186
v 0.980785 0.462627 -0.195090
v 0.908226 0.509126 0.000000
v 1.000000 0.462627 0.000000
v 0.890775 0.509126 0.177186
v 0.980785 0.462627 0.195090
v 0.839091 0.509126 0.347563
v 0.923880 0.462627 0.382683
v 0.755162 0.509126 0.504583
v 0.831470 0.462627 0.555570
v 0.642213 0.509126 0.642213
v 0.707107 0.462627 0.707107
v 0.504583 0.509126 0.755162
v 0.555570 0.462627 0.831470
v 0.347563 0.509126 0.839091
v 0.382683 0.462627 0.923880
v 0.177186 0.509126 0.890775
v 0.195090 0.462627 0.980785
v -0.000000 0.509126 0.908226
v -0.000000 0.462627 1.000000
v -0.177186 0.509126 0.890775
v -0.195090 0.462627 0.980785
v -0.347563 0.509126 0.839091
v -0.382683 0.462627 0.923880
v -0.504583 0.509126 0.755162
v -0.555570 0.462627 0.831470
v -0.642213 0.509126 0.642213
v -0.707107 0.462627 0.707107
v -0.755162 0.509126 0.504584
v -0.831469 0.462627 0.555570
v -0.839091 0.509126 0.347563
v -0.923880 0.462627 0.382684
v -0.890775 0.509126 0.177186
v -0.980785 0.462627 0.195090
v -0.908226 0.509126 -0.000000
v -1.000000 0.462627 -0.000000
v -0.890775 0.509126 -0.177186
v -0.980785 0.462627 -0.195090
v -0.839091 0.509126 -0.347563
v -0.923879 0.462627 -0.382684
v -0.755162 0.509126 -0.504583
v -0.831470 0.462627 -0.555570
v -0.642213 0.509126 -0.642213
v -0.707107 0.462627 -0.707107
v -0.504583 0.509126 -0.755162
v -0.555570 0.462627 -0.831470
v -0.347563 0.509126 -0.839091
v -0.382683 0.462627 -0.923880
v -0.177186 0.509126 -0.890775
v -0.195090 0.462627 -0.980785
v -0.000000 -0.509126 -0.926652
v 0.000000 -0.471962 -1.000000
v 0.195090 -0.471962 -0.980785
v 0.180781 -0.509126 -0.908846
v 0.382683 -0.471962 -0.923880
v 0.354614 -0.509126 -0.856114
v 0.555570 -0.471962 -0.831470
v 0.514820 -0.509126 -0.770483
v 0.707107 -0.471962 -0.707107
v 0.655242 -0.509126 -0.655242
v 0.831470 -0.471962 -0.555570
v 0.770483 -0.509126 -0.514820
v 0.923880 -0.471962 -0.382683
v 0.856114 -0.509126 -0.354614
v 0.980785 -0.471962 -0.195090
v 0.908846 -0.509126 -0.180781
v 1.000000 -0.471962 0.000000
v 0.926652 -0.509126 0.000000
v 0.980785 -0.471962 0.195090
v 0.908846 -0.509126 0.180781
v 0.923880 -0.471962 0.382683
v 0.856114 -0.509126 0.354614
v 0.831470 -0.471962 0.555570
v 0.770483 -0.509126 0.514820
v 0.707107 -0.471962 0.707107
v 0.655242 -0.509126 0.655242
v 0.555570 -0.471962 0.831470
v 0.514820 -0.509126 0.770483
v 0.382683 -0.471962 0.923880
v 0.354614 -0.509126 0.856114
v 0.195090 -0.471962 0.980785
v 0.180781 -0.509126 0.908846
v -0.000000 -0.471962 1.000000
v -0.000000 -0.509126 0.926652
v -0.195090 -0.471962 0.980785
v -0.180781 -0.509126 0.908846
v -0.382683 -0.471962 0.923880
v -0.354614 -0.509126 0.856114
v -0.555570 -0.471962 0.831470
v -0.514820 -0.509126 0.770483
v -0.707107 -0.471962 0.707107
v -0.655242 -0.509126 0.655242
v -0.831469 -0.471962 0.555570
v -0.770483 -0.509126 0.514820
v -0.923880 -0.471962 0.382684
v -0.856114 -0.509126 0.354614
v -0.980785 -0.471962 0.195090
v -0.908846 -0.509126 0.180781
v -1.000000 -0.471962 -0.000000
v -0.926652 -0.509126 -0.000000
v -0.980785 -0.471962 -0.195090
v -0.908846 -0.509126 -0.180781
v -0.923879 -0.471962 -0.382684
v -0.856114 -0.509126 -0.354614
v -0.831470 -0.471962 -0.555570
v -0.770483 -0.509126 -0.514820
v -0.707107 -0.471962 -0.707107
v -0.655242 -0.509126 -0.655241
v -0.555570 -0.471962 -0.831470
v -0.514820 -0.509126 -0.770483
v -0.382683 -0.471962 -0.923880
v -0.354614 -0.509126 -0.856114
v -0.195090 -0.471962 -0.980785
v -0.180781 -0.509126 -0.908846
vt 0.048618 0.166585
vt 0.091537 0.184362
vt 0.081776 0.216538
vt 0.906250 0.977167
vt 0.875000 0.518249
vt 0.906250 0.518249
vt 0.451382 0.333415
vt 0.408463 0.315638
vt 0.418224 0.283462
vt 0.843750 0.977167
vt 0.812500 0.518249
vt 0.843750 0.518249
vt 0.812500 0.977167
vt 0.781250 0.518249
vt 0.793387 0.031877
vt 0.750000 0.078481
vt 0.783462 0.081776
vt 0.750000 0.977167
vt 0.718750 0.518249
vt 0.750000 0.518249
vt 0.718750 0.977167
vt 0.687500 0.518249
vt 0.687500 0.977167
vt 0.656250 0.518249
vt 0.656250 0.977167
vt 0.625000 0.518249
vt 0.625000 0.977167
vt 0.593750 0.518249
vt 0.593750 0.977167
vt 0.562500 0.518249
vt 0.562500 0.977167
vt 0.531250 0.518249
vt 0.531250 0.977167
vt 0.500000 0.518249
vt 0.500000 0.977167
vt 0.468750 0.518249
vt 0.468750 0.977167
vt 0.437500 0.518249
vt 0.437500 0.977167
vt 0.406250 0.518249
vt 0.406250 0.977167
vt 0.375000 0.518249
vt 0.375000 0.977167
vt 0.343750 0.518249
vt 0.343750 0.977167
vt 0.312500 0.518249
vt 0.312500 0.977167
vt 0.281250 0.518249
vt 0.281250 0.977167
vt 0.250000 0.518249
vt 0.250000 0.977167
vt 0.218750 0.518249
vt 0.218750 0.977167
vt 0.187500 0.518249
vt 0.187500 0.977167
vt 0.156250 0.518249
vt 0.156250 0.977167
vt 0.125000 0.518249
vt 0.125000 0.977167
vt 0.093750 0.518249
vt 0.093750 0.977167
vt 0.062500 0.518249
vt 0.093750 0.518249
vt 0.062500 0.977167
vt 0.031250 0.518249
vt 0.937500 0.977167
vt 0.937500 0.518249
vt 0.875000 0.977167
vt 0.968750 0.977167
vt 0.968750 0.518249
vt 0.781250 0.977167
vt 0.031250 0.977167
vt 0.000000 0.518249
vt 0.968750 0.853739
vt 1.000000 0.646261
vt 0.968750 0.646261
vt 0.937500 0.853739
vt 0.937500 0.646261
vt 0.906250 0.853739
vt 0.906250 0.646261
vt 0.875000 0.853739
vt 0.906250 0.646261
vt 0.875000 0.646261
vt 0.843750 0.646261
vt 0.843750 0.853739
vt 0.812500 0.646261
vt 0.812500 0.853739
vt 0.781250 0.646261
vt 0.781250 0.853739
vt 0.750000 0.646261
vt 0.750000 0.853739
vt 0.718750 0.646261
vt 0.718750 0.853739
vt 0.687500 0.646261
vt 0.687500 0.853739
vt 0.656250 0.646261
vt 0.656250 0.853739
vt 0.625000 0.646261
vt 0.625000 0.853739
vt 0.593750 0.646261
vt 0.593750 0.853739
vt 0.562500 0.646261
vt 0.562500 0.853739
vt 0.531250 0.646261
vt 0.531250 0.853739
vt 0.500000 0.646261
vt 0.500000 0.853739
vt 0.468750 0.646261
vt 0.468750 0.853739
vt 0.437500 0.646261
vt 0.437500 0.853739
vt 0.406250 0.646261
vt 0.406250 0.853739
vt 0.375000 0.646261
vt 0.375000 0.853739
vt 0.343750 0.853739
vt 0.343750 0.646261
vt 0.312500 0.853739
vt 0.312500 0.646261
vt 0.281250 0.853739
vt 0.281250 0.646261
vt 0.250000 0.853739
vt 0.250000 0.646261
vt 0.218750 0.853739
vt 0.218750 0.646261
vt 0.187500 0.853739
vt 0.187500 0.646261
vt 0.156250 0.853739
vt 0.156250 0.646261
vt 0.125000 0.853739
vt 0.125000 0.646261
vt 0.093750 0.853739
vt 0.093750 0.646261
vt 0.062500 0.853739
vt 0.062500 0.646261
vt 0.031250 0.853739
vt 0.031250 0.646261
vt 0.000000 0.853739
vt 0.000000 0.646261
vt 0.032684 1.000000
vt 0.061066 1.000000
vt 0.998566 1.000000
vt 1.000000 0.977167
vt 0.967316 1.000000
vt 0.907684 1.000000
vt 0.936066 1.000000
vt 0.876434 1.000000
vt 0.904816 1.000000
vt 0.845184 1.000000
vt 0.873566 1.000000
vt 0.813934 1.000000
vt 0.842316 1.000000
vt 0.782684 1.000000
vt 0.811066 1.000000
vt 0.751434 1.000000
vt 0.779816 1.000000
vt 0.748566 1.000000
vt 0.717316 1.000000
vt 0.686066 1.000000
vt 0.654816 1.000000
vt 0.595184 1.000000
vt 0.623566 1.000000
vt 0.563934 1.000000
vt 0.592316 1.000000
vt 0.532684 1.000000
vt 0.561066 1.000000
vt 0.501434 1.000000
vt 0.529816 1.000000
vt 0.470184 1.000000
vt 0.498566 1.000000
vt 0.467316 1.000000
vt 0.436066 1.000000
vt 0.404816 1.000000
vt 0.345184 1.000000
vt 0.373566 1.000000
vt 0.313934 1.000000
vt 0.342316 1.000000
vt 0.282684 1.000000
vt 0.311066 1.000000
vt 0.251434 1.000000
vt 0.279816 1.000000
vt 0.248566 1.000000
vt 0.217316 1.000000
vt 0.157684 1.000000
vt 0.186066 1.000000
vt 0.126434 1.000000
vt 0.154816 1.000000
vt 0.123566 1.000000
vt 0.092316 1.000000
vt 0.001434 1.000000
vt 0.000000 0.977167
vt 1.000000 0.518249
vt 0.998854 0.500000
vt 0.967604 0.500000
vt 0.907396 0.500000
vt 0.936354 0.500000
vt 0.876146 0.500000
vt 0.905104 0.500000
vt 0.873854 0.500000
vt 0.842604 0.500000
vt 0.782396 0.500000
vt 0.811354 0.500000
vt 0.780104 0.500000
vt 0.748854 0.500000
vt 0.717604 0.500000
vt 0.657396 0.500000
vt 0.686354 0.500000
vt 0.626146 0.500000
vt 0.655104 0.500000
vt 0.623854 0.500000
vt 0.592604 0.500000
vt 0.532396 0.500000
vt 0.561354 0.500000
vt 0.530104 0.500000
vt 0.469896 0.500000
vt 0.498854 0.500000
vt 0.467604 0.500000
vt 0.436354 0.500000
vt 0.376146 0.500000
vt 0.405104 0.500000
vt 0.373854 0.500000
vt 0.342604 0.500000
vt 0.311354 0.500000
vt 0.280104 0.500000
vt 0.219896 0.500000
vt 0.248854 0.500000
vt 0.217604 0.500000
vt 0.186354 0.500000
vt 0.126146 0.500000
vt 0.155104 0.500000
vt 0.123854 0.500000
vt 0.092604 0.500000
vt 0.061354 0.500000
vt 0.030104 0.500000
vt 0.001146 0.500000
vt 0.706613 0.468123
vt 0.750000 0.421519
vt 0.716538 0.418224
vt 0.283462 0.418224
vt 0.315638 0.408463
vt 0.333415 0.451382
vt 0.292525 0.463786
vt 0.250000 0.467974
vt 0.250000 0.421520
vt 0.207475 0.463786
vt 0.216538 0.418224
vt 0.166585 0.451382
vt 0.128900 0.431239
vt 0.154709 0.392613
vt 0.095869 0.404131
vt 0.128717 0.371283
vt 0.068761 0.371100
vt 0.048618 0.333415
vt 0.107387 0.345291
vt 0.036214 0.292525
vt 0.081776 0.283462
vt 0.032026 0.250000
vt 0.036214 0.207475
vt 0.078481 0.250000
vt 0.068761 0.128900
vt 0.107387 0.154709
vt 0.095869 0.095869
vt 0.128717 0.128717
vt 0.128900 0.068761
vt 0.166585 0.048618
vt 0.154709 0.107387
vt 0.207475 0.036214
vt 0.216538 0.081776
vt 0.250000 0.032026
vt 0.250000 0.078481
vt 0.292525 0.036214
vt 0.283462 0.081776
vt 0.333415 0.048618
vt 0.371100 0.068761
vt 0.345291 0.107387
vt 0.404131 0.095869
vt 0.371283 0.128717
vt 0.431239 0.128900
vt 0.451382 0.166585
vt 0.392613 0.154709
vt 0.408463 0.184362
vt 0.184362 0.408463
vt 0.315638 0.091537
vt 0.184362 0.091537
vt 0.091537 0.315638
vt 0.418224 0.216538
vt 0.463786 0.207475
vt 0.467974 0.250000
vt 0.421519 0.250000
vt 0.463786 0.292525
vt 0.431239 0.371100
vt 0.392613 0.345291
vt 0.404131 0.404131
vt 0.371283 0.371283
vt 0.371100 0.431239
vt 0.345291 0.392613
vt 0.921519 0.250000
vt 0.918224 0.283462
vt 0.968123 0.293387
vt 0.972396 0.250000
vt 0.968123 0.206613
vt 0.918224 0.216538
vt 0.955467 0.164893
vt 0.908464 0.184362
vt 0.934916 0.126443
vt 0.907258 0.092742
vt 0.892613 0.154709
vt 0.873557 0.065084
vt 0.871283 0.128717
vt 0.835108 0.044533
vt 0.845291 0.107387
vt 0.815638 0.091537
vt 0.750000 0.027604
vt 0.706613 0.031877
vt 0.716538 0.081776
vt 0.664893 0.044533
vt 0.684362 0.091537
vt 0.626443 0.065084
vt 0.592742 0.092742
vt 0.628718 0.128717
vt 0.565084 0.126443
vt 0.607387 0.154709
vt 0.544533 0.164893
vt 0.531877 0.206613
vt 0.591537 0.184362
vt 0.581776 0.216538
vt 0.654709 0.107387
vt 1.000000 0.853739
vt 0.906250 0.853739
vt 0.970184 1.000000
vt 0.938934 1.000000
vt 0.720184 1.000000
vt 0.688934 1.000000
vt 0.657684 1.000000
vt 0.626434 1.000000
vt 0.438934 1.000000
vt 0.407684 1.000000
vt 0.376434 1.000000
vt 0.220184 1.000000
vt 0.188934 1.000000
vt 0.095184 1.000000
vt 0.063934 1.000000
vt 0.029816 1.000000
vt 0.969896 0.500000
vt 0.938646 0.500000
vt 0.844896 0.500000
vt 0.813646 0.500000
vt 0.751146 0.500000
vt 0.719896 0.500000
vt 0.688646 0.500000
vt 0.594896 0.500000
vt 0.563646 0.500000
vt 0.501146 0.500000
vt 0.438646 0.500000
vt 0.407396 0.500000
vt 0.344896 0.500000
vt 0.313646 0.500000
vt 0.282396 0.500000
vt 0.251146 0.500000
vt 0.188646 0.500000
vt 0.157396 0.500000
vt 0.094896 0.500000
vt 0.063646 0.500000
vt 0.032396 0.500000
vt 0.578481 0.250000
vt 0.527604 0.250000
vt 0.531877 0.293387
vt 0.581776 0.283462
vt 0.544533 0.335107
vt 0.591537 0.315638
vt 0.565084 0.373557
vt 0.592742 0.407258
vt 0.607387 0.345291
vt 0.626444 0.434916
vt 0.628717 0.371283
vt 0.664893 0.455467
vt 0.654709 0.392613
vt 0.684362 0.408463
vt 0.750000 0.472396
vt 0.793388 0.468123
vt 0.783462 0.418224
vt 0.835107 0.455467
vt 0.815638 0.408463
vt 0.873557 0.434916
vt 0.907258 0.407258
vt 0.871283 0.371283
vt 0.934916 0.373557
vt 0.892613 0.345291
vt 0.955468 0.335108
vt 0.908463 0.315638
vt 0.845291 0.392613
vn 0.0000 1.0000 -0.0000
vn 0.6344 0.0000 -0.7730
vn 0.8819 0.0000 -0.4714
vn 0.9569 0.0000 -0.2903
vn 0.0000 -1.0000 0.0000
vn 0.9952 0.0000 0.0980
vn 0.9569 0.0000 0.2903
vn 0.8819 0.0000 0.4714
vn 0.7730 0.0000 0.6344
vn 0.6344 0.0000 0.7730
vn 0.4714 0.0000 0.8819
vn 0.2903 0.0000 0.9569
vn 0.0980 0.0000 0.9952
vn -0.0980 0.0000 0.9952
vn -0.2903 0.0000 0.9569
vn -0.4714 0.0000 0.8819
vn -0.6344 0.0000 0.7730
vn -0.7730 0.0000 0.6344
vn -0.8819 0.0000 0.4714
vn -0.9569 0.0000 0.2903
vn -0.9952 0.0000 0.0980
vn -0.9952 0.0000 -0.0980
vn -0.9569 0.0000 -0.2903
vn -0.8819 0.0000 -0.4714
vn -0.7730 0.0000 -0.6344
vn -0.6344 0.0000 -0.7730
vn -0.4714 0.0000 -0.8819
vn -0.2903 0.0000 -0.9569
vn 0.4714 0.0000 -0.8819
vn 0.7730 0.0000 -0.6344
vn 0.2903 0.0000 -0.9569
vn 0.9952 0.0000 -0.0980
vn -0.0980 0.0000 -0.9952
vn 0.0980 0.0000 -0.9952
vn -0.1317 0.8912 -0.4342
vn 0.0445 0.8912 -0.4515
vn 0.1317 0.8912 -0.4342
vn 0.2139 0.8912 -0.4001
vn 0.2878 0.8912 -0.3507
vn 0.3507 0.8912 -0.2878
vn 0.4001 0.8912 -0.2139
vn 0.4342 0.8911 -0.1317
vn 0.4515 0.8912 -0.0445
vn 0.4515 0.8912 0.0445
vn 0.4342 0.8912 0.1317
vn 0.4001 0.8912 0.2139
vn 0.3507 0.8912 0.2878
vn 0.2878 0.8912 0.3507
vn 0.2139 0.8912 0.4001
vn 0.1317 0.8912 0.4342
vn 0.0445 0.8912 0.4515
vn -0.0445 0.8912 0.4515
vn -0.1317 0.8912 0.4342
vn -0.2139 0.8912 0.4001
vn -0.2878 0.8912 0.3507
vn -0.3507 0.8912 0.2878
vn -0.4001 0.8912 0.2139
vn -0.4342 0.8912 0.1317
vn -0.4515 0.8912 0.0445
vn -0.4515 0.8912 -0.0445
vn -0.4342 0.8912 -0.1317
vn -0.4001 0.8912 -0.2139
vn -0.3507 0.8912 -0.2878
vn -0.2878 0.8912 -0.3507
vn -0.2139 0.8912 -0.4001
vn -0.0445 0.8912 -0.4515
vn 0.0445 -0.8912 -0.4515
vn 0.1317 -0.8912 -0.4342
vn 0.2139 -0.8912 -0.4001
vn 0.2878 -0.8912 -0.3507
vn 0.3507 -0.8912 -0.2878
vn 0.4001 -0.8912 -0.2139
vn 0.4342 -0.8912 -0.1317
vn 0.4515 -0.8911 -0.0445
vn 0.4515 -0.8912 0.0445
vn 0.4342 -0.8912 0.1317
vn 0.4001 -0.8912 0.2139
vn 0.3507 -0.8912 0.2878
vn 0.2878 -0.8912 0.3507
vn 0.2139 -0.8912 0.4001
vn 0.1317 -0.8912 0.4342
vn 0.0445 -0.8912 0.4515
vn -0.0445 -0.8912 0.4515
vn -0.1317 -0.8912 0.4342
vn -0.2139 -0.8912 0.4001
vn -0.2878 -0.8912 0.3507
vn -0.3507 -0.8912 0.2878
vn -0.4001 -0.8912 0.2139
vn -0.4342 -0.8912 0.1317
vn -0.4515 -0.8912 0.0445
vn -0.4515 -0.8912 -0.0445
vn -0.4342 -0.8912 -0.1317
vn -0.4001 -0.8912 -0.2139
vn -0.3507 -0.8912 -0.2878
vn -0.2878 -0.8912 -0.3507
vn -0.2139 -0.8912 -0.4001
vn -0.1317 -0.8912 -0.4342
vn -0.0445 -0.8912 -0.4515
vn 0.4342 0.8912 -0.1317
vn 0.4515 -0.8912 -0.0445
vn 0.4342 -0.8911 0.1317
vn -0.1317 -0.8911 -0.4342
usemtl None
s off
f 109/1/1 2/2/1 6/3/1
f 72/4/2 137/5/2 135/6/2
f 77/7/1 4/8/1 29/9/1
f 76/10/3 141/11/3 139/12/3
f 78/13/4 143/14/4 141/11/4
f 160/15/5 62/16/5 61/17/5
f 82/18/6 147/19/6 145/20/6
f 84/21/7 149/22/7 147/19/7
f 86/23/8 151/24/8 149/22/8
f 88/25/9 153/26/9 151/24/9
f 90/27/10 155/28/10 153/26/10
f 92/29/11 157/30/11 155/28/11
f 94/31/12 159/32/12 157/30/12
f 96/33/13 161/34/13 159/32/13
f 98/35/14 163/36/14 161/34/14
f 100/37/15 165/38/15 163/36/15
f 102/39/16 167/40/16 165/38/16
f 104/41/17 169/42/17 167/40/17
f 106/43/18 171/44/18 169/42/18
f 108/45/19 173/46/19 171/44/19
f 110/47/20 175/48/20 173/46/20
f 112/49/21 177/50/21 175/48/21
f 114/51/22 179/52/22 177/50/22
f 116/53/23 181/54/23 179/52/23
f 118/55/24 183/56/24 181/54/24
f 120/57/25 185/58/25 183/56/25
f 122/59/26 187/60/26 185/58/26
f 124/61/27 189/62/27 187/63/27
f 126/64/28 191/65/28 189/62/28
f 70/66/29 135/6/29 133/67/29
f 74/68/30 139/12/30 137/5/30
f 68/69/31 133/67/31 131/70/31
f 80/71/32 145/20/32 143/14/32
f 128/72/33 130/73/33 191/65/33
f 16/74/14 37/75/14 38/76/14
f 24/77/15 38/76/15 41/78/15
f 22/79/16 41/78/16 33/80/16
f 27/81/17 33/82/17 48/83/17
f 27/81/18 42/84/18 25/85/18
f 25/85/19 47/86/19 4/87/19
f 4/87/20 44/88/20 29/89/20
f 29/89/21 43/90/21 28/91/21
f 28/91/22 46/92/22 31/93/22
f 31/93/23 45/94/23 30/95/23
f 30/95/24 34/96/24 26/97/24
f 26/97/25 49/98/25 32/99/25
f 32/99/26 39/100/26 23/101/26
f 23/101/27 40/102/27 3/103/27
f 3/103/28 61/104/28 20/105/28
f 20/105/33 62/106/33 21/107/33
f 21/107/34 60/108/34 19/109/34
f 19/109/31 63/110/31 12/111/31
f 12/111/29 35/112/29 13/113/29
f 13/113/2 56/114/2 18/115/2
f 8/116/30 56/114/30 55/117/30
f 2/118/3 55/117/3 51/119/3
f 6/120/4 51/119/4 52/121/4
f 5/122/32 52/121/32 50/123/32
f 7/124/6 50/123/6 53/125/6
f 10/126/7 53/125/7 57/127/7
f 9/128/8 57/127/8 36/129/8
f 11/130/9 36/129/9 54/131/9
f 14/132/10 54/131/10 59/133/10
f 1/134/11 59/133/11 58/135/11
f 15/136/12 58/135/12 64/137/12
f 17/138/13 64/137/13 37/139/13
f 127/140/35 126/64/35 125/141/35
f 65/142/36 68/69/36 66/143/36
f 67/144/37 70/66/37 68/69/37
f 71/145/38 70/66/38 69/146/38
f 73/147/39 72/4/39 71/148/39
f 75/149/40 74/68/40 73/150/40
f 77/151/41 76/10/41 75/152/41
f 79/153/42 78/13/42 77/154/42
f 81/155/43 80/71/43 79/156/43
f 81/157/44 84/21/44 82/18/44
f 83/158/45 86/23/45 84/21/45
f 85/159/46 88/25/46 86/23/46
f 87/160/47 90/27/47 88/25/47
f 91/161/48 90/27/48 89/162/48
f 93/163/49 92/29/49 91/164/49
f 95/165/50 94/31/50 93/166/50
f 97/167/51 96/33/51 95/168/51
f 99/169/52 98/35/52 97/170/52
f 99/171/53 102/39/53 100/37/53
f 101/172/54 104/41/54 102/39/54
f 103/173/55 106/43/55 104/41/55
f 107/174/56 106/43/56 105/175/56
f 109/176/57 108/45/57 107/177/57
f 111/178/58 110/47/58 109/179/58
f 113/180/59 112/49/59 111/181/59
f 113/182/60 116/53/60 114/51/60
f 115/183/61 118/55/61 116/53/61
f 119/184/62 118/55/62 117/185/62
f 121/186/63 120/57/63 119/187/63
f 121/188/64 124/61/64 122/59/64
f 123/189/65 126/64/65 124/61/65
f 128/72/66 65/190/66 66/191/66
f 66/143/34 131/70/34 130/192/34
f 131/70/67 129/193/67 130/192/67
f 133/67/68 132/194/68 131/70/68
f 133/67/69 136/195/69 134/196/69
f 135/6/70 138/197/70 136/198/70
f 139/12/71 138/199/71 137/5/71
f 141/11/72 140/200/72 139/12/72
f 141/11/73 144/201/73 142/202/73
f 145/20/74 144/203/74 143/14/74
f 147/19/75 146/204/75 145/20/75
f 149/22/76 148/205/76 147/19/76
f 149/22/77 152/206/77 150/207/77
f 151/24/78 154/208/78 152/209/78
f 155/28/79 154/210/79 153/26/79
f 157/30/80 156/211/80 155/28/80
f 157/30/81 160/212/81 158/213/81
f 161/34/82 160/214/82 159/32/82
f 161/34/83 164/215/83 162/216/83
f 165/38/84 164/217/84 163/36/84
f 167/40/85 166/218/85 165/38/85
f 167/40/86 170/219/86 168/220/86
f 171/44/87 170/221/87 169/42/87
f 173/46/88 172/222/88 171/44/88
f 175/48/89 174/223/89 173/46/89
f 177/50/90 176/224/90 175/48/90
f 177/50/91 180/225/91 178/226/91
f 181/54/92 180/227/92 179/52/92
f 183/56/93 182/228/93 181/54/93
f 183/56/94 186/229/94 184/230/94
f 187/60/95 186/231/95 185/58/95
f 189/62/96 188/232/96 187/63/96
f 191/65/97 190/233/97 189/62/97
f 192/234/98 130/73/98 129/235/98
f 192/236/5 37/237/5 64/238/5
f 16/239/1 24/240/1 69/241/1
f 69/241/1 67/242/1 16/239/1
f 67/242/1 65/243/1 17/244/1
f 65/243/1 127/245/1 15/246/1
f 127/245/1 125/247/1 15/246/1
f 125/247/1 123/248/1 14/249/1
f 123/248/1 121/250/1 11/251/1
f 121/250/1 119/252/1 11/251/1
f 119/252/1 117/253/1 9/254/1
f 11/251/1 119/252/1 9/254/1
f 117/253/1 115/255/1 7/256/1
f 115/255/1 113/257/1 7/256/1
f 113/257/1 111/258/1 5/259/1
f 111/258/1 109/1/1 6/3/1
f 5/259/1 111/258/1 6/3/1
f 109/1/1 107/260/1 8/261/1
f 107/260/1 105/262/1 18/263/1
f 105/262/1 103/264/1 18/263/1
f 103/264/1 101/265/1 13/266/1
f 18/263/1 103/264/1 13/266/1
f 101/265/1 99/267/1 19/268/1
f 99/267/1 97/269/1 21/270/1
f 97/269/1 95/271/1 20/272/1
f 95/271/1 93/273/1 20/272/1
f 93/273/1 91/274/1 23/275/1
f 91/274/1 89/276/1 32/277/1
f 89/276/1 87/278/1 32/277/1
f 87/278/1 85/279/1 26/280/1
f 32/277/1 87/278/1 26/280/1
f 85/279/1 30/281/1 26/280/1
f 91/274/1 32/277/1 23/275/1
f 99/267/1 21/270/1 19/268/1
f 107/260/1 18/263/1 8/261/1
f 7/256/1 113/257/1 5/259/1
f 123/248/1 11/251/1 14/249/1
f 67/242/1 17/244/1 16/239/1
f 15/246/1 17/244/1 65/243/1
f 1/282/1 15/246/1 125/247/1
f 93/273/1 23/275/1 3/283/1
f 93/273/1 3/283/1 20/272/1
f 14/249/1 1/282/1 125/247/1
f 97/269/1 20/272/1 21/270/1
f 101/265/1 19/268/1 12/284/1
f 10/285/1 9/254/1 117/253/1
f 7/256/1 10/285/1 117/253/1
f 101/265/1 12/284/1 13/266/1
f 109/1/1 8/261/1 2/2/1
f 72/4/2 74/68/2 137/5/2
f 31/286/1 30/281/1 85/279/1
f 85/279/1 83/287/1 31/286/1
f 83/287/1 81/288/1 28/289/1
f 81/288/1 79/290/1 29/9/1
f 79/290/1 77/7/1 29/9/1
f 77/7/1 75/291/1 25/292/1
f 75/291/1 73/293/1 27/294/1
f 73/293/1 71/295/1 27/294/1
f 71/295/1 69/241/1 22/296/1
f 27/294/1 71/295/1 22/296/1
f 69/241/1 24/240/1 22/296/1
f 75/291/1 27/294/1 25/292/1
f 83/287/1 28/289/1 31/286/1
f 29/9/1 28/289/1 81/288/1
f 77/7/1 25/292/1 4/8/1
f 76/10/3 78/13/3 141/11/3
f 78/13/4 80/71/4 143/14/4
f 43/297/5 44/298/5 144/299/5
f 144/299/5 146/300/5 43/297/5
f 146/300/5 148/301/5 46/302/5
f 148/301/5 150/303/5 45/304/5
f 150/303/5 152/305/5 45/304/5
f 152/305/5 154/306/5 34/307/5
f 154/306/5 156/308/5 49/309/5
f 34/307/5 154/306/5 49/309/5
f 156/308/5 158/310/5 39/311/5
f 158/310/5 160/15/5 40/312/5
f 39/311/5 158/310/5 40/312/5
f 160/15/5 162/313/5 62/16/5
f 162/313/5 164/314/5 60/315/5
f 164/314/5 166/316/5 63/317/5
f 166/316/5 168/318/5 63/317/5
f 168/318/5 170/319/5 56/320/5
f 170/319/5 172/321/5 55/322/5
f 172/321/5 174/323/5 55/322/5
f 174/323/5 176/324/5 51/325/5
f 55/322/5 174/323/5 51/325/5
f 176/324/5 52/326/5 51/325/5
f 170/319/5 55/322/5 56/320/5
f 162/313/5 60/315/5 62/16/5
f 146/300/5 46/302/5 43/297/5
f 45/304/5 46/302/5 148/301/5
f 34/307/5 45/304/5 152/305/5
f 168/318/5 56/320/5 35/327/5
f 168/318/5 35/327/5 63/317/5
f 49/309/5 156/308/5 39/311/5
f 164/314/5 63/317/5 60/315/5
f 61/17/5 40/312/5 160/15/5
f 82/18/6 84/21/6 147/19/6
f 84/21/7 86/23/7 149/22/7
f 86/23/8 88/25/8 151/24/8
f 88/25/9 90/27/9 153/26/9
f 90/27/10 92/29/10 155/28/10
f 92/29/11 94/31/11 157/30/11
f 94/31/12 96/33/12 159/32/12
f 96/33/13 98/35/13 161/34/13
f 98/35/14 100/37/14 163/36/14
f 100/37/15 102/39/15 165/38/15
f 102/39/16 104/41/16 167/40/16
f 104/41/17 106/43/17 169/42/17
f 106/43/18 108/45/18 171/44/18
f 108/45/19 110/47/19 173/46/19
f 110/47/20 112/49/20 175/48/20
f 112/49/21 114/51/21 177/50/21
f 114/51/22 116/53/22 179/52/22
f 116/53/23 118/55/23 181/54/23
f 118/55/24 120/57/24 183/56/24
f 120/57/25 122/59/25 185/58/25
f 122/59/26 124/61/26 187/60/26
f 124/61/27 126/64/27 189/62/27
f 126/64/28 128/72/28 191/65/28
f 70/66/29 72/4/29 135/6/29
f 74/68/30 76/10/30 139/12/30
f 68/69/31 70/66/31 133/67/31
f 80/71/32 82/18/32 145/20/32
f 128/72/33 66/191/33 130/73/33
f 16/74/14 17/328/14 37/75/14
f 24/77/15 16/74/15 38/76/15
f 22/79/16 24/77/16 41/78/16
f 27/81/17 22/329/17 33/82/17
f 27/81/18 48/83/18 42/84/18
f 25/85/19 42/84/19 47/86/19
f 4/87/20 47/86/20 44/88/20
f 29/89/21 44/88/21 43/90/21
f 28/91/22 43/90/22 46/92/22
f 31/93/23 46/92/23 45/94/23
f 30/95/24 45/94/24 34/96/24
f 26/97/25 34/96/25 49/98/25
f 32/99/26 49/98/26 39/100/26
f 23/101/27 39/100/27 40/102/27
f 3/103/28 40/102/28 61/104/28
f 20/105/33 61/104/33 62/106/33
f 21/107/34 62/106/34 60/108/34
f 19/109/31 60/108/31 63/110/31
f 12/111/29 63/110/29 35/112/29
f 13/113/2 35/112/2 56/114/2
f 8/116/30 18/115/30 56/114/30
f 2/118/3 8/116/3 55/117/3
f 6/120/4 2/118/4 51/119/4
f 5/122/32 6/120/32 52/121/32
f 7/124/6 5/122/6 50/123/6
f 10/126/7 7/124/7 53/125/7
f 9/128/8 10/126/8 57/127/8
f 11/130/9 9/128/9 36/129/9
f 14/132/10 11/130/10 54/131/10
f 1/134/11 14/132/11 59/133/11
f 15/136/12 1/134/12 58/135/12
f 17/138/13 15/136/13 64/137/13
f 127/140/35 128/72/35 126/64/35
f 65/142/36 67/330/36 68/69/36
f 67/144/37 69/331/37 70/66/37
f 71/145/38 72/4/38 70/66/38
f 73/147/39 74/68/39 72/4/39
f 75/149/40 76/10/40 74/68/40
f 77/151/41 78/13/41 76/10/41
f 79/153/99 80/71/99 78/13/99
f 81/155/43 82/18/43 80/71/43
f 81/157/44 83/332/44 84/21/44
f 83/158/45 85/333/45 86/23/45
f 85/159/46 87/334/46 88/25/46
f 87/160/47 89/335/47 90/27/47
f 91/161/48 92/29/48 90/27/48
f 93/163/49 94/31/49 92/29/49
f 95/165/50 96/33/50 94/31/50
f 97/167/51 98/35/51 96/33/51
f 99/169/52 100/37/52 98/35/52
f 99/171/53 101/336/53 102/39/53
f 101/172/54 103/337/54 104/41/54
f 103/173/55 105/338/55 106/43/55
f 107/174/56 108/45/56 106/43/56
f 109/176/57 110/47/57 108/45/57
f 111/178/58 112/49/58 110/47/58
f 113/180/59 114/51/59 112/49/59
f 113/182/60 115/339/60 116/53/60
f 115/183/61 117/340/61 118/55/61
f 119/184/62 120/57/62 118/55/62
f 121/186/63 122/59/63 120/57/63
f 121/188/64 123/341/64 124/61/64
f 123/189/65 125/342/65 126/64/65
f 128/72/66 127/343/66 65/190/66
f 66/143/34 68/69/34 131/70/34
f 131/70/67 132/344/67 129/193/67
f 133/67/68 134/345/68 132/194/68
f 133/67/69 135/6/69 136/195/69
f 135/6/70 137/5/70 138/197/70
f 139/12/71 140/346/71 138/199/71
f 141/11/72 142/347/72 140/200/72
f 141/11/73 143/14/73 144/201/73
f 145/20/100 146/348/100 144/203/100
f 147/19/75 148/349/75 146/204/75
f 149/22/101 150/350/101 148/205/101
f 149/22/77 151/24/77 152/206/77
f 151/24/78 153/26/78 154/208/78
f 155/28/79 156/351/79 154/210/79
f 157/30/80 158/352/80 156/211/80
f 157/30/81 159/32/81 160/212/81
f 161/34/82 162/353/82 160/214/82
f 161/34/83 163/36/83 164/215/83
f 165/38/84 166/354/84 164/217/84
f 167/40/85 168/355/85 166/218/85
f 167/40/86 169/42/86 170/219/86
f 171/44/87 172/356/87 170/221/87
f 173/46/88 174/357/88 172/222/88
f 175/48/89 176/358/89 174/223/89
f 177/50/90 178/359/90 176/224/90
f 177/50/91 179/52/91 180/225/91
f 181/54/92 182/360/92 180/227/92
f 183/56/93 184/361/93 182/228/93
f 183/56/94 185/58/94 186/229/94
f 187/60/95 188/362/95 186/231/95
f 189/62/96 190/363/96 188/232/96
f 191/65/102 192/364/102 190/233/102
f 192/234/98 191/65/98 130/73/98
f 50/365/5 52/326/5 176/324/5
f 176/324/5 178/366/5 50/365/5
f 178/366/5 180/367/5 53/368/5
f 180/367/5 182/369/5 57/370/5
f 182/369/5 184/371/5 57/370/5
f 184/371/5 186/372/5 36/373/5
f 186/372/5 188/374/5 54/375/5
f 36/373/5 186/372/5 54/375/5
f 188/374/5 190/376/5 59/377/5
f 190/376/5 192/236/5 58/378/5
f 59/377/5 190/376/5 58/378/5
f 192/236/5 129/379/5 37/237/5
f 129/379/5 132/380/5 38/381/5
f 132/380/5 134/382/5 41/383/5
f 134/382/5 136/384/5 41/383/5
f 136/384/5 138/385/5 48/386/5
f 138/385/5 140/387/5 42/388/5
f 140/387/5 142/389/5 42/388/5
f 142/389/5 144/299/5 47/390/5
f 42/388/5 142/389/5 47/390/5
f 144/299/5 44/298/5 47/390/5
f 138/385/5 42/388/5 48/386/5
f 129/379/5 38/381/5 37/237/5
f 178/366/5 53/368/5 50/365/5
f 57/370/5 53/368/5 180/367/5
f 36/373/5 57/370/5 184/371/5
f 136/384/5 48/386/5 33/391/5
f 136/384/5 33/391/5 41/383/5
f 54/375/5 188/374/5 59/377/5
f 132/380/5 41/383/5 38/381/5
f 64/238/5 58/378/5 192/236/5
