# Blender v3.1.2 OBJ File: 'SteamPipeRingAdd.blend'
# www.blender.org
mtllib SteamPipeRingAdd.mtl
o 円柱
v -0.273490 0.509126 -0.660264
v -0.660264 0.509126 0.273490
v 0.273490 0.509126 0.660264
v 0.660264 0.509126 -0.273490
v -0.714664 0.509126 -0.000000
v -0.700932 0.509126 0.139424
v -0.700932 0.509126 -0.139424
v -0.594222 0.509126 0.397046
v -0.594222 0.509126 -0.397046
v -0.660264 0.509126 -0.273490
v -0.505344 0.509126 -0.505344
v -0.273490 0.509126 0.660264
v -0.397046 0.509126 0.594222
v -0.397046 0.509126 -0.594222
v -0.139424 0.509126 -0.700932
v 0.139424 0.509126 -0.700932
v 0.000000 0.509126 -0.714664
v -0.505344 0.509126 0.505344
v -0.139424 0.509126 0.700932
v 0.139424 0.509126 0.700932
v -0.000000 0.509126 0.714664
v 0.397046 0.509126 -0.594222
v 0.397046 0.509126 0.594222
v 0.273490 0.509126 -0.660264
v 0.594222 0.509126 -0.397046
v 0.594222 0.509126 0.397046
v 0.505344 0.509126 -0.505344
v 0.714664 0.509126 0.000000
v 0.700932 0.509126 -0.139424
v 0.660264 0.509126 0.273490
v 0.700932 0.509126 0.139424
v 0.505344 0.509126 0.505344
v 0.397046 -0.509126 -0.594222
v 0.594222 -0.509126 0.397046
v -0.397046 -0.509126 0.594222
v -0.594222 -0.509126 -0.397046
v 0.000000 -0.509126 -0.714664
v 0.139424 -0.509126 -0.700932
v 0.397046 -0.509126 0.594222
v 0.273490 -0.509126 0.660264
v 0.273490 -0.509126 -0.660264
v 0.594222 -0.509126 -0.397046
v 0.714664 -0.509126 0.000000
v 0.700932 -0.509126 -0.139424
v 0.660264 -0.509126 0.273490
v 0.700932 -0.509126 0.139424
v 0.660264 -0.509126 -0.273490
v 0.505344 -0.509126 -0.505344
v 0.505344 -0.509126 0.505344
v -0.714664 -0.509126 -0.000000
v -0.660264 -0.509126 0.273490
v -0.700932 -0.509126 0.139424
v -0.700932 -0.509126 -0.139424
v -0.505344 -0.509126 -0.505344
v -0.594222 -0.509126 0.397046
v -0.505344 -0.509126 0.505344
v -0.660264 -0.509126 -0.273490
v -0.273490 -0.509126 -0.660264
v -0.397046 -0.509126 -0.594222
v -0.139424 -0.509126 0.700932
v 0.139424 -0.509126 0.700932
v -0.000000 -0.509126 0.714664
v -0.273490 -0.509126 0.660264
v -0.139424 -0.509126 -0.700932
v -0.000000 0.509126 -0.908226
v 0.000000 0.462627 -1.000000
v 0.177186 0.509126 -0.890775
v 0.195090 0.462627 -0.980785
v 0.347563 0.509126 -0.839091
v 0.382683 0.462627 -0.923880
v 0.504583 0.509126 -0.755162
v 0.555570 0.462627 -0.831470
v 0.642213 0.509126 -0.642213
v 0.707107 0.462627 -0.707107
v 0.755162 0.509126 -0.504583
v 0.831470 0.462627 -0.555570
v 0.839091 0.509126 -0.347563
v 0.923880 0.462627 -0.382683
v 0.890775 0.509126 -0.177186
v 0.980785 0.462627 -0.195090
v 0.908226 0.509126 0.000000
v 1.000000 0.462627 0.000000
v 0.890775 0.509126 0.177186
v 0.980785 0.462627 0.195090
v 0.839091 0.509126 0.347563
v 0.923880 0.462627 0.382683
v 0.755162 0.509126 0.504583
v 0.831470 0.462627 0.555570
v 0.642213 0.509126 0.642213
v 0.707107 0.462627 0.707107
v 0.504583 0.509126 0.755162
v 0.555570 0.462627 0.831470
v 0.347563 0.509126 0.839091
v 0.382683 0.462627 0.923880
v 0.177186 0.509126 0.890775
v 0.195090 0.462627 0.980785
v -0.000000 0.509126 0.908226
v -0.000000 0.462627 1.000000
v -0.177186 0.509126 0.890775
v -0.195090 0.462627 0.980785
v -0.347563 0.509126 0.839091
v -0.382683 0.462627 0.923880
v -0.504583 0.509126 0.755162
v -0.555570 0.462627 0.831470
v -0.642213 0.509126 0.642213
v -0.707107 0.462627 0.707107
v -0.755162 0.509126 0.504584
v -0.831469 0.462627 0.555570
v -0.839091 0.509126 0.347563
v -0.923880 0.462627 0.382684
v -0.890775 0.509126 0.177186
v -0.980785 0.462627 0.195090
v -0.908226 0.509126 -0.000000
v -1.000000 0.462627 -0.000000
v -0.890775 0.509126 -0.177186
v -0.980785 0.462627 -0.195090
v -0.839091 0.509126 -0.347563
v -0.923879 0.462627 -0.382684
v -0.755162 0.509126 -0.504583
v -0.831470 0.462627 -0.555570
v -0.642213 0.509126 -0.642213
v -0.707107 0.462627 -0.707107
v -0.504583 0.509126 -0.755162
v -0.555570 0.462627 -0.831470
v -0.347563 0.509126 -0.839091
v -0.382683 0.462627 -0.923880
v -0.177186 0.509126 -0.890775
v -0.195090 0.462627 -0.980785
v -0.000000 -0.509126 -0.926652
v 0.000000 -0.471962 -1.000000
v 0.195090 -0.471962 -0.980785
v 0.180781 -0.509126 -0.908846
v 0.382683 -0.471962 -0.923880
v 0.354614 -0.509126 -0.856114
v 0.555570 -0.471962 -0.831470
v 0.514820 -0.509126 -0.770483
v 0.707107 -0.471962 -0.707107
v 0.655242 -0.509126 -0.655242
v 0.831470 -0.471962 -0.555570
v 0.770483 -0.509126 -0.514820
v 0.923880 -0.471962 -0.382683
v 0.856114 -0.509126 -0.354614
v 0.980785 -0.471962 -0.195090
v 0.908846 -0.509126 -0.180781
v 1.000000 -0.471962 0.000000
v 0.926652 -0.509126 0.000000
v 0.980785 -0.471962 0.195090
v 0.908846 -0.509126 0.180781
v 0.923880 -0.471962 0.382683
v 0.856114 -0.509126 0.354614
v 0.831470 -0.471962 0.555570
v 0.770483 -0.509126 0.514820
v 0.707107 -0.471962 0.707107
v 0.655242 -0.509126 0.655242
v 0.555570 -0.471962 0.831470
v 0.514820 -0.509126 0.770483
v 0.382683 -0.471962 0.923880
v 0.354614 -0.509126 0.856114
v 0.195090 -0.471962 0.980785
v 0.180781 -0.509126 0.908846
v -0.000000 -0.471962 1.000000
v -0.000000 -0.509126 0.926652
v -0.195090 -0.471962 0.980785
v -0.180781 -0.509126 0.908846
v -0.382683 -0.471962 0.923880
v -0.354614 -0.509126 0.856114
v -0.555570 -0.471962 0.831470
v -0.514820 -0.509126 0.770483
v -0.707107 -0.471962 0.707107
v -0.655242 -0.509126 0.655242
v -0.831469 -0.471962 0.555570
v -0.770483 -0.509126 0.514820
v -0.923880 -0.471962 0.382684
v -0.856114 -0.509126 0.354614
v -0.980785 -0.471962 0.195090
v -0.908846 -0.509126 0.180781
v -1.000000 -0.471962 -0.000000
v -0.926652 -0.509126 -0.000000
v -0.980785 -0.471962 -0.195090
v -0.908846 -0.509126 -0.180781
v -0.923879 -0.471962 -0.382684
v -0.856114 -0.509126 -0.354614
v -0.831470 -0.471962 -0.555570
v -0.770483 -0.509126 -0.514820
v -0.707107 -0.471962 -0.707107
v -0.655242 -0.509126 -0.655241
v -0.555570 -0.471962 -0.831470
v -0.514820 -0.509126 -0.770483
v -0.382683 -0.471962 -0.923880
v -0.354614 -0.509126 -0.856114
v -0.195090 -0.471962 -0.980785
v -0.180781 -0.509126 -0.908846
vt 0.048618 0.166585
vt 0.091537 0.184362
vt 0.081776 0.216538
vt 0.906250 0.977167
vt 0.875000 0.518249
vt 0.906250 0.518249
vt 0.451382 0.333415
vt 0.408463 0.315638
vt 0.418224 0.283462
vt 0.843750 0.977167
vt 0.812500 0.518249
vt 0.843750 0.518249
vt 0.812500 0.977167
vt 0.781250 0.518249
vt 0.793387 0.031877
vt 0.750000 0.078481
vt 0.783462 0.081776
vt 0.750000 0.977167
vt 0.718750 0.518249
vt 0.750000 0.518249
vt 0.718750 0.977167
vt 0.687500 0.518249
vt 0.687500 0.977167
vt 0.656250 0.518249
vt 0.656250 0.977167
vt 0.625000 0.518249
vt 0.625000 0.977167
vt 0.593750 0.518249
vt 0.593750 0.977167
vt 0.562500 0.518249
vt 0.562500 0.977167
vt 0.531250 0.518249
vt 0.531250 0.977167
vt 0.500000 0.518249
vt 0.500000 0.977167
vt 0.468750 0.518249
vt 0.468750 0.977167
vt 0.437500 0.518249
vt 0.437500 0.977167
vt 0.406250 0.518249
vt 0.406250 0.977167
vt 0.375000 0.518249
vt 0.375000 0.977167
vt 0.343750 0.518249
vt 0.343750 0.977167
vt 0.312500 0.518249
vt 0.312500 0.977167
vt 0.281250 0.518249
vt 0.281250 0.977167
vt 0.250000 0.518249
vt 0.250000 0.977167
vt 0.218750 0.518249
vt 0.218750 0.977167
vt 0.187500 0.518249
vt 0.187500 0.977167
vt 0.156250 0.518249
vt 0.156250 0.977167
vt 0.125000 0.518249
vt 0.125000 0.977167
vt 0.093750 0.518249
vt 0.093750 0.977167
vt 0.062500 0.518249
vt 0.093750 0.518249
vt 0.062500 0.977167
vt 0.031250 0.518249
vt 0.937500 0.977167
vt 0.937500 0.518249
vt 0.875000 0.977167
vt 0.968750 0.977167
vt 0.968750 0.518249
vt 0.781250 0.977167
vt 0.031250 0.977167
vt 0.000000 0.518249
vt 0.968750 0.853739
vt 1.000000 0.646261
vt 0.968750 0.646261
vt 0.937500 0.853739
vt 0.937500 0.646261
vt 0.906250 0.853739
vt 0.906250 0.646261
vt 0.875000 0.853739
vt 0.906250 0.646261
vt 0.875000 0.646261
vt 0.843750 0.646261
vt 0.843750 0.853739
vt 0.812500 0.646261
vt 0.812500 0.853739
vt 0.781250 0.646261
vt 0.781250 0.853739
vt 0.750000 0.646261
vt 0.750000 0.853739
vt 0.718750 0.646261
vt 0.718750 0.853739
vt 0.687500 0.646261
vt 0.687500 0.853739
vt 0.656250 0.646261
vt 0.656250 0.853739
vt 0.625000 0.646261
vt 0.625000 0.853739
vt 0.593750 0.646261
vt 0.593750 0.853739
vt 0.562500 0.646261
vt 0.562500 0.853739
vt 0.531250 0.646261
vt 0.531250 0.853739
vt 0.500000 0.646261
vt 0.500000 0.853739
vt 0.468750 0.646261
vt 0.468750 0.853739
vt 0.437500 0.646261
vt 0.437500 0.853739
vt 0.406250 0.646261
vt 0.406250 0.853739
vt 0.375000 0.646261
vt 0.375000 0.853739
vt 0.343750 0.853739
vt 0.343750 0.646261
vt 0.312500 0.853739
vt 0.312500 0.646261
vt 0.281250 0.853739
vt 0.281250 0.646261
vt 0.250000 0.853739
vt 0.250000 0.646261
vt 0.218750 0.853739
vt 0.218750 0.646261
vt 0.187500 0.853739
vt 0.187500 0.646261
vt 0.156250 0.853739
vt 0.156250 0.646261
vt 0.125000 0.853739
vt 0.125000 0.646261
vt 0.093750 0.853739
vt 0.093750 0.646261
vt 0.062500 0.853739
vt 0.062500 0.646261
vt 0.031250 0.853739
vt 0.031250 0.646261
vt 0.000000 0.853739
vt 0.000000 0.646261
vt 0.032684 1.000000
vt 0.061066 1.000000
vt 0.998566 1.000000
vt 1.000000 0.977167
vt 0.967316 1.000000
vt 0.907684 1.000000
vt 0.936066 1.000000
vt 0.876434 1.000000
vt 0.904816 1.000000
vt 0.845184 1.000000
vt 0.873566 1.000000
vt 0.813934 1.000000
vt 0.842316 1.000000
vt 0.782684 1.000000
vt 0.811066 1.000000
vt 0.751434 1.000000
vt 0.779816 1.000000
vt 0.748566 1.000000
vt 0.717316 1.000000
vt 0.686066 1.000000
vt 0.654816 1.000000
vt 0.595184 1.000000
vt 0.623566 1.000000
vt 0.563934 1.000000
vt 0.592316 1.000000
vt 0.532684 1.000000
vt 0.561066 1.000000
vt 0.501434 1.000000
vt 0.529816 1.000000
vt 0.470184 1.000000
vt 0.498566 1.000000
vt 0.467316 1.000000
vt 0.436066 1.000000
vt 0.404816 1.000000
vt 0.345184 1.000000
vt 0.373566 1.000000
vt 0.313934 1.000000
vt 0.342316 1.000000
vt 0.282684 1.000000
vt 0.311066 1.000000
vt 0.251434 1.000000
vt 0.279816 1.000000
vt 0.248566 1.000000
vt 0.217316 1.000000
vt 0.157684 1.000000
vt 0.186066 1.000000
vt 0.126434 1.000000
vt 0.154816 1.000000
vt 0.123566 1.000000
vt 0.092316 1.000000
vt 0.001434 1.000000
vt 0.000000 0.977167
vt 1.000000 0.518249
vt 0.998854 0.500000
vt 0.967604 0.500000
vt 0.907396 0.500000
vt 0.936354 0.500000
vt 0.876146 0.500000
vt 0.905104 0.500000
vt 0.873854 0.500000
vt 0.842604 0.500000
vt 0.782396 0.500000
vt 0.811354 0.500000
vt 0.780104 0.500000
vt 0.748854 0.500000
vt 0.717604 0.500000
vt 0.657396 0.500000
vt 0.686354 0.500000
vt 0.626146 0.500000
vt 0.655104 0.500000
vt 0.623854 0.500000
vt 0.592604 0.500000
vt 0.532396 0.500000
vt 0.561354 0.500000
vt 0.530104 0.500000
vt 0.469896 0.500000
vt 0.498854 0.500000
vt 0.467604 0.500000
vt 0.436354 0.500000
vt 0.376146 0.500000
vt 0.405104 0.500000
vt 0.373854 0.500000
vt 0.342604 0.500000
vt 0.311354 0.500000
vt 0.280104 0.500000
vt 0.219896 0.500000
vt 0.248854 0.500000
vt 0.217604 0.500000
vt 0.186354 0.500000
vt 0.126146 0.500000
vt 0.155104 0.500000
vt 0.123854 0.500000
vt 0.092604 0.500000
vt 0.061354 0.500000
vt 0.030104 0.500000
vt 0.001146 0.500000
vt 0.706613 0.468123
vt 0.750000 0.421519
vt 0.716538 0.418224
vt 0.283462 0.418224
vt 0.315638 0.408463
vt 0.333415 0.451382
vt 0.292525 0.463786
vt 0.250000 0.467974
vt 0.250000 0.421520
vt 0.207475 0.463786
vt 0.216538 0.418224
vt 0.166585 0.451382
vt 0.128900 0.431239
vt 0.154709 0.392613
vt 0.095869 0.404131
vt 0.128717 0.371283
vt 0.068761 0.371100
vt 0.048618 0.333415
vt 0.107387 0.345291
vt 0.036214 0.292525
vt 0.081776 0.283462
vt 0.032026 0.250000
vt 0.036214 0.207475
vt 0.078481 0.250000
vt 0.068761 0.128900
vt 0.107387 0.154709
vt 0.095869 0.095869
vt 0.128717 0.128717
vt 0.128900 0.068761
vt 0.166585 0.048618
vt 0.154709 0.107387
vt 0.207475 0.036214
vt 0.216538 0.081776
vt 0.250000 0.032026
vt 0.250000 0.078481
vt 0.292525 0.036214
vt 0.283462 0.081776
vt 0.333415 0.048618
vt 0.371100 0.068761
vt 0.345291 0.107387
vt 0.404131 0.095869
vt 0.371283 0.128717
vt 0.431239 0.128900
vt 0.451382 0.166585
vt 0.392613 0.154709
vt 0.408463 0.184362
vt 0.184362 0.408463
vt 0.315638 0.091537
vt 0.184362 0.091537
vt 0.091537 0.315638
vt 0.418224 0.216538
vt 0.463786 0.207475
vt 0.467974 0.250000
vt 0.421519 0.250000
vt 0.463786 0.292525
vt 0.431239 0.371100
vt 0.392613 0.345291
vt 0.404131 0.404131
vt 0.371283 0.371283
vt 0.371100 0.431239
vt 0.345291 0.392613
vt 0.921519 0.250000
vt 0.918224 0.283462
vt 0.968123 0.293387
vt 0.972396 0.250000
vt 0.968123 0.206613
vt 0.918224 0.216538
vt 0.955467 0.164893
vt 0.908464 0.184362
vt 0.934916 0.126443
vt 0.907258 0.092742
vt 0.892613 0.154709
vt 0.873557 0.065084
vt 0.871283 0.128717
vt 0.835108 0.044533
vt 0.845291 0.107387
vt 0.815638 0.091537
vt 0.750000 0.027604
vt 0.706613 0.031877
vt 0.716538 0.081776
vt 0.664893 0.044533
vt 0.684362 0.091537
vt 0.626443 0.065084
vt 0.592742 0.092742
vt 0.628718 0.128717
vt 0.565084 0.126443
vt 0.607387 0.154709
vt 0.544533 0.164893
vt 0.531877 0.206613
vt 0.591537 0.184362
vt 0.581776 0.216538
vt 0.654709 0.107387
vt 1.000000 0.853739
vt 0.906250 0.853739
vt 0.970184 1.000000
vt 0.938934 1.000000
vt 0.720184 1.000000
vt 0.688934 1.000000
vt 0.657684 1.000000
vt 0.626434 1.000000
vt 0.438934 1.000000
vt 0.407684 1.000000
vt 0.376434 1.000000
vt 0.220184 1.000000
vt 0.188934 1.000000
vt 0.095184 1.000000
vt 0.063934 1.000000
vt 0.029816 1.000000
vt 0.969896 0.500000
vt 0.938646 0.500000
vt 0.844896 0.500000
vt 0.813646 0.500000
vt 0.751146 0.500000
vt 0.719896 0.500000
vt 0.688646 0.500000
vt 0.594896 0.500000
vt 0.563646 0.500000
vt 0.501146 0.500000
vt 0.438646 0.500000
vt 0.407396 0.500000
vt 0.344896 0.500000
vt 0.313646 0.500000
vt 0.282396 0.500000
vt 0.251146 0.500000
vt 0.188646 0.500000
vt 0.157396 0.500000
vt 0.094896 0.500000
vt 0.063646 0.500000
vt 0.032396 0.500000
vt 0.578481 0.250000
vt 0.527604 0.250000
vt 0.531877 0.293387
vt 0.581776 0.283462
vt 0.544533 0.335107
vt 0.591537 0.315638
vt 0.565084 0.373557
vt 0.592742 0.407258
vt 0.607387 0.345291
vt 0.626444 0.434916
vt 0.628717 0.371283
vt 0.664893 0.455467
vt 0.654709 0.392613
vt 0.684362 0.408463
vt 0.750000 0.472396
vt 0.793388 0.468123
vt 0.783462 0.418224
vt 0.835107 0.455467
vt 0.815638 0.408463
vt 0.873557 0.434916
vt 0.907258 0.407258
vt 0.871283 0.371283
vt 0.934916 0.373557
vt 0.892613 0.345291
vt 0.955468 0.335108
vt 0.908463 0.315638
vt 0.845291 0.392613
vn 0.0000 1.0000 -0.0000
vn 0.6344 0.0000 -0.7730
vn 0.8819 0.0000 -0.4714
vn 0.9569 0.0000 -0.2903
vn 0.0000 -1.0000 0.0000
vn 0.9952 0.0000 0.0980
vn 0.9569 0.0000 0.2903
vn 0.8819 0.0000 0.4714
vn 0.7730 0.0000 0.6344
vn 0.6344 0.0000 0.7730
vn 0.4714 0.0000 0.8819
vn 0.2903 0.0000 0.9569
vn 0.0980 0.0000 0.9952
vn -0.0980 0.0000 0.9952
vn -0.2903 0.0000 0.9569
vn -0.4714 0.0000 0.8819
vn -0.6344 0.0000 0.7730
vn -0.7730 0.0000 0.6344
vn -0.8819 0.0000 0.4714
vn -0.9569 0.0000 0.2903
vn -0.9952 0.0000 0.0980
vn -0.9952 0.0000 -0.0980
vn -0.9569 0.0000 -0.2903
vn -0.8819 0.0000 -0.4714
vn -0.7730 0.0000 -0.6344
vn -0.6344 0.0000 -0.7730
vn -0.4714 0.0000 -0.8819
vn -0.2903 0.0000 -0.9569
vn 0.4714 0.0000 -0.8819
vn 0.7730 0.0000 -0.6344
vn 0.2903 0.0000 -0.9569
vn 0.9952 0.0000 -0.0980
vn -0.0980 0.0000 -0.9952
vn 0.0980 0.0000 -0.9952
vn -0.1317 0.8912 -0.4342
vn 0.0445 0.8912 -0.4515
vn 0.1317 0.8912 -0.4342
vn 0.2139 0.8912 -0.4001
vn 0.2878 0.8912 -0.3507
vn 0.3507 0.8912 -0.2878
vn 0.4001 0.8912 -0.2139
vn 0.4342 0.8911 -0.1317
vn 0.4515 0.8912 -0.0445
vn 0.4515 0.8912 0.0445
vn 0.4342 0.8912 0.1317
vn 0.4001 0.8912 0.2139
vn 0.3507 0.8912 0.2878
vn 0.2878 0.8912 0.3507
vn 0.2139 0.8912 0.4001
vn 0.1317 0.8912 0.4342
vn 0.0445 0.8912 0.4515
vn -0.0445 0.8912 0.4515
vn -0.1317 0.8912 0.4342
vn -0.2139 0.8912 0.4001
vn -0.2878 0.8912 0.3507
vn -0.3507 0.8912 0.2878
vn -0.4001 0.8912 0.2139
vn -0.4342 0.8912 0.1317
vn -0.4515 0.8912 0.0445
vn -0.4515 0.8912 -0.0445
vn -0.4342 0.8912 -0.1317
vn -0.4001 0.8912 -0.2139
vn -0.3507 0.8912 -0.2878
vn -0.2878 0.8912 -0.3507
vn -0.2139 0.8912 -0.4001
vn -0.0445 0.8912 -0.4515
vn 0.0445 -0.8912 -0.4515
vn 0.1317 -0.8912 -0.4342
vn 0.2139 -0.8912 -0.4001
vn 0.2878 -0.8912 -0.3507
vn 0.3507 -0.8912 -0.2878
vn 0.4001 -0.8912 -0.2139
vn 0.4342 -0.8912 -0.1317
vn 0.4515 -0.8911 -0.0445
vn 0.4515 -0.8912 0.0445
vn 0.4342 -0.8912 0.1317
vn 0.4001 -0.8912 0.2139
vn 0.3507 -0.8912 0.2878
vn 0.2878 -0.8912 0.3507
vn 0.2139 -0.8912 0.4001
vn 0.1317 -0.8912 0.4342
vn 0.0445 -0.8912 0.4515
vn -0.0445 -0.8912 0.4515
vn -0.1317 -0.8912 0.4342
vn -0.2139 -0.8912 0.4001
vn -0.2878 -0.8912 0.3507
vn -0.3507 -0.8912 0.2878
vn -0.4001 -0.8912 0.2139
vn -0.4342 -0.8912 0.1317
vn -0.4515 -0.8912 0.0445
vn -0.4515 -0.8912 -0.0445
vn -0.4342 -0.8912 -0.1317
vn -0.4001 -0.8912 -0.2139
vn -0.3507 -0.8912 -0.2878
vn -0.2878 -0.8912 -0.3507
vn -0.2139 -0.8912 -0.4001
vn -0.1317 -0.8912 -0.4342
vn -0.0445 -0.8912 -0.4515
vn 0.4342 0.8912 -0.1317
vn 0.4515 -0.8912 -0.0445
vn 0.4342 -0.8911 0.1317
vn -0.1317 -0.8911 -0.4342
usemtl None
s off
f 109/1/1 2/2/1 6/3/1
f 72/4/2 137/5/2 135/6/2
f 77/7/1 4/8/1 29/9/1
f 76/10/3 141/11/3 139/12/3
f 78/13/4 143/14/4 141/11/4
f 160/15/5 62/16/5 61/17/5
f 82/18/6 147/19/6 145/20/6
f 84/21/7 149/22/7 147/19/7
f 86/23/8 151/24/8 149/22/8
f 88/25/9 153/26/9 151/24/9
f 90/27/10 155/28/10 153/26/10
f 92/29/11 157/30/11 155/28/11
f 94/31/12 159/32/12 157/30/12
f 96/33/13 161/34/13 159/32/13
f 98/35/14 163/36/14 161/34/14
f 100/37/15 165/38/15 163/36/15
f 102/39/16 167/40/16 165/38/16
f 104/41/17 169/42/17 167/40/17
f 106/43/18 171/44/18 169/42/18
f 108/45/19 173/46/19 171/44/19
f 110/47/20 175/48/20 173/46/20
f 112/49/21 177/50/21 175/48/21
f 114/51/22 179/52/22 177/50/22
f 116/53/23 181/54/23 179/52/23
f 118/55/24 183/56/24 181/54/24
f 120/57/25 185/58/25 183/56/25
f 122/59/26 187/60/26 185/58/26
f 124/61/27 189/62/27 187/63/27
f 126/64/28 191/65/28 189/62/28
f 70/66/29 135/6/29 133/67/29
f 74/68/30 139/12/30 137/5/30
f 68/69/31 133/67/31 131/70/31
f 80/71/32 145/20/32 143/14/32
f 128/72/33 130/73/33 191/65/33
f 16/74/14 37/75/14 38/76/14
f 24/77/15 38/76/15 41/78/15
f 22/79/16 41/78/16 33/80/16
f 27/81/17 33/82/17 48/83/17
f 27/81/18 42/84/18 25/85/18
f 25/85/19 47/86/19 4/87/19
f 4/87/20 44/88/20 29/89/20
f 29/89/21 43/90/21 28/91/21
f 28/91/22 46/92/22 31/93/22
f 31/93/23 45/94/23 30/95/23
f 30/95/24 34/96/24 26/97/24
f 26/97/25 49/98/25 32/99/25
f 32/99/26 39/100/26 23/101/26
f 23/101/27 40/102/27 3/103/27
f 3/103/28 61/104/28 20/105/28
f 20/105/33 62/106/33 21/107/33
f 21/107/34 60/108/34 19/109/34
f 19/109/31 63/110/31 12/111/31
f 12/111/29 35/112/29 13/113/29
f 13/113/2 56/114/2 18/115/2
f 8/116/30 56/114/30 55/117/30
f 2/118/3 55/117/3 51/119/3
f 6/120/4 51/119/4 52/121/4
f 5/122/32 52/121/32 50/123/32
f 7/124/6 50/123/6 53/125/6
f 10/126/7 53/125/7 57/127/7
f 9/128/8 57/127/8 36/129/8
f 11/130/9 36/129/9 54/131/9
f 14/132/10 54/131/10 59/133/10
f 1/134/11 59/133/11 58/135/11
f 15/136/12 58/135/12 64/137/12
f 17/138/13 64/137/13 37/139/13
f 127/140/35 126/64/35 125/141/35
f 65/142/36 68/69/36 66/143/36
f 67/144/37 70/66/37 68/69/37
f 71/145/38 70/66/38 69/146/38
f 73/147/39 72/4/39 71/148/39
f 75/149/40 74/68/40 73/150/40
f 77/151/41 76/10/41 75/152/41
f 79/153/42 78/13/42 77/154/42
f 81/155/43 80/71/43 79/156/43
f 81/157/44 84/21/44 82/18/44
f 83/158/45 86/23/45 84/21/45
f 85/159/46 88/25/46 86/23/46
f 87/160/47 90/27/47 88/25/47
f 91/161/48 90/27/48 89/162/48
f 93/163/49 92/29/49 91/164/49
f 95/165/50 94/31/50 93/166/50
f 97/167/51 96/33/51 95/168/51
f 99/169/52 98/35/52 97/170/52
f 99/171/53 102/39/53 100/37/53
f 101/172/54 104/41/54 102/39/54
f 103/173/55 106/43/55 104/41/55
f 107/174/56 106/43/56 105/175/56
f 109/176/57 108/45/57 107/177/57
f 111/178/58 110/47/58 109/179/58
f 113/180/59 112/49/59 111/181/59
f 113/182/60 116/53/60 114/51/60
f 115/183/61 118/55/61 116/53/61
f 119/184/62 118/55/62 117/185/62
f 121/186/63 120/57/63 119/187/63
f 121/188/64 124/61/64 122/59/64
f 123/189/65 126/64/65 124/61/65
f 128/72/66 65/190/66 66/191/66
f 66/143/34 131/70/34 130/192/34
f 131/70/67 129/193/67 130/192/67
f 133/67/68 132/194/68 131/70/68
f 133/67/69 136/195/69 134/196/69
f 135/6/70 138/197/70 136/198/70
f 139/12/71 138/199/71 137/5/71
f 141/11/72 140/200/72 139/12/72
f 141/11/73 144/201/73 142/202/73
f 145/20/74 144/203/74 143/14/74
f 147/19/75 146/204/75 145/20/75
f 149/22/76 148/205/76 147/19/76
f 149/22/77 152/206/77 150/207/77
f 151/24/78 154/208/78 152/209/78
f 155/28/79 154/210/79 153/26/79
f 157/30/80 156/211/80 155/28/80
f 157/30/81 160/212/81 158/213/81
f 161/34/82 160/214/82 159/32/82
f 161/34/83 164/215/83 162/216/83
f 165/38/84 164/217/84 163/36/84
f 167/40/85 166/218/85 165/38/85
f 167/40/86 170/219/86 168/220/86
f 171/44/87 170/221/87 169/42/87
f 173/46/88 172/222/88 171/44/88
f 175/48/89 174/223/89 173/46/89
f 177/50/90 176/224/90 175/48/90
f 177/50/91 180/225/91 178/226/91
f 181/54/92 180/227/92 179/52/92
f 183/56/93 182/228/93 181/54/93
f 183/56/94 186/229/94 184/230/94
f 187/60/95 186/231/95 185/58/95
f 189/62/96 188/232/96 187/63/96
f 191/65/97 190/233/97 189/62/97
f 192/234/98 130/73/98 129/235/98
f 192/236/5 37/237/5 64/238/5
f 16/239/1 24/240/1 69/241/1
f 69/241/1 67/242/1 16/239/1
f 67/242/1 65/243/1 17/244/1
f 65/243/1 127/245/1 15/246/1
f 127/245/1 125/247/1 15/246/1
f 125/247/1 123/248/1 14/249/1
f 123/248/1 121/250/1 11/251/1
f 121/250/1 119/252/1 11/251/1
f 119/252/1 117/253/1 9/254/1
f 11/251/1 119/252/1 9/254/1
f 117/253/1 115/255/1 7/256/1
f 115/255/1 113/257/1 7/256/1
f 113/257/1 111/258/1 5/259/1
f 111/258/1 109/1/1 6/3/1
f 5/259/1 111/258/1 6/3/1
f 109/1/1 107/260/1 8/261/1
f 107/260/1 105/262/1 18/263/1
f 105/262/1 103/264/1 18/263/1
f 103/264/1 101/265/1 13/266/1
f 18/263/1 103/264/1 13/266/1
f 101/265/1 99/267/1 19/268/1
f 99/267/1 97/269/1 21/270/1
f 97/269/1 95/271/1 20/272/1
f 95/271/1 93/273/1 20/272/1
f 93/273/1 91/274/1 23/275/1
f 91/274/1 89/276/1 32/277/1
f 89/276/1 87/278/1 32/277/1
f 87/278/1 85/279/1 26/280/1
f 32/277/1 87/278/1 26/280/1
f 85/279/1 30/281/1 26/280/1
f 91/274/1 32/277/1 23/275/1
f 99/267/1 21/270/1 19/268/1
f 107/260/1 18/263/1 8/261/1
f 7/256/1 113/257/1 5/259/1
f 123/248/1 11/251/1 14/249/1
f 67/242/1 17/244/1 16/239/1
f 15/246/1 17/244/1 65/243/1
f 1/282/1 15/246/1 125/247/1
f 93/273/1 23/275/1 3/283/1
f 93/273/1 3/283/1 20/272/1
f 14/249/1 1/282/1 125/247/1
f 97/269/1 20/272/1 21/270/1
f 101/265/1 19/268/1 12/284/1
f 10/285/1 9/254/1 117/253/1
f 7/256/1 10/285/1 117/253/1
f 101/265/1 12/284/1 13/266/1
f 109/1/1 8/261/1 2/2/1
f 72/4/2 74/68/2 137/5/2
f 31/286/1 30/281/1 85/279/1
f 85/279/1 83/287/1 31/286/1
f 83/287/1 81/288/1 28/289/1
f 81/288/1 79/290/1 29/9/1
f 79/290/1 77/7/1 29/9/1
f 77/7/1 75/291/1 25/292/1
f 75/291/1 73/293/1 27/294/1
f 73/293/1 71/295/1 27/294/1
f 71/295/1 69/241/1 22/296/1
f 27/294/1 71/295/1 22/296/1
f 69/241/1 24/240/1 22/296/1
f 75/291/1 27/294/1 25/292/1
f 83/287/1 28/289/1 31/286/1
f 29/9/1 28/289/1 81/288/1
f 77/7/1 25/292/1 4/8/1
f 76/10/3 78/13/3 141/11/3
f 78/13/4 80/71/4 143/14/4
f 43/297/5 44/298/5 144/299/5
f 144/299/5 146/300/5 43/297/5
f 146/300/5 148/301/5 46/302/5
f 148/301/5 150/303/5 45/304/5
f 150/303/5 152/305/5 45/304/5
f 152/305/5 154/306/5 34/307/5
f 154/306/5 156/308/5 49/309/5
f 34/307/5 154/306/5 49/309/5
f 156/308/5 158/310/5 39/311/5
f 158/310/5 160/15/5 40/312/5
f 39/311/5 158/310/5 40/312/5
f 160/15/5 162/313/5 62/16/5
f 162/313/5 164/314/5 60/315/5
f 164/314/5 166/316/5 63/317/5
f 166/316/5 168/318/5 63/317/5
f 168/318/5 170/319/5 56/320/5
f 170/319/5 172/321/5 55/322/5
f 172/321/5 174/323/5 55/322/5
f 174/323/5 176/324/5 51/325/5
f 55/322/5 174/323/5 51/325/5
f 176/324/5 52/326/5 51/325/5
f 170/319/5 55/322/5 56/320/5
f 162/313/5 60/315/5 62/16/5
f 146/300/5 46/302/5 43/297/5
f 45/304/5 46/302/5 148/301/5
f 34/307/5 45/304/5 152/305/5
f 168/318/5 56/320/5 35/327/5
f 168/318/5 35/327/5 63/317/5
f 49/309/5 156/308/5 39/311/5
f 164/314/5 63/317/5 60/315/5
f 61/17/5 40/312/5 160/15/5
f 82/18/6 84/21/6 147/19/6
f 84/21/7 86/23/7 149/22/7
f 86/23/8 88/25/8 151/24/8
f 88/25/9 90/27/9 153/26/9
f 90/27/10 92/29/10 155/28/10
f 92/29/11 94/31/11 157/30/11
f 94/31/12 96/33/12 159/32/12
f 96/33/13 98/35/13 161/34/13
f 98/35/14 100/37/14 163/36/14
f 100/37/15 102/39/15 165/38/15
f 102/39/16 104/41/16 167/40/16
f 104/41/17 106/43/17 169/42/17
f 106/43/18 108/45/18 171/44/18
f 108/45/19 110/47/19 173/46/19
f 110/47/20 112/49/20 175/48/20
f 112/49/21 114/51/21 177/50/21
f 114/51/22 116/53/22 179/52/22
f 116/53/23 118/55/23 181/54/23
f 118/55/24 120/57/24 183/56/24
f 120/57/25 122/59/25 185/58/25
f 122/59/26 124/61/26 187/60/26
f 124/61/27 126/64/27 189/62/27
f 126/64/28 128/72/28 191/65/28
f 70/66/29 72/4/29 135/6/29
f 74/68/30 76/10/30 139/12/30
f 68/69/31 70/66/31 133/67/31
f 80/71/32 82/18/32 145/20/32
f 128/72/33 66/191/33 130/73/33
f 16/74/14 17/328/14 37/75/14
f 24/77/15 16/74/15 38/76/15
f 22/79/16 24/77/16 41/78/16
f 27/81/17 22/329/17 33/82/17
f 27/81/18 48/83/18 42/84/18
f 25/85/19 42/84/19 47/86/19
f 4/87/20 47/86/20 44/88/20
f 29/89/21 44/88/21 43/90/21
f 28/91/22 43/90/22 46/92/22
f 31/93/23 46/92/23 45/94/23
f 30/95/24 45/94/24 34/96/24
f 26/97/25 34/96/25 49/98/25
f 32/99/26 49/98/26 39/100/26
f 23/101/27 39/100/27 40/102/27
f 3/103/28 40/102/28 61/104/28
f 20/105/33 61/104/33 62/106/33
f 21/107/34 62/106/34 60/108/34
f 19/109/31 60/108/31 63/110/31
f 12/111/29 63/110/29 35/112/29
f 13/113/2 35/112/2 56/114/2
f 8/116/30 18/115/30 56/114/30
f 2/118/3 8/116/3 55/117/3
f 6/120/4 2/118/4 51/119/4
f 5/122/32 6/120/32 52/121/32
f 7/124/6 5/122/6 50/123/6
f 10/126/7 7/124/7 53/125/7
f 9/128/8 10/126/8 57/127/8
f 11/130/9 9/128/9 36/129/9
f 14/132/10 11/130/10 54/131/10
f 1/134/11 14/132/11 59/133/11
f 15/136/12 1/134/12 58/135/12
f 17/138/13 15/136/13 64/137/13
f 127/140/35 128/72/35 126/64/35
f 65/142/36 67/330/36 68/69/36
f 67/144/37 69/331/37 70/66/37
f 71/145/38 72/4/38 70/66/38
f 73/147/39 74/68/39 72/4/39
f 75/149/40 76/10/40 74/68/40
f 77/151/41 78/13/41 76/10/41
f 79/153/99 80/71/99 78/13/99
f 81/155/43 82/18/43 80/71/43
f 81/157/44 83/332/44 84/21/44
f 83/158/45 85/333/45 86/23/45
f 85/159/46 87/334/46 88/25/46
f 87/160/47 89/335/47 90/27/47
f 91/161/48 92/29/48 90/27/48
f 93/163/49 94/31/49 92/29/49
f 95/165/50 96/33/50 94/31/50
f 97/167/51 98/35/51 96/33/51
f 99/169/52 100/37/52 98/35/52
f 99/171/53 101/336/53 102/39/53
f 101/172/54 103/337/54 104/41/54
f 103/173/55 105/338/55 106/43/55
f 107/174/56 108/45/56 106/43/56
f 109/176/57 110/47/57 108/45/57
f 111/178/58 112/49/58 110/47/58
f 113/180/59 114/51/59 112/49/59
f 113/182/60 115/339/60 116/53/60
f 115/183/61 117/340/61 118/55/61
f 119/184/62 120/57/62 118/55/62
f 121/186/63 122/59/63 120/57/63
f 121/188/64 123/341/64 124/61/64
f 123/189/65 125/342/65 126/64/65
f 128/72/66 127/343/66 65/190/66
f 66/143/34 68/69/34 131/70/34
f 131/70/67 132/344/67 129/193/67
f 133/67/68 134/345/68 132/194/68
f 133/67/69 135/6/69 136/195/69
f 135/6/70 137/5/70 138/197/70
f 139/12/71 140/346/71 138/199/71
f 141/11/72 142/347/72 140/200/72
f 141/11/73 143/14/73 144/201/73
f 145/20/100 146/348/100 144/203/100
f 147/19/75 148/349/75 146/204/75
f 149/22/101 150/350/101 148/205/101
f 149/22/77 151/24/77 152/206/77
f 151/24/78 153/26/78 154/208/78
f 155/28/79 156/351/79 154/210/79
f 157/30/80 158/352/80 156/211/80
f 157/30/81 159/32/81 160/212/81
f 161/34/82 162/353/82 160/214/82
f 161/34/83 163/36/83 164/215/83
f 165/38/84 166/354/84 164/217/84
f 167/40/85 168/355/85 166/218/85
f 167/40/86 169/42/86 170/219/86
f 171/44/87 172/356/87 170/221/87
f 173/46/88 174/357/88 172/222/88
f 175/48/89 176/358/89 174/223/89
f 177/50/90 178/359/90 176/224/90
f 177/50/91 179/52/91 180/225/91
f 181/54/92 182/360/92 180/227/92
f 183/56/93 184/361/93 182/228/93
f 183/56/94 185/58/94 186/229/94
f 187/60/95 188/362/95 186/231/95
f 189/62/96 190/363/96 188/232/96
f 191/65/102 192/364/102 190/233/102
f 192/234/98 191/65/98 130/73/98
f 50/365/5 52/326/5 176/324/5
f 176/324/5 178/366/5 50/365/5
f 178/366/5 180/367/5 53/368/5
f 180/367/5 182/369/5 57/370/5
f 182/369/5 184/371/5 57/370/5
f 184/371/5 186/372/5 36/373/5
f 186/372/5 188/374/5 54/375/5
f 36/373/5 186/372/5 54/375/5
f 188/374/5 190/376/5 59/377/5
f 190/376/5 192/236/5 58/378/5
f 59/377/5 190/376/5 58/378/5
f 192/236/5 129/379/5 37/237/5
f 129/379/5 132/380/5 38/381/5
f 132/380/5 134/382/5 41/383/5
f 134/382/5 136/384/5 41/383/5
f 136/384/5 138/385/5 48/386/5
f 138/385/5 140/387/5 42/388/5
f 140/387/5 142/389/5 42/388/5
f 142/389/5 144/299/5 47/390/5
f 42/388/5 142/389/5 47/390/5
f 144/299/5 44/298/5 47/390/5
f 138/385/5 42/388/5 48/386/5
f 129/379/5 38/381/5 37/237/5
f 178/366/5 53/368/5 50/365/5
f 57/370/5 53/368/5 180/367/5
f 36/373/5 57/370/5 184/371/5
f 136/384/5 48/386/5 33/391/5
f 136/384/5 33/391/5 41/383/5
f 54/375/5 188/374/5 59/377/5
f 132/380/5 41/383/5 38/381/5
f 64/238/5 58/378/5 192/236/5
o Pipe.003_平面.004
v 0.705648 0.610086 0.878994
v 0.743831 0.610086 0.842121
v 0.719800 0.610086 0.855442
v 0.705168 0.610086 0.906467
v 0.771304 0.610086 0.842601
v 0.718489 0.610086 0.930498
v 0.794856 0.610086 0.856752
v 0.742042 0.610086 0.944650
v 0.808177 0.610086 0.880784
v 0.769514 0.610086 0.945130
v 0.807698 0.610086 0.908257
v 0.793546 0.610086 0.931808
v 0.628222 0.431635 0.722404
v 0.590039 0.431635 0.759278
v 0.609131 0.438747 0.740841
v 0.576063 0.412207 0.772774
v 0.642198 0.412207 0.708908
v 0.570947 0.385666 0.777714
v 0.647314 0.385666 0.703967
v 0.576063 0.359126 0.772774
v 0.642198 0.359126 0.708908
v 0.590039 0.339697 0.759278
v 0.628222 0.339697 0.722404
v 0.609131 0.332585 0.740841
v 0.750877 0.412059 0.821449
v 0.647314 0.385666 0.703967
v 0.642198 0.412207 0.708908
v 0.735480 0.431380 0.833473
v 0.628222 0.431635 0.722404
v 0.715869 0.438452 0.851371
v 0.609131 0.438747 0.740841
v 0.590039 0.431635 0.759278
v 0.576063 0.412207 0.772774
v 0.697297 0.431380 0.870347
v 0.570947 0.385666 0.777714
v 0.684742 0.412059 0.885315
v 0.576063 0.359126 0.772774
v 0.681567 0.385666 0.892264
v 0.590039 0.339697 0.759278
v 0.688623 0.359273 0.889334
v 0.609131 0.332585 0.740841
v 0.704020 0.339952 0.877308
v 0.742203 0.339952 0.840435
v 0.628222 0.339697 0.722404
v 0.754758 0.359273 0.825468
v 0.642198 0.359126 0.708908
v 0.757933 0.385666 0.818517
v 0.765562 0.414573 0.836655
v 0.743824 0.430467 0.842113
v 0.721891 0.436284 0.857607
v 0.705640 0.430467 0.878987
v 0.699426 0.414573 0.900521
v 0.704916 0.392862 0.916442
v 0.720635 0.371151 0.922483
v 0.723631 0.332880 0.859409
v 0.742374 0.355258 0.917025
v 0.780557 0.355258 0.880152
v 0.786770 0.371151 0.858617
v 0.781282 0.392862 0.842696
v 0.794856 0.424303 0.856752
v 0.772012 0.431587 0.843334
v 0.745057 0.436920 0.843391
v 0.706874 0.436920 0.880264
v 0.705876 0.431587 0.907200
v 0.718489 0.424303 0.930498
v 0.741333 0.417018 0.943916
v 0.768287 0.411685 0.943859
v 0.792130 0.409733 0.930342
v 0.764307 0.349440 0.901530
v 0.806471 0.411685 0.906986
v 0.807468 0.417018 0.880050
v 0.794856 0.610086 0.856752
v 0.771304 0.610086 0.842601
v 0.721216 0.438872 0.856908
v 0.743831 0.610086 0.842121
v 0.705648 0.610086 0.878994
v 0.705168 0.610086 0.906467
v 0.718489 0.610086 0.930498
v 0.742042 0.610086 0.944650
v 0.769514 0.610086 0.945130
v 0.793546 0.610086 0.931808
v 0.807698 0.610086 0.908257
v 0.808177 0.610086 0.880784
v 0.719800 0.610086 0.855442
v 0.605008 0.697257 0.947959
v 0.687323 0.668376 1.037294
v 0.689369 0.697257 1.035317
v 0.611067 0.611722 0.942107
v 0.705270 0.586127 1.019962
v 0.695429 0.611722 1.029465
v 0.620909 0.586127 0.932603
v 0.718514 0.563694 1.007173
v 0.634153 0.563694 0.919814
v 0.734652 0.545283 0.991589
v 0.650290 0.545283 0.904230
v 0.753062 0.531602 0.973809
v 0.668701 0.531602 0.886451
v 0.773040 0.523177 0.954517
v 0.688678 0.523177 0.867159
v 0.793816 0.520333 0.934454
v 0.709454 0.520333 0.847095
v 0.814591 0.523177 0.914392
v 0.730230 0.523177 0.827033
v 0.834569 0.531602 0.895100
v 0.750207 0.531602 0.807741
v 0.852980 0.545283 0.877320
v 0.768619 0.545283 0.789961
v 0.869118 0.563694 0.861736
v 0.784756 0.563694 0.774377
v 0.882362 0.586127 0.848947
v 0.798000 0.586127 0.761588
v 0.892202 0.611722 0.839444
v 0.807841 0.611722 0.752085
v 0.898263 0.639494 0.833591
v 0.813901 0.639494 0.746232
v 0.900308 0.668376 0.831616
v 0.815947 0.668376 0.744257
v 0.898263 0.697257 0.833591
v 0.813901 0.697257 0.746232
v 0.892202 0.725029 0.839444
v 0.807841 0.725029 0.752085
v 0.882362 0.750624 0.848947
v 0.798000 0.750624 0.761588
v 0.869118 0.773058 0.861736
v 0.784756 0.773058 0.774377
v 0.852980 0.791469 0.877320
v 0.768619 0.791469 0.789961
v 0.834569 0.805149 0.895100
v 0.750207 0.805149 0.807741
v 0.814591 0.813574 0.914392
v 0.730230 0.813574 0.827033
v 0.793816 0.816418 0.934454
v 0.709454 0.816418 0.847095
v 0.773040 0.813574 0.954517
v 0.688679 0.813574 0.867159
v 0.753062 0.805149 0.973809
v 0.668701 0.805149 0.886451
v 0.734652 0.791469 0.991588
v 0.650290 0.791469 0.904230
v 0.718514 0.773058 1.007172
v 0.634153 0.773058 0.919814
v 0.705270 0.750624 1.019962
v 0.620909 0.750624 0.932603
v 0.695429 0.725029 1.029465
v 0.611068 0.725029 0.942107
v 0.602961 0.668376 0.949935
v 0.689369 0.639494 1.035317
v 0.637252 0.626789 0.916859
v 0.679559 0.768775 0.876004
v 0.781695 0.709962 0.777373
v 0.605008 0.639494 0.947959
v 0.618417 0.668376 0.909262
v 0.619919 0.647175 0.907812
v 0.624367 0.626789 0.903516
v 0.631591 0.608001 0.896540
v 0.641312 0.591533 0.887152
v 0.653159 0.578018 0.875713
v 0.666674 0.567976 0.862661
v 0.681338 0.561792 0.848500
v 0.696589 0.559704 0.833773
v 0.711839 0.561792 0.819045
v 0.726504 0.567976 0.804884
v 0.740018 0.578018 0.791833
v 0.751864 0.591533 0.780394
v 0.761586 0.608001 0.771005
v 0.768810 0.626789 0.764030
v 0.773258 0.647175 0.759734
v 0.774760 0.668376 0.758283
v 0.773258 0.689576 0.759734
v 0.768810 0.709962 0.764030
v 0.761586 0.728750 0.771005
v 0.751864 0.745218 0.780394
v 0.740018 0.758733 0.791833
v 0.726504 0.768775 0.804884
v 0.711839 0.774959 0.819045
v 0.696589 0.777047 0.833773
v 0.681338 0.774959 0.848500
v 0.666674 0.768775 0.862661
v 0.653159 0.758733 0.875713
v 0.641312 0.745218 0.887152
v 0.631591 0.728750 0.896540
v 0.624367 0.709963 0.903516
v 0.619919 0.689576 0.907812
v 0.654198 0.591533 0.900495
v 0.774471 0.608001 0.784348
v 0.739389 0.768775 0.818227
v 0.632804 0.689576 0.921155
v 0.724725 0.561792 0.832388
v 0.666044 0.758733 0.889056
v 0.631302 0.668376 0.922606
v 0.666044 0.578018 0.889056
v 0.781695 0.626789 0.777373
v 0.724725 0.774959 0.832388
v 0.632804 0.647175 0.921155
v 0.739389 0.567976 0.818227
v 0.774471 0.728750 0.784348
v 0.654198 0.745218 0.900495
v 0.679559 0.567976 0.876004
v 0.786143 0.647175 0.773077
v 0.709474 0.777047 0.847116
v 0.752903 0.578018 0.805176
v 0.764749 0.745218 0.793737
v 0.644477 0.728750 0.909883
v 0.694223 0.561792 0.861843
v 0.787645 0.668376 0.771626
v 0.694223 0.774959 0.861843
v 0.644477 0.608001 0.909883
v 0.764749 0.591533 0.793737
v 0.752903 0.758733 0.805176
v 0.637252 0.709963 0.916859
v 0.709474 0.559704 0.847116
v 0.786143 0.689576 0.773077
vt 0.272727 0.000000
vt 0.090909 0.000000
vt 0.181818 0.000000
vt 0.363636 0.000000
vt 0.000000 0.000000
vt 0.454545 0.000000
vt 1.000000 0.000000
vt 0.545455 0.000000
vt 0.909091 0.000000
vt 0.636364 0.000000
vt 0.818182 0.000000
vt 0.727273 0.000000
vt 0.090909 0.000000
vt 0.272727 0.000000
vt 0.181818 0.000000
vt 0.363636 0.000000
vt 0.000000 0.000000
vt 0.454545 0.000000
vt 1.000000 0.000000
vt 0.545455 0.000000
vt 0.909091 0.000000
vt 0.636364 0.000000
vt 0.818182 0.000000
vt 0.727273 0.000000
vt 0.250000 1.000000
vt 0.000000 0.916667
vt 0.000000 1.000000
vt 0.250000 0.083333
vt 0.000000 0.000000
vt 0.000000 0.083333
vt 0.250000 0.166667
vt 0.000000 0.166667
vt 0.000000 0.250000
vt 0.000000 0.333333
vt 0.250000 0.250000
vt 0.000000 0.416667
vt 0.250000 0.333333
vt 0.000000 0.500000
vt 0.250000 0.416667
vt 0.000000 0.583333
vt 0.250000 0.500000
vt 0.000000 0.666667
vt 0.250000 0.583333
vt 0.250000 0.750000
vt 0.000000 0.750000
vt 0.250000 0.833333
vt 0.000000 0.833333
vt 0.250000 0.916667
vt 0.500000 1.000000
vt 0.500000 0.083333
vt 0.250000 0.000000
vt 0.500000 0.166667
vt 0.500000 0.250000
vt 0.500000 0.333333
vt 0.500000 0.416667
vt 0.500000 0.500000
vt 0.250000 0.666667
vt 0.500000 0.583333
vt 0.500000 0.750000
vt 0.500000 0.833333
vt 0.500000 0.916667
vt 0.750000 0.916667
vt 0.750000 0.000000
vt 0.500000 0.000000
vt 0.750000 0.083333
vt 0.750000 0.250000
vt 0.750000 0.333333
vt 0.750000 0.416667
vt 0.750000 0.500000
vt 0.750000 0.583333
vt 0.750000 0.666667
vt 0.500000 0.666667
vt 0.750000 0.750000
vt 0.750000 0.833333
vt 0.750000 1.000000
vt 1.000000 0.916667
vt 1.000000 0.000000
vt 0.750000 0.166667
vt 1.000000 0.083333
vt 1.000000 0.250000
vt 1.000000 0.333333
vt 1.000000 0.416667
vt 1.000000 0.500000
vt 1.000000 0.583333
vt 1.000000 0.666667
vt 1.000000 0.750000
vt 1.000000 0.833333
vt 1.000000 1.000000
vt 1.000000 0.166667
vt 0.031250 0.933834
vt 0.000000 0.500000
vt 0.031250 0.500000
vt 0.937500 0.933834
vt 0.906250 0.500000
vt 0.937500 0.500000
vt 0.906250 0.933834
vt 0.875000 0.500000
vt 0.875000 0.933834
vt 0.843750 0.500000
vt 0.843750 0.933834
vt 0.812500 0.500000
vt 0.812500 0.933834
vt 0.781250 0.500000
vt 0.781250 0.933834
vt 0.750000 0.500000
vt 0.750000 0.933834
vt 0.718750 0.500000
vt 0.718750 0.933834
vt 0.687500 0.500000
vt 0.687500 0.933834
vt 0.656250 0.500000
vt 0.656250 0.933834
vt 0.625000 0.500000
vt 0.625000 0.933834
vt 0.593750 0.500000
vt 0.593750 0.933834
vt 0.562500 0.500000
vt 0.562500 0.933834
vt 0.531250 0.500000
vt 0.531250 0.933834
vt 0.500000 0.500000
vt 0.500000 0.933834
vt 0.468750 0.500000
vt 0.468750 0.933834
vt 0.437500 0.500000
vt 0.437500 0.933834
vt 0.406250 0.500000
vt 0.406250 0.933834
vt 0.375000 0.500000
vt 0.375000 0.933834
vt 0.343750 0.500000
vt 0.343750 0.933834
vt 0.312500 0.500000
vt 0.312500 0.933834
vt 0.281250 0.500000
vt 0.281250 0.933834
vt 0.250000 0.500000
vt 0.250000 0.933834
vt 0.218750 0.500000
vt 0.218750 0.933834
vt 0.187500 0.500000
vt 0.187500 0.933834
vt 0.156250 0.500000
vt 0.156250 0.933834
vt 0.125000 0.500000
vt 0.125000 0.933834
vt 0.093750 0.500000
vt 0.093750 0.933834
vt 0.062500 0.500000
vt 0.062500 0.933834
vt 1.000000 0.933834
vt 0.968750 0.500000
vt 1.000000 0.500000
vt 0.317419 0.412763
vt 0.087237 0.317419
vt 0.182581 0.087237
vt 0.968750 0.933834
vt 0.985388 0.296822
vt 0.796822 0.014612
vt 0.514612 0.203178
vt 0.995845 1.000000
vt 0.972905 1.000000
vt 0.941655 1.000000
vt 0.910405 1.000000
vt 0.879155 1.000000
vt 0.847905 1.000000
vt 0.816655 1.000000
vt 0.808345 1.000000
vt 0.785405 1.000000
vt 0.754155 1.000000
vt 0.722905 1.000000
vt 0.714595 1.000000
vt 0.691655 1.000000
vt 0.660405 1.000000
vt 0.629155 1.000000
vt 0.620845 1.000000
vt 0.597905 1.000000
vt 0.589595 1.000000
vt 0.566655 1.000000
vt 0.535405 1.000000
vt 0.504155 1.000000
vt 0.472905 1.000000
vt 0.464595 1.000000
vt 0.441655 1.000000
vt 0.410405 1.000000
vt 0.402095 1.000000
vt 0.379155 1.000000
vt 0.370845 1.000000
vt 0.347905 1.000000
vt 0.316655 1.000000
vt 0.285405 1.000000
vt 0.254155 1.000000
vt 0.222905 1.000000
vt 0.191655 1.000000
vt 0.183345 1.000000
vt 0.160405 1.000000
vt 0.129155 1.000000
vt 0.097905 1.000000
vt 0.066655 1.000000
vt 0.058345 1.000000
vt 0.035405 1.000000
vt 0.000000 0.933834
vt 0.027095 1.000000
vt 0.004155 1.000000
vt 0.902095 1.000000
vt 0.879155 1.000000
vt 0.597905 1.000000
vt 0.339595 1.000000
vt 0.316655 1.000000
vt 0.035405 1.000000
vt 0.745845 1.000000
vt 0.722905 1.000000
vt 0.441655 1.000000
vt 0.160405 1.000000
vt 0.027095 1.000000
vt 0.004155 1.000000
vt 0.870845 1.000000
vt 0.847905 1.000000
vt 0.566655 1.000000
vt 0.308345 1.000000
vt 0.285405 1.000000
vt 0.972905 1.000000
vt 0.691655 1.000000
vt 0.433345 1.000000
vt 0.410405 1.000000
vt 0.152095 1.000000
vt 0.129155 1.000000
vt 0.839595 1.000000
vt 0.816655 1.000000
vt 0.558345 1.000000
vt 0.535405 1.000000
vt 0.277095 1.000000
vt 0.254155 1.000000
vt 0.964595 1.000000
vt 0.941655 1.000000
vt 0.683345 1.000000
vt 0.660405 1.000000
vt 0.379155 1.000000
vt 0.120845 1.000000
vt 0.097905 1.000000
vt 0.785405 1.000000
vt 0.527095 1.000000
vt 0.504155 1.000000
vt 0.245845 1.000000
vt 0.222905 1.000000
vt 0.933345 1.000000
vt 0.910405 1.000000
vt 0.652095 1.000000
vt 0.629155 1.000000
vt 0.347905 1.000000
vt 0.089595 1.000000
vt 0.066655 1.000000
vt 0.777095 1.000000
vt 0.754155 1.000000
vt 0.495845 1.000000
vt 0.472905 1.000000
vt 0.214595 1.000000
vt 0.191655 1.000000
vt 0.284370 0.422788
vt 0.182581 0.412763
vt 0.250000 0.426173
vt 0.215630 0.422788
vt 0.152123 0.396483
vt 0.125427 0.374573
vt 0.103517 0.347877
vt 0.077212 0.284370
vt 0.073827 0.250000
vt 0.077212 0.215630
vt 0.087237 0.182581
vt 0.103517 0.152123
vt 0.125427 0.125427
vt 0.152123 0.103517
vt 0.215630 0.077212
vt 0.250000 0.073827
vt 0.284370 0.077212
vt 0.317419 0.087237
vt 0.347877 0.103517
vt 0.412763 0.182581
vt 0.374573 0.125427
vt 0.396483 0.152123
vt 0.422788 0.215630
vt 0.426173 0.250000
vt 0.422788 0.284370
vt 0.412763 0.317419
vt 0.396483 0.347877
vt 0.374573 0.374573
vt 0.347877 0.396483
vt 0.703178 0.485388
vt 0.750000 0.490000
vt 0.796822 0.485388
vt 0.841844 0.471731
vt 0.883337 0.449553
vt 0.919706 0.419706
vt 0.949553 0.383337
vt 0.971731 0.341844
vt 0.990000 0.250000
vt 0.985388 0.203178
vt 0.971731 0.158156
vt 0.949553 0.116663
vt 0.919706 0.080294
vt 0.883337 0.050447
vt 0.841844 0.028269
vt 0.750000 0.010000
vt 0.703178 0.014612
vt 0.658156 0.028269
vt 0.616663 0.050447
vt 0.580294 0.080294
vt 0.550447 0.116663
vt 0.528269 0.158156
vt 0.510000 0.250000
vt 0.514612 0.296822
vt 0.528269 0.341844
vt 0.550447 0.383337
vt 0.580294 0.419706
vt 0.616663 0.449553
vt 0.658156 0.471731
vt 0.902095 1.000000
vt 0.620845 1.000000
vt 0.339595 1.000000
vt 0.058345 1.000000
vt 0.745845 1.000000
vt 0.464595 1.000000
vt 0.183345 1.000000
vt 0.870845 1.000000
vt 0.589595 1.000000
vt 0.308345 1.000000
vt 0.995845 1.000000
vt 0.714595 1.000000
vt 0.433345 1.000000
vt 0.152095 1.000000
vt 0.839595 1.000000
vt 0.558345 1.000000
vt 0.277095 1.000000
vt 0.964595 1.000000
vt 0.683345 1.000000
vt 0.402095 1.000000
vt 0.120845 1.000000
vt 0.808345 1.000000
vt 0.527095 1.000000
vt 0.245845 1.000000
vt 0.933345 1.000000
vt 0.652095 1.000000
vt 0.370845 1.000000
vt 0.089595 1.000000
vt 0.777095 1.000000
vt 0.495845 1.000000
vt 0.214595 1.000000
vn 0.0000 1.0000 0.0000
vn -0.6947 0.0000 -0.7193
vn 0.6948 0.2594 -0.6708
vn 0.6947 0.2597 -0.6708
vn 0.6950 0.2588 -0.6708
vn 0.5090 0.7077 -0.4900
vn 0.5082 0.7086 -0.4896
vn 0.5094 0.7071 -0.4903
vn 0.1871 0.9660 -0.1782
vn 0.1866 0.9662 -0.1778
vn 0.1875 0.9659 -0.1785
vn -0.1849 0.9659 0.1811
vn -0.5078 0.7071 0.4920
vn -0.6947 0.2588 0.6712
vn -0.6948 -0.2588 0.6710
vn -0.5082 -0.7071 0.4917
vn -0.1851 -0.9659 0.1809
vn 0.1870 -0.9660 -0.1785
vn 0.1867 -0.9662 -0.1780
vn 0.1872 -0.9659 -0.1787
vn 0.5088 -0.7076 -0.4903
vn 0.5083 -0.7085 -0.4896
vn 0.5091 -0.7071 -0.4907
vn 0.6948 -0.2592 -0.6709
vn 0.6948 -0.2596 -0.6707
vn 0.6948 -0.2588 -0.6710
vn 0.6736 0.2570 -0.6930
vn 0.5420 0.7109 -0.4482
vn 0.3390 0.9408 -0.0003
vn -0.0121 0.9408 0.3388
vn -0.4669 0.7109 0.5260
vn -0.7161 0.2570 0.6490
vn -0.6567 -0.2544 0.7099
vn -0.3826 -0.6884 0.6162
vn 0.0050 -0.9327 0.3606
vn -0.0023 -0.9319 0.3626
vn -0.0044 -0.9317 0.3633
vn 0.3625 -0.9319 0.0103
vn 0.3602 -0.9327 0.0176
vn 0.3632 -0.9317 0.0083
vn 0.6292 -0.6884 -0.3609
vn 0.7324 -0.2544 -0.6316
vn 0.5257 0.1476 -0.8378
vn 0.0263 0.3566 -0.9339
vn -0.5102 0.2598 -0.8198
vn -0.8015 0.2599 -0.5385
vn -0.9342 0.3566 -0.0063
vn -0.8556 0.1475 0.4962
vn -0.5300 -0.1503 0.8346
vn -0.5337 -0.1434 0.8334
vn -0.5295 -0.1511 0.8347
vn -0.0660 -0.4037 0.9125
vn 0.3865 -0.5363 0.7503
vn 0.3842 -0.5348 0.7526
vn 0.3872 -0.5369 0.7496
vn 0.7387 -0.5348 0.4102
vn 0.7364 -0.5364 0.4124
vn 0.7356 -0.5369 0.4131
vn 0.9143 -0.4037 -0.0341
vn 0.8516 -0.1434 -0.5043
vn 0.8526 -0.1503 -0.5005
vn 0.8527 -0.1511 -0.5000
vn 0.5065 0.0000 -0.8623
vn -0.0029 -0.0041 -1.0000
vn -0.4938 -0.0099 -0.8695
vn -0.8531 -0.0103 -0.5216
vn -0.8557 -0.0111 -0.5173
vn -0.8518 -0.0099 -0.5239
vn -0.9993 -0.0041 -0.0378
vn -0.8782 -0.0004 0.4783
vn -0.8759 -0.0011 0.4825
vn -0.8794 0.0000 0.4761
vn -0.5090 -0.0010 0.8608
vn -0.5129 -0.0004 0.8585
vn -0.5068 -0.0014 0.8620
vn 0.0009 -0.0064 1.0000
vn 0.4905 -0.0096 0.8714
vn 0.4869 -0.0090 0.8734
vn 0.4926 -0.0098 0.8702
vn 0.8525 -0.0098 0.5226
vn 0.9993 -0.0064 0.0357
vn 0.8792 -0.0014 -0.4764
vn 0.6946 0.2602 -0.6707
vn 0.5077 0.7091 -0.4893
vn 0.1863 0.9663 -0.1777
vn -0.1841 0.9663 0.1800
vn -0.5067 0.7091 0.4903
vn -0.6946 0.2602 0.6707
vn -0.6944 -0.2601 0.6709
vn -0.5065 -0.7090 0.4907
vn -0.1840 -0.9663 0.1801
vn 0.1865 -0.9663 -0.1776
vn 0.5080 -0.7090 -0.4891
vn 0.6947 -0.2602 -0.6706
vn 0.6500 0.2734 -0.7091
vn 0.4137 0.7454 -0.5227
vn 0.1973 0.9764 -0.0873
vn -0.0942 0.9765 0.1941
vn -0.5369 0.7454 0.3952
vn -0.7313 0.2733 0.6249
vn -0.6438 -0.2666 0.7172
vn -0.3581 -0.7015 0.6162
vn 0.0069 -0.9329 0.3601
vn 0.3596 -0.9329 0.0195
vn 0.6283 -0.7015 -0.3364
vn 0.7393 -0.2666 -0.6184
vn 0.5321 0.1269 -0.8371
vn 0.0350 0.1876 -0.9816
vn -0.4843 -0.3434 -0.8047
vn -0.7873 -0.3434 -0.5121
vn -0.9822 0.1876 0.0008
vn -0.8551 0.1269 0.5026
vn -0.5346 -0.1417 0.8332
vn -0.0760 -0.3938 0.9161
vn 0.3834 -0.5343 0.7534
vn 0.7395 -0.5343 0.4094
vn 0.9181 -0.3938 -0.0440
vn 0.8513 -0.1417 -0.5052
vn 0.5150 -0.0015 -0.8572
vn 0.0174 -0.0072 -0.9998
vn -0.4848 -0.0115 -0.8746
vn -0.8571 -0.0115 -0.5150
vn -0.9998 -0.0072 -0.0174
vn -0.8746 -0.0015 0.4848
vn -0.5151 0.0000 0.8572
vn -0.0175 -0.0037 0.9998
vn 0.4848 -0.0086 0.8746
vn 0.8571 -0.0086 0.5150
vn 0.9998 -0.0037 0.0174
vn 0.8746 0.0000 -0.4848
vn -0.7159 0.0980 0.6913
vn -0.6344 -0.4714 0.6126
vn -0.5560 -0.6344 0.5370
vn -0.4563 -0.7730 0.4407
vn -0.3391 -0.8819 0.3275
vn -0.2088 -0.9569 0.2017
vn -0.0705 -0.9952 0.0681
vn 0.0705 -0.9952 -0.0681
vn 0.2088 -0.9569 -0.2017
vn 0.3391 -0.8819 -0.3275
vn 0.4563 -0.7730 -0.4407
vn 0.5560 -0.6344 -0.5370
vn 0.6344 -0.4714 -0.6126
vn 0.6884 -0.2903 -0.6647
vn 0.7159 -0.0980 -0.6913
vn 0.7159 0.0980 -0.6913
vn 0.6884 0.2903 -0.6647
vn 0.6344 0.4714 -0.6126
vn 0.5561 0.6344 -0.5370
vn 0.4563 0.7730 -0.4407
vn 0.3391 0.8819 -0.3274
vn 0.2088 0.9569 -0.2017
vn 0.0705 0.9952 -0.0681
vn -0.0705 0.9952 0.0681
vn -0.2088 0.9569 0.2017
vn -0.3391 0.8819 0.3275
vn -0.4563 0.7730 0.4407
vn -0.5561 0.6344 0.5370
vn -0.6344 0.4714 0.6126
vn -0.6884 0.2903 0.6647
vn -0.6884 0.2903 0.6648
vn -0.7159 -0.0980 0.6913
vn -0.6884 -0.2903 0.6648
vn -0.6884 -0.2903 0.6647
vn 0.6947 -0.0000 0.7193
vn -0.9340 -0.0419 -0.3549
vn -0.9222 -0.1241 -0.3663
vn -0.8991 -0.2015 -0.3885
vn -0.8657 -0.2711 -0.4209
vn -0.8231 -0.3304 -0.4620
vn -0.7729 -0.3769 -0.5104
vn -0.7730 -0.3769 -0.5104
vn -0.7173 -0.4090 -0.5642
vn -0.7173 -0.4089 -0.5642
vn -0.6582 -0.4253 -0.6213
vn -0.6582 -0.4253 -0.6212
vn -0.5979 -0.4253 -0.6794
vn -0.5388 -0.4090 -0.7365
vn -0.4831 -0.3769 -0.7903
vn -0.4330 -0.3304 -0.8387
vn -0.3904 -0.2711 -0.8798
vn -0.3569 -0.2014 -0.9122
vn -0.3339 -0.1241 -0.9344
vn -0.3221 -0.0419 -0.9458
vn -0.3221 0.0419 -0.9458
vn -0.3339 0.1241 -0.9344
vn -0.3569 0.2014 -0.9122
vn -0.3904 0.2711 -0.8798
vn -0.4330 0.3303 -0.8387
vn -0.4831 0.3769 -0.7903
vn -0.5388 0.4090 -0.7365
vn -0.5979 0.4253 -0.6794
vn -0.6582 0.4253 -0.6212
vn -0.6582 0.4253 -0.6213
vn -0.7173 0.4090 -0.5642
vn -0.7729 0.3769 -0.5104
vn -0.8231 0.3304 -0.4620
vn -0.8230 0.3304 -0.4620
vn -0.8657 0.2711 -0.4209
vn -0.8991 0.2015 -0.3885
vn -0.9222 0.1240 -0.3663
vn -0.9340 0.0419 -0.3549
vn 0.3391 -0.8819 -0.3274
vn -0.2088 -0.9569 0.2016
vn -0.2088 0.9569 0.2016
vn -0.5561 -0.6344 0.5370
vn 0.5561 -0.6344 -0.5370
vn 0.2088 -0.9569 -0.2016
vn -0.6946 -0.0000 -0.7194
vn -0.6946 -0.0000 -0.7193
vn 0.6946 0.0000 0.7194
vn 0.6946 0.0000 0.7193
vn 0.2088 0.9569 -0.2016
usemtl None.001
s 1
f 193/392/103 194/393/103 195/394/103
f 196/395/103 194/393/103 193/392/103
f 196/395/103 197/396/103 194/393/103
f 198/397/103 197/396/103 196/395/103
f 198/397/103 199/398/103 197/396/103
f 200/399/103 199/398/103 198/397/103
f 200/399/103 201/400/103 199/398/103
f 202/401/103 201/400/103 200/399/103
f 202/401/103 203/402/103 201/400/103
f 204/403/103 203/402/103 202/401/103
f 205/404/104 206/405/104 207/406/104
f 205/404/104 208/407/104 206/405/104
f 209/408/104 208/407/104 205/404/104
f 209/408/104 210/409/104 208/407/104
f 211/410/104 210/409/104 209/408/104
f 211/410/104 212/411/104 210/409/104
f 213/412/104 212/411/104 211/410/104
f 213/412/104 214/413/104 212/411/104
f 215/414/104 214/413/104 213/412/104
f 215/414/104 216/415/104 214/413/104
f 217/416/105 218/417/106 219/418/107
f 220/419/108 219/420/109 221/421/110
f 222/422/111 221/421/112 223/423/113
f 224/424/114 222/422/114 223/423/114
f 225/425/115 226/426/115 224/424/115
f 227/427/116 228/428/116 225/425/116
f 229/429/117 230/430/117 227/427/117
f 231/431/118 232/432/118 229/429/118
f 233/433/119 234/434/119 231/431/119
f 235/435/120 233/433/121 236/436/122
f 237/437/123 236/436/124 238/438/125
f 239/439/126 238/438/127 218/417/128
f 240/440/129 239/439/129 217/416/129
f 241/441/130 217/442/130 220/419/130
f 242/443/131 220/419/131 222/422/131
f 226/426/132 242/443/132 222/422/132
f 228/428/133 243/444/133 226/426/133
f 230/430/134 244/445/134 228/428/134
f 232/432/135 245/446/135 230/430/135
f 234/434/136 246/447/136 232/432/136
f 247/448/137 248/449/138 234/434/139
f 249/450/140 247/448/141 235/435/142
f 250/451/143 235/435/143 237/437/143
f 251/452/144 237/437/144 239/439/144
f 240/440/145 252/453/145 251/452/145
f 241/441/146 253/454/146 240/455/146
f 242/443/147 254/456/147 241/441/147
f 255/457/148 242/443/148 243/444/148
f 256/458/149 243/444/149 244/445/149
f 257/459/150 244/445/150 245/446/150
f 258/460/151 245/446/152 246/447/153
f 259/461/154 246/447/154 248/449/154
f 260/462/155 248/449/156 261/463/157
f 249/450/158 260/462/159 261/463/160
f 250/451/161 262/464/161 249/450/161
f 251/452/162 263/465/163 250/451/164
f 253/466/165 264/467/165 252/453/165
f 254/456/166 265/468/166 253/454/166
f 266/469/167 267/470/167 254/456/167
f 268/471/168 266/469/169 255/457/170
f 269/472/171 255/457/171 256/458/171
f 270/473/172 256/458/173 257/459/174
f 271/474/175 257/459/176 258/460/177
f 272/475/178 258/460/178 259/461/178
f 273/476/179 259/461/180 260/462/181
f 262/464/182 273/476/182 260/462/182
f 263/465/183 274/477/183 262/464/183
f 252/453/184 275/478/184 263/465/184
f 217/416/105 239/439/185 218/417/106
f 220/419/108 217/442/186 219/420/109
f 222/422/111 220/419/187 221/421/112
f 224/424/188 226/426/188 222/422/188
f 225/425/189 228/428/189 226/426/189
f 227/427/190 230/430/190 228/428/190
f 229/429/191 232/432/191 230/430/191
f 231/431/192 234/434/192 232/432/192
f 233/433/193 247/448/193 234/434/193
f 235/435/120 247/448/194 233/433/121
f 237/437/123 235/435/195 236/436/124
f 239/439/126 237/437/196 238/438/127
f 240/440/197 251/452/197 239/439/197
f 241/441/198 240/455/198 217/442/198
f 242/443/199 241/441/199 220/419/199
f 226/426/200 243/444/200 242/443/200
f 228/428/201 244/445/201 243/444/201
f 230/430/202 245/446/202 244/445/202
f 232/432/203 246/447/203 245/446/203
f 234/434/204 248/449/204 246/447/204
f 247/448/137 261/463/205 248/449/138
f 249/450/140 261/463/206 247/448/141
f 250/451/207 249/450/207 235/435/207
f 251/452/208 250/451/208 237/437/208
f 240/440/209 253/466/209 252/453/209
f 241/441/210 254/456/210 253/454/210
f 242/443/211 266/469/211 254/456/211
f 255/457/212 266/469/212 242/443/212
f 256/458/213 255/457/213 243/444/213
f 257/459/214 256/458/214 244/445/214
f 258/460/151 257/459/215 245/446/152
f 259/461/216 258/460/216 246/447/216
f 260/462/155 259/461/217 248/449/156
f 249/450/158 262/464/218 260/462/159
f 250/451/219 263/465/219 262/464/219
f 251/452/162 252/453/220 263/465/163
f 253/466/221 265/479/221 264/467/221
f 254/456/222 267/470/222 265/468/222
f 266/469/223 276/480/223 267/470/223
f 268/471/168 276/480/224 266/469/169
f 269/472/225 268/471/225 255/457/225
f 270/473/172 269/472/226 256/458/173
f 271/474/175 270/473/227 257/459/176
f 272/475/228 271/474/228 258/460/228
f 273/476/179 272/475/229 259/461/180
f 262/464/230 274/477/230 273/476/230
f 263/465/231 275/478/231 274/477/231
f 252/453/232 264/467/232 275/478/232
f 277/481/233 278/482/233 279/483/233
f 280/484/234 281/485/234 282/486/234
f 283/487/235 284/488/235 281/485/235
f 285/489/236 286/490/236 284/488/236
f 287/491/237 288/492/237 286/490/237
f 289/493/238 290/494/238 288/492/238
f 291/495/239 292/496/239 290/494/239
f 293/497/240 294/498/240 292/496/240
f 295/499/241 296/500/241 294/498/241
f 297/501/242 298/502/242 296/500/242
f 299/503/243 300/504/243 298/502/243
f 301/505/244 302/506/244 300/504/244
f 303/507/245 304/508/245 302/506/245
f 305/509/246 306/510/246 304/508/246
f 307/511/247 308/512/247 306/510/247
f 309/513/248 310/514/248 308/512/248
f 311/515/249 312/516/249 310/514/249
f 313/517/250 314/518/250 312/516/250
f 315/519/251 316/520/251 314/518/251
f 317/521/252 318/522/252 316/520/252
f 319/523/253 320/524/253 318/522/253
f 321/525/254 322/526/254 320/524/254
f 323/527/255 324/528/255 322/526/255
f 325/529/256 326/530/256 324/528/256
f 327/531/257 328/532/257 326/530/257
f 329/533/258 330/534/258 328/532/258
f 331/535/259 332/536/259 330/534/259
f 333/537/260 334/538/260 332/536/260
f 335/539/261 336/540/261 334/538/261
f 337/541/262 279/483/263 336/540/263
f 338/542/264 339/543/264 278/544/264
f 340/545/104 341/546/104 342/547/104
f 343/548/265 282/486/266 339/543/266
f 290/549/267 306/550/267 322/551/267
f 343/548/268 344/552/268 345/553/268
f 343/548/269 346/554/269 280/484/269
f 280/484/270 347/555/270 283/487/270
f 283/487/271 348/556/271 285/489/271
f 285/489/272 349/557/272 287/491/272
f 287/491/273 350/558/273 289/493/274
f 291/495/275 350/559/275 351/560/276
f 291/495/277 352/561/278 293/497/277
f 293/497/279 353/562/279 295/499/279
f 297/501/280 353/563/280 354/564/280
f 297/501/281 355/565/281 299/503/281
f 299/503/282 356/566/282 301/505/282
f 303/507/283 356/567/283 357/568/283
f 305/509/284 357/569/284 358/570/284
f 305/509/285 359/571/285 307/511/285
f 307/511/286 360/572/286 309/513/286
f 309/513/287 361/573/287 311/515/287
f 313/517/288 361/574/288 362/575/288
f 313/517/289 363/576/289 315/519/289
f 317/521/290 363/577/290 364/578/290
f 319/523/291 364/579/291 365/580/291
f 319/523/292 366/581/292 321/525/292
f 321/525/293 367/582/293 323/527/293
f 323/527/294 368/583/294 325/529/294
f 325/529/295 369/584/295 327/531/296
f 327/531/297 370/585/297 329/533/297
f 331/535/298 370/586/298 371/587/298
f 331/535/299 372/588/300 333/537/299
f 333/537/301 373/589/301 335/539/301
f 335/539/302 374/590/302 337/541/302
f 277/481/303 374/591/303 375/592/303
f 338/593/304 375/594/304 344/595/304
f 347/596/251 376/597/251 348/556/251
f 356/567/260 377/598/260 357/568/260
f 365/599/237 378/600/237 366/581/237
f 374/591/246 379/601/246 375/592/246
f 352/602/256 380/603/256 353/562/256
f 361/574/266 342/604/266 362/575/265
f 370/586/305 381/605/305 371/587/305
f 344/595/247 379/606/247 382/607/247
f 348/608/252 383/609/252 349/557/252
f 357/569/261 384/610/261 358/570/261
f 366/611/306 385/612/306 367/582/306
f 344/552/248 386/613/248 345/553/248
f 353/563/257 387/614/307 354/564/307
f 362/615/234 388/616/234 363/576/234
f 371/617/243 389/618/243 372/588/243
f 349/619/253 390/620/253 350/558/253
f 358/621/262 391/622/262 359/571/263
f 367/623/239 392/624/239 368/583/239
f 345/625/249 340/626/249 346/554/249
f 354/627/258 393/628/258 355/565/258
f 363/577/308 394/629/308 364/578/308
f 372/630/309 395/631/309 373/589/309
f 350/559/254 396/632/254 351/560/254
f 359/633/233 397/634/233 360/572/233
f 368/635/240 398/636/240 369/584/240
f 346/637/250 399/638/250 347/555/250
f 355/639/259 400/640/259 356/566/259
f 364/579/236 401/641/236 365/580/236
f 373/642/245 402/643/245 374/590/245
f 351/644/255 403/645/255 352/561/255
f 360/646/264 404/647/264 361/573/264
f 369/648/310 341/649/310 370/585/241
f 277/481/233 338/593/233 278/482/233
f 280/484/234 283/487/234 281/485/234
f 283/487/235 285/489/235 284/488/235
f 285/489/236 287/491/236 286/490/236
f 287/491/237 289/493/237 288/492/237
f 289/493/238 291/495/238 290/494/238
f 291/495/239 293/497/239 292/496/239
f 293/497/240 295/499/240 294/498/240
f 295/499/241 297/501/241 296/500/241
f 297/501/242 299/503/242 298/502/242
f 299/503/243 301/505/243 300/504/243
f 301/505/244 303/507/244 302/506/244
f 303/507/245 305/509/245 304/508/245
f 305/509/246 307/511/246 306/510/246
f 307/511/247 309/513/247 308/512/247
f 309/513/248 311/515/248 310/514/248
f 311/515/249 313/517/249 312/516/249
f 313/517/250 315/519/250 314/518/250
f 315/519/251 317/521/251 316/520/251
f 317/521/252 319/523/252 318/522/252
f 319/523/253 321/525/253 320/524/253
f 321/525/254 323/527/254 322/526/254
f 323/527/255 325/529/255 324/528/255
f 325/529/256 327/531/256 326/530/256
f 327/531/257 329/533/257 328/532/257
f 329/533/258 331/535/258 330/534/258
f 331/535/259 333/537/259 332/536/259
f 333/537/260 335/539/260 334/538/260
f 335/539/261 337/541/261 336/540/261
f 337/541/262 277/481/262 279/483/263
f 338/542/264 343/548/264 339/543/264
f 340/545/104 386/650/104 402/651/104
f 386/650/104 382/652/104 402/651/104
f 382/652/104 379/653/104 402/651/104
f 402/651/104 395/654/104 389/655/104
f 389/655/104 381/656/311 341/546/104
f 341/546/104 398/657/104 392/658/104
f 392/658/104 385/659/104 341/546/104
f 385/659/104 378/660/104 341/546/104
f 378/660/104 401/661/311 394/662/104
f 394/662/104 388/663/104 378/660/104
f 388/663/104 342/547/104 378/660/104
f 342/547/104 404/664/104 397/665/104
f 397/665/104 391/666/104 384/667/104
f 384/667/104 377/668/104 387/669/104
f 377/668/104 400/670/104 387/669/104
f 400/670/104 393/671/312 387/669/104
f 387/669/104 380/672/311 403/673/104
f 403/673/104 396/674/104 387/669/104
f 396/674/104 390/675/104 387/669/104
f 390/675/104 383/676/104 340/545/104
f 383/676/104 376/677/311 340/545/104
f 376/677/311 399/678/104 340/545/104
f 402/651/104 389/655/104 341/546/104
f 342/547/104 397/665/104 384/667/104
f 340/545/104 402/651/104 341/546/104
f 341/546/104 378/660/104 342/547/104
f 342/547/104 384/667/104 387/669/104
f 387/669/104 390/675/104 342/547/104
f 390/675/104 340/545/104 342/547/104
f 343/548/265 280/484/265 282/486/266
f 279/679/267 278/680/267 339/681/267
f 339/681/267 282/682/267 281/683/267
f 281/683/267 284/684/267 286/685/267
f 286/685/267 288/686/267 290/549/267
f 290/549/267 292/687/267 294/688/267
f 294/688/267 296/689/267 298/690/267
f 298/690/267 300/691/267 302/692/267
f 302/692/267 304/693/313 306/550/267
f 306/550/267 308/694/267 310/695/267
f 310/695/267 312/696/313 314/697/267
f 314/697/267 316/698/267 318/699/267
f 318/699/267 320/700/267 322/551/267
f 322/551/267 324/701/267 326/702/267
f 326/702/267 328/703/267 322/551/267
f 328/703/267 330/704/267 322/551/267
f 330/704/267 332/705/314 334/706/267
f 334/706/267 336/707/267 330/704/267
f 336/707/267 279/679/267 330/704/267
f 279/679/267 339/681/267 290/549/267
f 339/681/267 281/683/267 290/549/267
f 281/683/267 286/685/267 290/549/267
f 290/549/267 294/688/267 298/690/267
f 298/690/267 302/692/267 290/549/267
f 302/692/267 306/550/267 290/549/267
f 306/550/267 310/695/267 322/551/267
f 310/695/267 314/697/267 322/551/267
f 314/697/267 318/699/267 322/551/267
f 322/551/267 330/704/267 279/679/267
f 279/679/267 290/549/267 322/551/267
f 343/548/268 338/542/268 344/552/268
f 343/548/269 345/625/269 346/554/269
f 280/484/270 346/637/270 347/555/270
f 283/487/271 347/596/271 348/556/271
f 285/489/272 348/608/272 349/557/272
f 287/491/273 349/619/273 350/558/273
f 291/495/275 289/493/275 350/559/275
f 291/495/277 351/644/278 352/561/278
f 293/497/279 352/602/279 353/562/279
f 297/501/280 295/499/280 353/563/280
f 297/501/281 354/627/281 355/565/281
f 299/503/282 355/639/282 356/566/282
f 303/507/283 301/505/283 356/567/283
f 305/509/284 303/507/284 357/569/284
f 305/509/285 358/621/285 359/571/285
f 307/511/286 359/633/286 360/572/286
f 309/513/287 360/646/287 361/573/287
f 313/517/288 311/515/288 361/574/288
f 313/517/289 362/615/289 363/576/289
f 317/521/290 315/519/290 363/577/290
f 319/523/291 317/521/291 364/579/291
f 319/523/292 365/599/292 366/581/292
f 321/525/293 366/611/293 367/582/293
f 323/527/294 367/623/294 368/583/294
f 325/529/295 368/635/295 369/584/295
f 327/531/297 369/648/297 370/585/297
f 331/535/298 329/533/298 370/586/298
f 331/535/299 371/617/300 372/588/300
f 333/537/301 372/630/301 373/589/301
f 335/539/302 373/642/302 374/590/302
f 277/481/303 337/541/303 374/591/303
f 338/593/304 277/481/304 375/594/304
f 347/596/251 399/708/251 376/597/251
f 356/567/260 400/709/260 377/598/260
f 365/599/237 401/710/237 378/600/237
f 374/591/246 402/711/246 379/601/246
f 352/602/256 403/712/256 380/603/256
f 361/574/266 404/713/266 342/604/266
f 370/586/305 341/714/242 381/605/305
f 344/595/247 375/594/247 379/606/247
f 348/608/252 376/715/252 383/609/252
f 357/569/261 377/716/261 384/610/261
f 366/611/306 378/717/306 385/612/306
f 344/552/248 382/718/248 386/613/248
f 353/563/257 380/719/257 387/614/307
f 362/615/234 342/720/234 388/616/234
f 371/617/243 381/721/243 389/618/243
f 349/619/253 383/722/253 390/620/253
f 358/621/262 384/723/262 391/622/262
f 367/623/239 385/724/239 392/624/239
f 345/625/249 386/725/249 340/626/249
f 354/627/258 387/726/258 393/628/258
f 363/577/308 388/727/308 394/629/308
f 372/630/309 389/728/309 395/631/309
f 350/559/254 390/729/315 396/632/254
f 359/633/233 391/730/233 397/634/233
f 368/635/240 392/731/240 398/636/240
f 346/637/250 340/732/250 399/638/250
f 355/639/259 393/733/259 400/640/259
f 364/579/236 394/734/236 401/641/236
f 373/642/245 395/735/245 402/643/245
f 351/644/255 396/736/255 403/645/255
f 360/646/264 397/737/264 404/647/264
f 369/648/310 398/738/310 341/649/310
o Pipe.003_平面.001
v -0.351991 0.610086 -1.079488
v -0.401621 0.610086 -1.060662
v -0.374284 0.610086 -1.063425
v -0.340715 0.610086 -1.104545
v -0.426678 0.610086 -1.071938
v -0.343479 0.610086 -1.131881
v -0.442740 0.610086 -1.094230
v -0.359541 0.610086 -1.154175
v -0.445504 0.610086 -1.121568
v -0.384598 0.610086 -1.165451
v -0.434228 0.610086 -1.146625
v -0.411935 0.610086 -1.162686
v -0.342597 0.431635 -0.905055
v -0.292967 0.431635 -0.923880
v -0.317782 0.438747 -0.914467
v -0.274801 0.412207 -0.930771
v -0.360763 0.412207 -0.898164
v -0.268152 0.385666 -0.933293
v -0.367413 0.385666 -0.895642
v -0.274801 0.359126 -0.930771
v -0.360763 0.359126 -0.898164
v -0.292967 0.339697 -0.923880
v -0.342597 0.339697 -0.905055
v -0.317782 0.332585 -0.914467
v -0.416249 0.412059 -1.044444
v -0.367413 0.385666 -0.895642
v -0.360763 0.412207 -0.898164
v -0.397358 0.431380 -1.049422
v -0.342597 0.431635 -0.905055
v -0.372278 0.438452 -1.058135
v -0.317782 0.438747 -0.914467
v -0.292967 0.431635 -0.923880
v -0.274801 0.412207 -0.930771
v -0.347727 0.431380 -1.068247
v -0.268152 0.385666 -0.933293
v -0.330287 0.412059 -1.077051
v -0.274801 0.359126 -0.930771
v -0.324628 0.385666 -1.082185
v -0.292967 0.339697 -0.923880
v -0.332268 0.359273 -1.082275
v -0.317782 0.332585 -0.914467
v -0.351160 0.339952 -1.077296
v -0.400790 0.339952 -1.058471
v -0.342597 0.339697 -0.905055
v -0.418231 0.359273 -1.049668
v -0.360763 0.359126 -0.898164
v -0.423890 0.385666 -1.044533
v -0.423747 0.414573 -1.064210
v -0.401618 0.430467 -1.060652
v -0.375352 0.436284 -1.066240
v -0.351987 0.430467 -1.079478
v -0.337784 0.414573 -1.096816
v -0.336549 0.392862 -1.113612
v -0.348612 0.371151 -1.125362
v -0.376240 0.332880 -1.068583
v -0.370741 0.355258 -1.128920
v -0.420372 0.355258 -1.110095
v -0.434574 0.371151 -1.092756
v -0.435810 0.392862 -1.075961
v -0.442740 0.424303 -1.094230
v -0.427039 0.431587 -1.072891
v -0.402247 0.436920 -1.062313
v -0.352617 0.436920 -1.081138
v -0.341077 0.431587 -1.105497
v -0.343479 0.424303 -1.131881
v -0.359179 0.417018 -1.153221
v -0.383971 0.411685 -1.163799
v -0.411213 0.409733 -1.160781
v -0.397007 0.349440 -1.123331
v -0.433602 0.411685 -1.144974
v -0.445142 0.417018 -1.120615
v -0.442740 0.610086 -1.094230
v -0.426678 0.610086 -1.071938
v -0.375007 0.438872 -1.065332
v -0.401621 0.610086 -1.060662
v -0.351991 0.610086 -1.079488
v -0.340715 0.610086 -1.104545
v -0.343479 0.610086 -1.131881
v -0.359541 0.610086 -1.154175
v -0.384598 0.610086 -1.165451
v -0.411935 0.610086 -1.162686
v -0.434228 0.610086 -1.146625
v -0.445504 0.610086 -1.121568
v -0.374284 0.610086 -1.063425
v -0.232310 0.697257 -1.103171
v -0.272720 0.668376 -1.217729
v -0.275380 0.697257 -1.216720
v -0.240186 0.611722 -1.100184
v -0.296048 0.586127 -1.208880
v -0.283257 0.611722 -1.213732
v -0.252978 0.586127 -1.095332
v -0.313262 0.563694 -1.202351
v -0.270192 0.563694 -1.088802
v -0.334238 0.545283 -1.194394
v -0.291168 0.545283 -1.080846
v -0.358168 0.531602 -1.185317
v -0.315098 0.531602 -1.071769
v -0.384135 0.523177 -1.175468
v -0.341065 0.523177 -1.061919
v -0.411140 0.520333 -1.165225
v -0.368069 0.520333 -1.051676
v -0.438143 0.523177 -1.154982
v -0.395073 0.523177 -1.041433
v -0.464110 0.531602 -1.145132
v -0.421040 0.531602 -1.031583
v -0.488041 0.545283 -1.136055
v -0.444971 0.545283 -1.022506
v -0.509017 0.563694 -1.128098
v -0.465946 0.563694 -1.014549
v -0.526231 0.586127 -1.121569
v -0.483161 0.586127 -1.008020
v -0.539022 0.611722 -1.116717
v -0.495952 0.611722 -1.003168
v -0.546899 0.639494 -1.113729
v -0.503829 0.639494 -1.000180
v -0.549559 0.668376 -1.112720
v -0.506488 0.668376 -0.999172
v -0.546899 0.697257 -1.113729
v -0.503829 0.697257 -1.000180
v -0.539022 0.725029 -1.116717
v -0.495952 0.725029 -1.003168
v -0.526231 0.750624 -1.121569
v -0.483161 0.750624 -1.008020
v -0.509017 0.773058 -1.128098
v -0.465947 0.773058 -1.014549
v -0.488041 0.791469 -1.136055
v -0.444971 0.791469 -1.022506
v -0.464110 0.805149 -1.145132
v -0.421040 0.805149 -1.031583
v -0.438144 0.813574 -1.154982
v -0.395073 0.813574 -1.041433
v -0.411140 0.816418 -1.165225
v -0.368069 0.816418 -1.051676
v -0.384135 0.813574 -1.175468
v -0.341065 0.813574 -1.061919
v -0.358168 0.805149 -1.185317
v -0.315098 0.805149 -1.071769
v -0.334238 0.791469 -1.194394
v -0.291168 0.791469 -1.080846
v -0.313262 0.773058 -1.202351
v -0.270192 0.773058 -1.088802
v -0.296048 0.750624 -1.208880
v -0.252978 0.750624 -1.095332
v -0.283257 0.725029 -1.213732
v -0.240186 0.725029 -1.100184
v -0.229650 0.668376 -1.104180
v -0.275380 0.639494 -1.216720
v -0.274205 0.626789 -1.087309
v -0.329195 0.768775 -1.066451
v -0.461952 0.709962 -1.016095
v -0.232310 0.639494 -1.103171
v -0.259893 0.668376 -1.072900
v -0.261845 0.647175 -1.072159
v -0.267627 0.626789 -1.069966
v -0.277017 0.608001 -1.066404
v -0.289653 0.591533 -1.061612
v -0.305050 0.578018 -1.055771
v -0.322617 0.567976 -1.049108
v -0.341678 0.561792 -1.041878
v -0.361501 0.559704 -1.034359
v -0.381323 0.561792 -1.026840
v -0.400384 0.567976 -1.019610
v -0.417950 0.578018 -1.012947
v -0.433348 0.591533 -1.007106
v -0.445984 0.608001 -1.002313
v -0.455373 0.626789 -0.998751
v -0.461155 0.647175 -0.996558
v -0.463108 0.668376 -0.995818
v -0.461155 0.689576 -0.996558
v -0.455373 0.709962 -0.998751
v -0.445984 0.728750 -1.002313
v -0.433348 0.745218 -1.007106
v -0.417950 0.758733 -1.012947
v -0.400384 0.768775 -1.019610
v -0.381323 0.774959 -1.026840
v -0.361501 0.777047 -1.034359
v -0.341678 0.774959 -1.041878
v -0.322617 0.768775 -1.049108
v -0.305050 0.758733 -1.055771
v -0.289653 0.745218 -1.061612
v -0.277017 0.728750 -1.066404
v -0.267627 0.709963 -1.069966
v -0.261845 0.689576 -1.072159
v -0.296231 0.591533 -1.078955
v -0.452563 0.608001 -1.019656
v -0.406963 0.768775 -1.036953
v -0.268423 0.689576 -1.089503
v -0.387902 0.561792 -1.044183
v -0.311629 0.758733 -1.073114
v -0.266471 0.668376 -1.090243
v -0.311629 0.578018 -1.073114
v -0.461952 0.626789 -1.016095
v -0.387902 0.774959 -1.044183
v -0.268423 0.647175 -1.089503
v -0.406963 0.567976 -1.036953
v -0.452563 0.728750 -1.019656
v -0.296231 0.745218 -1.078955
v -0.329195 0.567976 -1.066451
v -0.467734 0.647175 -1.013901
v -0.368079 0.777047 -1.051702
v -0.424529 0.578018 -1.030290
v -0.439926 0.745218 -1.024449
v -0.283596 0.728750 -1.083748
v -0.348256 0.561792 -1.059221
v -0.469686 0.668376 -1.013161
v -0.348256 0.774959 -1.059221
v -0.283596 0.608001 -1.083748
v -0.439926 0.591533 -1.024449
v -0.424529 0.758733 -1.030290
v -0.274205 0.709963 -1.087309
v -0.368079 0.559704 -1.051702
v -0.467734 0.689576 -1.013901
vt 0.272727 0.000000
vt 0.090909 0.000000
vt 0.181818 0.000000
vt 0.363636 0.000000
vt 0.000000 0.000000
vt 0.454545 0.000000
vt 1.000000 0.000000
vt 0.545455 0.000000
vt 0.909091 0.000000
vt 0.636364 0.000000
vt 0.818182 0.000000
vt 0.727273 0.000000
vt 0.090909 0.000000
vt 0.272727 0.000000
vt 0.181818 0.000000
vt 0.363636 0.000000
vt 0.000000 0.000000
vt 0.454545 0.000000
vt 1.000000 0.000000
vt 0.545455 0.000000
vt 0.909091 0.000000
vt 0.636364 0.000000
vt 0.818182 0.000000
vt 0.727273 0.000000
vt 0.250000 1.000000
vt 0.000000 0.916667
vt 0.000000 1.000000
vt 0.250000 0.083333
vt 0.000000 0.000000
vt 0.000000 0.083333
vt 0.250000 0.166667
vt 0.000000 0.166667
vt 0.000000 0.250000
vt 0.000000 0.333333
vt 0.250000 0.250000
vt 0.000000 0.416667
vt 0.250000 0.333333
vt 0.000000 0.500000
vt 0.250000 0.416667
vt 0.000000 0.583333
vt 0.250000 0.500000
vt 0.000000 0.666667
vt 0.250000 0.583333
vt 0.250000 0.750000
vt 0.000000 0.750000
vt 0.250000 0.833333
vt 0.000000 0.833333
vt 0.250000 0.916667
vt 0.500000 1.000000
vt 0.500000 0.083333
vt 0.250000 0.000000
vt 0.500000 0.166667
vt 0.500000 0.250000
vt 0.500000 0.333333
vt 0.500000 0.416667
vt 0.500000 0.500000
vt 0.250000 0.666667
vt 0.500000 0.583333
vt 0.500000 0.750000
vt 0.500000 0.833333
vt 0.500000 0.916667
vt 0.750000 0.916667
vt 0.750000 0.000000
vt 0.500000 0.000000
vt 0.750000 0.083333
vt 0.750000 0.250000
vt 0.750000 0.333333
vt 0.750000 0.416667
vt 0.750000 0.500000
vt 0.750000 0.583333
vt 0.750000 0.666667
vt 0.500000 0.666667
vt 0.750000 0.750000
vt 0.750000 0.833333
vt 0.750000 1.000000
vt 1.000000 0.916667
vt 1.000000 0.000000
vt 0.750000 0.166667
vt 1.000000 0.083333
vt 1.000000 0.250000
vt 1.000000 0.333333
vt 1.000000 0.416667
vt 1.000000 0.500000
vt 1.000000 0.583333
vt 1.000000 0.666667
vt 1.000000 0.750000
vt 1.000000 0.833333
vt 1.000000 1.000000
vt 1.000000 0.166667
vt 0.031250 0.933834
vt 0.000000 0.500000
vt 0.031250 0.500000
vt 0.937500 0.933834
vt 0.906250 0.500000
vt 0.937500 0.500000
vt 0.906250 0.933834
vt 0.875000 0.500000
vt 0.875000 0.933834
vt 0.843750 0.500000
vt 0.843750 0.933834
vt 0.812500 0.500000
vt 0.812500 0.933834
vt 0.781250 0.500000
vt 0.781250 0.933834
vt 0.750000 0.500000
vt 0.750000 0.933834
vt 0.718750 0.500000
vt 0.718750 0.933834
vt 0.687500 0.500000
vt 0.687500 0.933834
vt 0.656250 0.500000
vt 0.656250 0.933834
vt 0.625000 0.500000
vt 0.625000 0.933834
vt 0.593750 0.500000
vt 0.593750 0.933834
vt 0.562500 0.500000
vt 0.562500 0.933834
vt 0.531250 0.500000
vt 0.531250 0.933834
vt 0.500000 0.500000
vt 0.500000 0.933834
vt 0.468750 0.500000
vt 0.468750 0.933834
vt 0.437500 0.500000
vt 0.437500 0.933834
vt 0.406250 0.500000
vt 0.406250 0.933834
vt 0.375000 0.500000
vt 0.375000 0.933834
vt 0.343750 0.500000
vt 0.343750 0.933834
vt 0.312500 0.500000
vt 0.312500 0.933834
vt 0.281250 0.500000
vt 0.281250 0.933834
vt 0.250000 0.500000
vt 0.250000 0.933834
vt 0.218750 0.500000
vt 0.218750 0.933834
vt 0.187500 0.500000
vt 0.187500 0.933834
vt 0.156250 0.500000
vt 0.156250 0.933834
vt 0.125000 0.500000
vt 0.125000 0.933834
vt 0.093750 0.500000
vt 0.093750 0.933834
vt 0.062500 0.500000
vt 0.062500 0.933834
vt 1.000000 0.933834
vt 0.968750 0.500000
vt 1.000000 0.500000
vt 0.317419 0.412763
vt 0.087237 0.317419
vt 0.182581 0.087237
vt 0.968750 0.933834
vt 0.985388 0.296822
vt 0.796822 0.014612
vt 0.514612 0.203178
vt 0.995845 1.000000
vt 0.972905 1.000000
vt 0.941655 1.000000
vt 0.910405 1.000000
vt 0.879155 1.000000
vt 0.847905 1.000000
vt 0.816655 1.000000
vt 0.808345 1.000000
vt 0.785405 1.000000
vt 0.754155 1.000000
vt 0.722905 1.000000
vt 0.714595 1.000000
vt 0.691655 1.000000
vt 0.660405 1.000000
vt 0.629155 1.000000
vt 0.620845 1.000000
vt 0.597905 1.000000
vt 0.589595 1.000000
vt 0.566655 1.000000
vt 0.535405 1.000000
vt 0.504155 1.000000
vt 0.472905 1.000000
vt 0.464595 1.000000
vt 0.441655 1.000000
vt 0.410405 1.000000
vt 0.402095 1.000000
vt 0.379155 1.000000
vt 0.370845 1.000000
vt 0.347905 1.000000
vt 0.316655 1.000000
vt 0.285405 1.000000
vt 0.254155 1.000000
vt 0.222905 1.000000
vt 0.191655 1.000000
vt 0.183345 1.000000
vt 0.160405 1.000000
vt 0.129155 1.000000
vt 0.097905 1.000000
vt 0.066655 1.000000
vt 0.058345 1.000000
vt 0.035405 1.000000
vt 0.000000 0.933834
vt 0.027095 1.000000
vt 0.004155 1.000000
vt 0.902095 1.000000
vt 0.879155 1.000000
vt 0.597905 1.000000
vt 0.339595 1.000000
vt 0.316655 1.000000
vt 0.035405 1.000000
vt 0.745845 1.000000
vt 0.722905 1.000000
vt 0.441655 1.000000
vt 0.160405 1.000000
vt 0.027095 1.000000
vt 0.004155 1.000000
vt 0.870845 1.000000
vt 0.847905 1.000000
vt 0.566655 1.000000
vt 0.308345 1.000000
vt 0.285405 1.000000
vt 0.972905 1.000000
vt 0.691655 1.000000
vt 0.433345 1.000000
vt 0.410405 1.000000
vt 0.152095 1.000000
vt 0.129155 1.000000
vt 0.839595 1.000000
vt 0.816655 1.000000
vt 0.558345 1.000000
vt 0.535405 1.000000
vt 0.277095 1.000000
vt 0.254155 1.000000
vt 0.964595 1.000000
vt 0.941655 1.000000
vt 0.683345 1.000000
vt 0.660405 1.000000
vt 0.379155 1.000000
vt 0.120845 1.000000
vt 0.097905 1.000000
vt 0.785405 1.000000
vt 0.527095 1.000000
vt 0.504155 1.000000
vt 0.245845 1.000000
vt 0.222905 1.000000
vt 0.933345 1.000000
vt 0.910405 1.000000
vt 0.652095 1.000000
vt 0.629155 1.000000
vt 0.347905 1.000000
vt 0.089595 1.000000
vt 0.066655 1.000000
vt 0.777095 1.000000
vt 0.754155 1.000000
vt 0.495845 1.000000
vt 0.472905 1.000000
vt 0.214595 1.000000
vt 0.191655 1.000000
vt 0.284370 0.422788
vt 0.182581 0.412763
vt 0.250000 0.426173
vt 0.215630 0.422788
vt 0.152123 0.396483
vt 0.125427 0.374573
vt 0.103517 0.347877
vt 0.077212 0.284370
vt 0.073827 0.250000
vt 0.077212 0.215630
vt 0.087237 0.182581
vt 0.103517 0.152123
vt 0.125427 0.125427
vt 0.152123 0.103517
vt 0.215630 0.077212
vt 0.250000 0.073827
vt 0.284370 0.077212
vt 0.317419 0.087237
vt 0.347877 0.103517
vt 0.412763 0.182581
vt 0.374573 0.125427
vt 0.396483 0.152123
vt 0.422788 0.215630
vt 0.426173 0.250000
vt 0.422788 0.284370
vt 0.412763 0.317419
vt 0.396483 0.347877
vt 0.374573 0.374573
vt 0.347877 0.396483
vt 0.703178 0.485388
vt 0.750000 0.490000
vt 0.796822 0.485388
vt 0.841844 0.471731
vt 0.883337 0.449553
vt 0.919706 0.419706
vt 0.949553 0.383337
vt 0.971731 0.341844
vt 0.990000 0.250000
vt 0.985388 0.203178
vt 0.971731 0.158156
vt 0.949553 0.116663
vt 0.919706 0.080294
vt 0.883337 0.050447
vt 0.841844 0.028269
vt 0.750000 0.010000
vt 0.703178 0.014612
vt 0.658156 0.028269
vt 0.616663 0.050447
vt 0.580294 0.080294
vt 0.550447 0.116663
vt 0.528269 0.158156
vt 0.510000 0.250000
vt 0.514612 0.296822
vt 0.528269 0.341844
vt 0.550447 0.383337
vt 0.580294 0.419706
vt 0.616663 0.449553
vt 0.658156 0.471731
vt 0.902095 1.000000
vt 0.620845 1.000000
vt 0.339595 1.000000
vt 0.058345 1.000000
vt 0.745845 1.000000
vt 0.464595 1.000000
vt 0.183345 1.000000
vt 0.870845 1.000000
vt 0.589595 1.000000
vt 0.308345 1.000000
vt 0.995845 1.000000
vt 0.714595 1.000000
vt 0.433345 1.000000
vt 0.152095 1.000000
vt 0.839595 1.000000
vt 0.558345 1.000000
vt 0.277095 1.000000
vt 0.964595 1.000000
vt 0.683345 1.000000
vt 0.402095 1.000000
vt 0.120845 1.000000
vt 0.808345 1.000000
vt 0.527095 1.000000
vt 0.245845 1.000000
vt 0.933345 1.000000
vt 0.652095 1.000000
vt 0.370845 1.000000
vt 0.089595 1.000000
vt 0.777095 1.000000
vt 0.495845 1.000000
vt 0.214595 1.000000
vn 0.0000 1.0000 0.0000
vn 0.3547 0.0000 0.9350
vn -0.9030 0.2594 0.3424
vn -0.9029 0.2597 0.3424
vn -0.9032 0.2588 0.3423
vn -0.6610 0.7077 0.2496
vn -0.6601 0.7086 0.2495
vn -0.6615 0.7071 0.2497
vn -0.2423 0.9660 0.0899
vn -0.2416 0.9662 0.0898
vn -0.2427 0.9659 0.0901
vn 0.2413 0.9659 -0.0935
vn 0.6607 0.7071 -0.2519
vn 0.9031 0.2588 -0.3428
vn 0.9031 -0.2588 -0.3426
vn 0.6609 -0.7071 -0.2514
vn 0.2415 -0.9659 -0.0932
vn -0.2422 -0.9660 0.0902
vn -0.2418 -0.9662 0.0900
vn -0.2425 -0.9659 0.0904
vn -0.6609 -0.7076 0.2499
vn -0.6602 -0.7085 0.2494
vn -0.6614 -0.7071 0.2502
vn -0.9031 -0.2592 0.3425
vn -0.9030 -0.2596 0.3424
vn -0.9031 -0.2588 0.3426
vn -0.8923 0.2570 0.3712
vn -0.6748 0.7109 0.1982
vn -0.3116 0.9408 -0.1335
vn 0.1447 0.9408 -0.3066
vn 0.6365 0.7109 -0.2992
vn 0.9140 0.2570 -0.3140
vn 0.8835 -0.2544 -0.3934
vn 0.5946 -0.6884 -0.4153
vn 0.1376 -0.9327 -0.3333
vn 0.1452 -0.9319 -0.3323
vn 0.1473 -0.9317 -0.3321
vn -0.3291 -0.9319 -0.1524
vn -0.3241 -0.9327 -0.1582
vn -0.3305 -0.9317 -0.1509
vn -0.7205 -0.6884 0.0835
vn -0.9221 -0.2544 0.2915
vn -0.8135 0.1476 0.5625
vn -0.3924 0.3566 0.8478
vn 0.1455 0.2599 0.9546
vn 0.5242 0.2599 0.8110
vn 0.8560 0.3566 0.3743
vn 0.9819 0.1475 -0.1185
vn 0.8162 -0.1503 -0.5579
vn 0.8191 -0.1434 -0.5554
vn 0.8158 -0.1511 -0.5582
vn 0.4205 -0.4037 -0.8125
vn -0.0593 -0.5363 -0.8419
vn -0.0563 -0.5348 -0.8431
vn -0.0601 -0.5369 -0.8415
vn -0.5170 -0.5348 -0.6683
vn -0.5140 -0.5364 -0.6694
vn -0.5131 -0.5369 -0.6697
vn -0.8536 -0.4037 -0.3292
vn -0.9814 -0.1434 0.1275
vn -0.9809 -0.1503 0.1237
vn -0.9808 -0.1511 0.1232
vn -0.8055 0.0000 0.5926
vn -0.3917 -0.0041 0.9201
vn 0.1108 -0.0099 0.9938
vn 0.5783 -0.0103 0.8158
vn 0.5823 -0.0111 0.8129
vn 0.5761 -0.0099 0.8173
vn 0.9034 -0.0041 0.4289
vn 0.9956 -0.0004 -0.0932
vn 0.9952 -0.0011 -0.0980
vn 0.9959 0.0000 -0.0907
vn 0.8072 -0.0010 -0.5903
vn 0.8099 -0.0004 -0.5866
vn 0.8057 -0.0014 -0.5923
vn 0.3936 -0.0064 -0.9193
vn -0.1071 -0.0096 -0.9942
vn -0.1029 -0.0090 -0.9946
vn -0.1094 -0.0098 -0.9939
vn -0.5773 -0.0098 -0.8165
vn -0.9042 -0.0064 -0.4270
vn -0.9958 -0.0014 0.0910
vn -0.9028 0.2602 0.3424
vn -0.6595 0.7091 0.2494
vn -0.2413 0.9663 0.0898
vn 0.2401 0.9663 -0.0928
vn 0.6590 0.7091 -0.2507
vn 0.9028 0.2602 -0.3424
vn 0.9027 -0.2601 -0.3427
vn 0.6590 -0.7090 -0.2511
vn 0.2402 -0.9663 -0.0929
vn -0.2414 -0.9663 0.0897
vn -0.6597 -0.7090 0.2491
vn -0.9029 -0.2602 0.3422
vn -0.8770 0.2734 0.3952
vn -0.5864 0.7454 0.3172
vn -0.2157 0.9765 0.0025
vn 0.1631 0.9765 -0.1412
vn 0.6492 0.7454 -0.1515
vn 0.9185 0.2733 -0.2858
vn 0.8745 -0.2666 -0.4052
vn 0.5721 -0.7015 -0.4250
vn 0.1356 -0.9329 -0.3336
vn -0.3228 -0.9329 -0.1597
vn -0.7101 -0.7015 0.0614
vn -0.9232 -0.2666 0.2767
vn -0.8191 0.1269 0.5594
vn -0.4193 0.1876 0.8882
vn 0.1277 -0.3434 0.9305
vn 0.5215 -0.3434 0.7811
vn 0.9029 0.1876 0.3867
vn 0.9841 0.1269 -0.1246
vn 0.8198 -0.1417 -0.5548
vn 0.4311 -0.3938 -0.8118
vn -0.0552 -0.5343 -0.8435
vn -0.5181 -0.5343 -0.6679
vn -0.8611 -0.3938 -0.3217
vn -0.9815 -0.1417 0.1285
vn -0.8113 -0.0015 0.5846
vn -0.4104 -0.0072 0.9119
vn 0.1005 -0.0115 0.9949
vn 0.5845 -0.0115 0.8113
vn 0.9119 -0.0072 0.4104
vn 0.9949 -0.0015 -0.1006
vn 0.8114 0.0000 -0.5846
vn 0.4104 -0.0037 -0.9119
vn -0.1006 -0.0086 -0.9949
vn -0.5845 -0.0086 -0.8113
vn -0.9119 -0.0037 -0.4104
vn -0.9949 0.0000 0.1006
vn 0.9305 0.0980 -0.3529
vn 0.8246 -0.4714 -0.3128
vn 0.7228 -0.6344 -0.2741
vn 0.7228 -0.6344 -0.2742
vn 0.5932 -0.7730 -0.2250
vn 0.4408 -0.8819 -0.1672
vn 0.2714 -0.9569 -0.1030
vn 0.0916 -0.9952 -0.0348
vn -0.0916 -0.9952 0.0348
vn -0.2714 -0.9569 0.1030
vn -0.4408 -0.8819 0.1672
vn -0.5932 -0.7730 0.2250
vn -0.7228 -0.6344 0.2741
vn -0.8246 -0.4714 0.3128
vn -0.8947 -0.2903 0.3394
vn -0.9305 -0.0980 0.3529
vn -0.9305 0.0980 0.3529
vn -0.9305 0.0980 0.3530
vn -0.8947 0.2903 0.3394
vn -0.8246 0.4714 0.3128
vn -0.7228 0.6344 0.2742
vn -0.5932 0.7730 0.2250
vn -0.4407 0.8819 0.1672
vn -0.2714 0.9569 0.1030
vn -0.0916 0.9952 0.0348
vn 0.0916 0.9952 -0.0348
vn 0.2714 0.9569 -0.1030
vn 0.4407 0.8819 -0.1672
vn 0.5932 0.7730 -0.2250
vn 0.7228 0.6344 -0.2742
vn 0.8246 0.4714 -0.3128
vn 0.8947 0.2903 -0.3394
vn 0.9305 -0.0980 -0.3529
vn 0.8947 -0.2903 -0.3394
vn -0.3547 0.0000 -0.9350
vn 0.7183 -0.0419 0.6945
vn 0.7030 -0.1241 0.7003
vn 0.6730 -0.2015 0.7116
vn 0.6295 -0.2711 0.7281
vn 0.6295 -0.2711 0.7282
vn 0.5741 -0.3304 0.7492
vn 0.5090 -0.3769 0.7739
vn 0.4366 -0.4090 0.8013
vn 0.3598 -0.4253 0.8305
vn 0.2815 -0.4253 0.8602
vn 0.2046 -0.4090 0.8893
vn 0.2047 -0.4090 0.8893
vn 0.1323 -0.3769 0.9168
vn 0.0672 -0.3304 0.9415
vn 0.0671 -0.3304 0.9415
vn 0.0118 -0.2711 0.9625
vn -0.0318 -0.2014 0.9790
vn -0.0617 -0.1241 0.9904
vn -0.0770 -0.0419 0.9962
vn -0.0770 0.0419 0.9962
vn -0.0617 0.1241 0.9904
vn -0.0318 0.2014 0.9790
vn 0.0118 0.2711 0.9625
vn 0.0672 0.3304 0.9415
vn 0.1323 0.3769 0.9168
vn 0.2046 0.4090 0.8893
vn 0.2815 0.4253 0.8602
vn 0.3598 0.4253 0.8305
vn 0.4366 0.4090 0.8013
vn 0.5090 0.3769 0.7739
vn 0.5741 0.3304 0.7492
vn 0.6295 0.2711 0.7282
vn 0.6295 0.2711 0.7281
vn 0.6730 0.2015 0.7116
vn 0.6730 0.2015 0.7117
vn 0.7030 0.1241 0.7003
vn 0.7030 0.1240 0.7003
vn 0.7183 0.0419 0.6945
vn 0.7228 0.6344 -0.2741
vn -0.4407 -0.8819 0.1672
vn 0.2714 -0.9569 -0.1029
vn 0.4408 0.8819 -0.1672
vn -0.7228 -0.6344 0.2742
vn 0.9305 0.0980 -0.3530
vn 0.9305 -0.0980 -0.3530
vn -0.2714 -0.9569 0.1029
vn 0.3546 0.0000 0.9350
vn -0.3546 0.0000 -0.9350
vn -0.0770 0.0419 0.9961
vn 0.2047 0.4090 0.8893
usemtl None.002
s 1
f 405/739/316 406/740/316 407/741/316
f 408/742/316 406/740/316 405/739/316
f 408/742/316 409/743/316 406/740/316
f 410/744/316 409/743/316 408/742/316
f 410/744/316 411/745/316 409/743/316
f 412/746/316 411/745/316 410/744/316
f 412/746/316 413/747/316 411/745/316
f 414/748/316 413/747/316 412/746/316
f 414/748/316 415/749/316 413/747/316
f 416/750/316 415/749/316 414/748/316
f 417/751/317 418/752/317 419/753/317
f 417/751/317 420/754/317 418/752/317
f 421/755/317 420/754/317 417/751/317
f 421/755/317 422/756/317 420/754/317
f 423/757/317 422/756/317 421/755/317
f 423/757/317 424/758/317 422/756/317
f 425/759/317 424/758/317 423/757/317
f 425/759/317 426/760/317 424/758/317
f 427/761/317 426/760/317 425/759/317
f 427/761/317 428/762/317 426/760/317
f 429/763/318 430/764/319 431/765/320
f 432/766/321 431/767/322 433/768/323
f 434/769/324 433/768/325 435/770/326
f 436/771/327 434/769/327 435/770/327
f 437/772/328 438/773/328 436/771/328
f 439/774/329 440/775/329 437/772/329
f 441/776/330 442/777/330 439/774/330
f 443/778/331 444/779/331 441/776/331
f 445/780/332 446/781/332 443/778/332
f 447/782/333 445/780/334 448/783/335
f 449/784/336 448/783/337 450/785/338
f 451/786/339 450/785/340 430/764/341
f 452/787/342 451/786/342 429/763/342
f 453/788/343 429/789/343 432/766/343
f 454/790/344 432/766/344 434/769/344
f 438/773/345 454/790/345 434/769/345
f 440/775/346 455/791/346 438/773/346
f 442/777/347 456/792/347 440/775/347
f 444/779/348 457/793/348 442/777/348
f 446/781/349 458/794/349 444/779/349
f 459/795/350 460/796/351 446/781/352
f 461/797/353 459/795/354 447/782/355
f 462/798/356 447/782/356 449/784/356
f 463/799/357 449/784/357 451/786/357
f 452/787/358 464/800/358 463/799/358
f 453/788/359 465/801/359 452/802/359
f 454/790/360 466/803/360 453/788/360
f 467/804/361 454/790/361 455/791/361
f 468/805/362 455/791/362 456/792/362
f 469/806/363 456/792/363 457/793/363
f 470/807/364 457/793/365 458/794/366
f 471/808/367 458/794/367 460/796/367
f 472/809/368 460/796/369 473/810/370
f 461/797/371 472/809/372 473/810/373
f 462/798/374 474/811/374 461/797/374
f 463/799/375 475/812/376 462/798/377
f 465/813/378 476/814/378 464/800/378
f 466/803/379 477/815/379 465/801/379
f 478/816/380 479/817/380 466/803/380
f 480/818/381 478/816/382 467/804/383
f 481/819/384 467/804/384 468/805/384
f 482/820/385 468/805/386 469/806/387
f 483/821/388 469/806/389 470/807/390
f 484/822/391 470/807/391 471/808/391
f 485/823/392 471/808/393 472/809/394
f 474/811/395 485/823/395 472/809/395
f 475/812/396 486/824/396 474/811/396
f 464/800/397 487/825/397 475/812/397
f 429/763/318 451/786/398 430/764/319
f 432/766/321 429/789/399 431/767/322
f 434/769/324 432/766/400 433/768/325
f 436/771/401 438/773/401 434/769/401
f 437/772/402 440/775/402 438/773/402
f 439/774/403 442/777/403 440/775/403
f 441/776/404 444/779/404 442/777/404
f 443/778/405 446/781/405 444/779/405
f 445/780/406 459/795/406 446/781/406
f 447/782/333 459/795/407 445/780/334
f 449/784/336 447/782/408 448/783/337
f 451/786/339 449/784/409 450/785/340
f 452/787/410 463/799/410 451/786/410
f 453/788/411 452/802/411 429/789/411
f 454/790/412 453/788/412 432/766/412
f 438/773/413 455/791/413 454/790/413
f 440/775/414 456/792/414 455/791/414
f 442/777/415 457/793/415 456/792/415
f 444/779/416 458/794/416 457/793/416
f 446/781/417 460/796/417 458/794/417
f 459/795/350 473/810/418 460/796/351
f 461/797/353 473/810/419 459/795/354
f 462/798/420 461/797/420 447/782/420
f 463/799/421 462/798/421 449/784/421
f 452/787/422 465/813/422 464/800/422
f 453/788/423 466/803/423 465/801/423
f 454/790/424 478/816/424 466/803/424
f 467/804/425 478/816/425 454/790/425
f 468/805/426 467/804/426 455/791/426
f 469/806/427 468/805/427 456/792/427
f 470/807/364 469/806/428 457/793/365
f 471/808/429 470/807/429 458/794/429
f 472/809/368 471/808/430 460/796/369
f 461/797/371 474/811/431 472/809/372
f 462/798/432 475/812/432 474/811/432
f 463/799/375 464/800/433 475/812/376
f 465/813/434 477/826/434 476/814/434
f 466/803/435 479/817/435 477/815/435
f 478/816/436 488/827/436 479/817/436
f 480/818/381 488/827/437 478/816/382
f 481/819/438 480/818/438 467/804/438
f 482/820/385 481/819/439 468/805/386
f 483/821/388 482/820/440 469/806/389
f 484/822/441 483/821/441 470/807/441
f 485/823/392 484/822/442 471/808/393
f 474/811/443 486/824/443 485/823/443
f 475/812/444 487/825/444 486/824/444
f 464/800/445 476/814/445 487/825/445
f 489/828/446 490/829/446 491/830/446
f 492/831/447 493/832/447 494/833/447
f 495/834/448 496/835/449 493/832/449
f 497/836/450 498/837/450 496/835/450
f 499/838/451 500/839/451 498/837/451
f 501/840/452 502/841/452 500/839/452
f 503/842/453 504/843/453 502/841/453
f 505/844/454 506/845/454 504/843/454
f 507/846/455 508/847/455 506/845/455
f 509/848/456 510/849/456 508/847/456
f 511/850/457 512/851/457 510/849/457
f 513/852/458 514/853/458 512/851/458
f 515/854/459 516/855/459 514/853/459
f 517/856/460 518/857/460 516/855/460
f 519/858/461 520/859/461 518/857/461
f 521/860/462 522/861/463 520/859/463
f 523/862/464 524/863/464 522/861/464
f 525/864/465 526/865/465 524/863/465
f 527/866/466 528/867/466 526/865/466
f 529/868/467 530/869/467 528/867/467
f 531/870/468 532/871/468 530/869/468
f 533/872/469 534/873/469 532/871/469
f 535/874/470 536/875/470 534/873/470
f 537/876/471 538/877/471 536/875/471
f 539/878/472 540/879/472 538/877/472
f 541/880/473 542/881/473 540/879/473
f 543/882/474 544/883/474 542/881/474
f 545/884/475 546/885/475 544/883/475
f 547/886/476 548/887/476 546/885/476
f 549/888/477 491/830/477 548/887/477
f 550/889/478 551/890/478 490/891/478
f 552/892/317 553/893/317 554/894/317
f 555/895/479 494/833/479 551/890/479
f 502/896/480 518/897/480 534/898/480
f 555/895/481 556/899/481 557/900/481
f 555/895/482 558/901/482 492/831/482
f 492/831/483 559/902/483 495/834/483
f 495/834/484 560/903/485 497/836/484
f 497/836/486 561/904/486 499/838/486
f 499/838/487 562/905/487 501/840/487
f 503/842/488 562/906/488 563/907/488
f 503/842/489 564/908/489 505/844/489
f 505/844/490 565/909/490 507/846/490
f 509/848/491 565/910/491 566/911/492
f 509/848/493 567/912/493 511/850/493
f 511/850/494 568/913/495 513/852/494
f 515/854/496 568/914/496 569/915/496
f 517/856/497 569/916/497 570/917/497
f 517/856/498 571/918/498 519/858/498
f 519/858/499 572/919/499 521/860/499
f 521/860/500 573/920/500 523/862/500
f 525/864/501 573/921/501 574/922/501
f 525/864/502 575/923/502 527/866/502
f 529/868/503 575/924/503 576/925/503
f 531/870/504 576/926/504 577/927/504
f 531/870/505 578/928/505 533/872/505
f 533/872/506 579/929/506 535/874/506
f 535/874/507 580/930/507 537/876/507
f 537/876/508 581/931/508 539/878/508
f 539/878/509 582/932/509 541/880/509
f 543/882/510 582/933/510 583/934/510
f 543/882/511 584/935/511 545/884/511
f 545/884/512 585/936/513 547/886/512
f 547/886/514 586/937/515 549/888/514
f 489/828/516 586/938/516 587/939/517
f 550/940/518 587/941/518 556/942/518
f 559/943/466 588/944/466 560/903/466
f 568/914/475 589/945/475 569/915/519
f 577/946/451 590/947/451 578/928/451
f 586/938/460 591/948/460 587/939/460
f 564/949/471 592/950/471 565/909/471
f 573/921/479 554/951/479 574/922/479
f 582/933/520 593/952/520 583/934/520
f 556/942/461 591/953/461 594/954/461
f 560/955/467 595/956/467 561/904/467
f 569/916/476 596/957/476 570/917/476
f 578/958/452 597/959/452 579/929/521
f 556/899/462 598/960/462 557/900/462
f 565/910/472 599/961/472 566/911/472
f 574/962/447 600/963/447 575/923/447
f 583/964/457 601/965/457 584/935/457
f 561/966/468 602/967/468 562/905/468
f 570/968/477 603/969/477 571/918/477
f 579/970/453 604/971/453 580/930/453
f 557/972/464 552/973/464 558/901/464
f 566/974/522 605/975/522 567/912/522
f 575/924/449 606/976/449 576/925/449
f 584/977/523 607/978/523 585/936/523
f 562/906/469 608/979/469 563/907/469
f 571/980/524 609/981/524 572/919/446
f 580/982/454 610/983/454 581/931/454
f 558/984/465 611/985/465 559/902/465
f 567/986/474 612/987/474 568/913/474
f 576/926/450 613/988/450 577/927/450
f 585/989/459 614/990/459 586/937/459
f 563/991/470 615/992/470 564/908/470
f 572/993/525 616/994/525 573/920/525
f 581/995/526 553/996/526 582/932/455
f 489/828/446 550/940/446 490/829/446
f 492/831/447 495/834/447 493/832/447
f 495/834/448 497/836/448 496/835/449
f 497/836/450 499/838/450 498/837/450
f 499/838/451 501/840/451 500/839/451
f 501/840/452 503/842/452 502/841/452
f 503/842/453 505/844/453 504/843/453
f 505/844/454 507/846/454 506/845/454
f 507/846/455 509/848/455 508/847/455
f 509/848/456 511/850/456 510/849/456
f 511/850/457 513/852/457 512/851/457
f 513/852/458 515/854/458 514/853/458
f 515/854/459 517/856/459 516/855/459
f 517/856/460 519/858/460 518/857/460
f 519/858/461 521/860/461 520/859/461
f 521/860/462 523/862/462 522/861/463
f 523/862/464 525/864/464 524/863/464
f 525/864/465 527/866/465 526/865/465
f 527/866/466 529/868/466 528/867/466
f 529/868/467 531/870/467 530/869/467
f 531/870/468 533/872/468 532/871/468
f 533/872/469 535/874/469 534/873/469
f 535/874/470 537/876/470 536/875/470
f 537/876/471 539/878/471 538/877/471
f 539/878/472 541/880/472 540/879/472
f 541/880/473 543/882/473 542/881/473
f 543/882/474 545/884/474 544/883/474
f 545/884/475 547/886/475 546/885/475
f 547/886/476 549/888/476 548/887/476
f 549/888/477 489/828/477 491/830/477
f 550/889/478 555/895/478 551/890/478
f 552/892/317 598/997/527 614/998/317
f 598/997/527 594/999/317 614/998/317
f 594/999/317 591/1000/317 614/998/317
f 614/998/317 607/1001/317 601/1002/317
f 601/1002/317 593/1003/317 553/893/317
f 553/893/317 610/1004/317 604/1005/317
f 604/1005/317 597/1006/317 553/893/317
f 597/1006/317 590/1007/317 553/893/317
f 590/1007/317 613/1008/317 606/1009/317
f 606/1009/317 600/1010/317 590/1007/317
f 600/1010/317 554/894/317 590/1007/317
f 554/894/317 616/1011/317 609/1012/527
f 609/1012/527 603/1013/317 596/1014/317
f 596/1014/317 589/1015/317 599/1016/317
f 589/1015/317 612/1017/317 599/1016/317
f 612/1017/317 605/1018/317 599/1016/317
f 599/1016/317 592/1019/317 615/1020/527
f 615/1020/527 608/1021/317 599/1016/317
f 608/1021/317 602/1022/317 599/1016/317
f 602/1022/317 595/1023/317 552/892/317
f 595/1023/317 588/1024/317 552/892/317
f 588/1024/317 611/1025/527 552/892/317
f 614/998/317 601/1002/317 553/893/317
f 554/894/317 609/1012/527 596/1014/317
f 552/892/317 614/998/317 553/893/317
f 553/893/317 590/1007/317 554/894/317
f 554/894/317 596/1014/317 599/1016/317
f 599/1016/317 602/1022/317 554/894/317
f 602/1022/317 552/892/317 554/894/317
f 555/895/479 492/831/479 494/833/479
f 491/1026/480 490/1027/480 551/1028/480
f 551/1028/480 494/1029/528 493/1030/480
f 493/1030/480 496/1031/480 498/1032/480
f 498/1032/480 500/1033/480 502/896/480
f 502/896/480 504/1034/480 506/1035/480
f 506/1035/480 508/1036/480 510/1037/480
f 510/1037/480 512/1038/480 514/1039/480
f 514/1039/480 516/1040/528 518/897/480
f 518/897/480 520/1041/480 522/1042/480
f 522/1042/480 524/1043/528 526/1044/480
f 526/1044/480 528/1045/480 530/1046/528
f 530/1046/528 532/1047/528 534/898/480
f 534/898/480 536/1048/480 538/1049/480
f 538/1049/480 540/1050/480 534/898/480
f 540/1050/480 542/1051/480 534/898/480
f 542/1051/480 544/1052/480 546/1053/528
f 546/1053/528 548/1054/480 542/1051/480
f 548/1054/480 491/1026/480 542/1051/480
f 491/1026/480 551/1028/480 502/896/480
f 551/1028/480 493/1030/480 502/896/480
f 493/1030/480 498/1032/480 502/896/480
f 502/896/480 506/1035/480 510/1037/480
f 510/1037/480 514/1039/480 502/896/480
f 514/1039/480 518/897/480 502/896/480
f 518/897/480 522/1042/480 534/898/480
f 522/1042/480 526/1044/480 534/898/480
f 526/1044/480 530/1046/528 534/898/480
f 534/898/480 542/1051/480 491/1026/480
f 491/1026/480 502/896/480 534/898/480
f 555/895/481 550/889/481 556/899/481
f 555/895/482 557/972/482 558/901/482
f 492/831/483 558/984/483 559/902/483
f 495/834/484 559/943/485 560/903/485
f 497/836/486 560/955/486 561/904/486
f 499/838/487 561/966/487 562/905/487
f 503/842/488 501/840/488 562/906/488
f 503/842/489 563/991/489 564/908/489
f 505/844/490 564/949/490 565/909/490
f 509/848/491 507/846/491 565/910/491
f 509/848/493 566/974/493 567/912/493
f 511/850/494 567/986/495 568/913/495
f 515/854/496 513/852/496 568/914/496
f 517/856/497 515/854/497 569/916/497
f 517/856/498 570/968/498 571/918/498
f 519/858/499 571/980/499 572/919/499
f 521/860/500 572/993/529 573/920/500
f 525/864/501 523/862/501 573/921/501
f 525/864/502 574/962/502 575/923/502
f 529/868/503 527/866/503 575/924/503
f 531/870/504 529/868/504 576/926/504
f 531/870/505 577/946/505 578/928/505
f 533/872/506 578/958/530 579/929/506
f 535/874/507 579/970/507 580/930/507
f 537/876/508 580/982/508 581/931/508
f 539/878/509 581/995/509 582/932/509
f 543/882/510 541/880/510 582/933/510
f 543/882/511 583/964/511 584/935/511
f 545/884/512 584/977/513 585/936/513
f 547/886/514 585/989/515 586/937/515
f 489/828/516 549/888/516 586/938/516
f 550/940/518 489/828/518 587/941/518
f 559/943/466 611/1055/466 588/944/466
f 568/914/475 612/1056/475 589/945/475
f 577/946/451 613/1057/451 590/947/451
f 586/938/460 614/1058/460 591/948/460
f 564/949/471 615/1059/471 592/950/471
f 573/921/479 616/1060/479 554/951/479
f 582/933/520 553/1061/520 593/952/520
f 556/942/461 587/941/461 591/953/461
f 560/955/467 588/1062/467 595/956/467
f 569/916/476 589/1063/476 596/957/476
f 578/958/452 590/1064/452 597/959/452
f 556/899/462 594/1065/462 598/960/462
f 565/910/472 592/1066/472 599/961/472
f 574/962/447 554/1067/447 600/963/447
f 583/964/457 593/1068/457 601/965/457
f 561/966/468 595/1069/468 602/967/468
f 570/968/477 596/1070/477 603/969/477
f 579/970/453 597/1071/453 604/971/453
f 557/972/464 598/1072/464 552/973/464
f 566/974/522 599/1073/522 605/975/522
f 575/924/449 600/1074/448 606/976/449
f 584/977/523 601/1075/523 607/978/523
f 562/906/469 602/1076/469 608/979/469
f 571/980/524 603/1077/524 609/981/524
f 580/982/454 604/1078/454 610/983/454
f 558/984/465 552/1079/465 611/985/465
f 567/986/474 605/1080/474 612/987/474
f 576/926/450 606/1081/450 613/988/450
f 585/989/459 607/1082/459 614/990/459
f 563/991/470 608/1083/470 615/992/470
f 572/993/525 609/1084/478 616/994/525
f 581/995/526 610/1085/526 553/996/526
